;Layer: Drill PTH
;EasyEDA v6.3.22, 2020-02-07T10:38:26+05:30
;d98ca743bd924faf94c975302ac9eeb7,545d4b8ce55c4096bfffc31d6a5384ca,10
;Gerber Generator version 0.2
M48
METRIC,LZ,000.000
;Holesize 1 = 0.712 METRIC
T01C0.712
;Holesize 2 = 0.762 METRIC
T02C0.762
;Holesize 3 = 0.900 METRIC
T03C0.900
;Holesize 4 = 0.914 METRIC
T04C0.914
;Holesize 5 = 0.915 METRIC
T05C0.915
;Holesize 6 = 1.200 METRIC
T06C1.200
;Holesize 7 = 3.175 METRIC
T07C3.175
%
G05
G90
T01
X+057150Y+016637
X+059690Y+016637
X+062230Y+016637
X+064770Y+016637
X+064770Y+024257
X+062230Y+024257
X+059690Y+024257
X+057150Y+024257
T02
X+089535Y+020330
X+089535Y+022870
X+089535Y+017769
X+076316Y+008255
X+073776Y+008255
X+078877Y+008255
T03
X+038100Y+015748
X+045720Y+015748
T04
X+096139Y+076835
X+096139Y+074295
X+096139Y+071755
X+096139Y+069215
T05
X+069088Y+067945
X+069088Y+070485
X+069088Y+073025
X+069088Y+075565
X+069088Y+078105
X+069088Y+065405
X+069088Y+062865
X+069088Y+060325
X+069088Y+057785
X+069088Y+055245
X+069088Y+052705
X+069088Y+050165
X+069088Y+047625
X+069088Y+045085
X+069088Y+042545
X+084328Y+078105
X+084328Y+075565
X+084328Y+073025
X+084328Y+070485
X+084328Y+067945
X+084328Y+065405
X+084328Y+062865
X+084328Y+060325
X+084328Y+057785
X+084328Y+055245
X+084328Y+052705
X+084328Y+050165
X+084328Y+047625
X+084328Y+045085
X+084328Y+042545
X+045847Y+052197
X+045847Y+049657
X+045847Y+047117
X+045847Y+044577
X+045847Y+042037
X+045847Y+039497
X+045847Y+036957
X+045847Y+077216
X+045847Y+074676
X+045847Y+072136
X+045847Y+069596
X+045847Y+067056
T06
X+089154Y+005715
X+089154Y+008255
X+071882Y+015621
X+069342Y+015621
X+021463Y+036957
X+021463Y+039497
X+021336Y+069469
X+021336Y+072009
X+080264Y+024511
X+077724Y+024511
X+098679Y+005842
X+098679Y+008382
T07
X+043587Y+061686
X+027586Y+061686
M30
