G04 Layer: BottomLayer*
G04 EasyEDA v6.3.22, 2020-02-07T10:38:26+05:30*
G04 d98ca743bd924faf94c975302ac9eeb7,545d4b8ce55c4096bfffc31d6a5384ca,10*
G04 Gerber Generator version 0.2*
G04 Scale: 100 percent, Rotated: No, Reflected: No *
G04 Dimensions in millimeters *
G04 leading zeros omitted , absolute positions ,3 integer and 3 decimal *
%FSLAX33Y33*%
%MOMM*%
G90*
G71D02*

%ADD11R,1.999996X1.999996*%
%ADD12C,1.999996*%
%ADD13C,2.199996*%
%ADD14C,1.778000*%
%ADD15R,1.778000X1.778000*%
%ADD16C,1.799996*%
%ADD17R,1.919986X2.199996*%
%ADD18C,1.919986*%
%ADD19C,3.302000*%
%ADD20C,1.524000*%
%ADD21R,1.397000X1.397000*%
%ADD22C,1.397000*%
%ADD23C,0.499999*%

%LPD*%
G36*
G01X107591Y91691D02*
G01X358Y91691D01*
G01X343Y91690D01*
G01X329Y91687D01*
G01X315Y91682D01*
G01X303Y91675D01*
G01X291Y91666D01*
G01X281Y91656D01*
G01X272Y91644D01*
G01X265Y91632D01*
G01X260Y91618D01*
G01X257Y91604D01*
G01X256Y91589D01*
G01X256Y358D01*
G01X257Y343D01*
G01X260Y329D01*
G01X265Y315D01*
G01X272Y303D01*
G01X281Y291D01*
G01X291Y281D01*
G01X303Y272D01*
G01X315Y265D01*
G01X329Y260D01*
G01X343Y257D01*
G01X358Y256D01*
G01X107591Y256D01*
G01X107606Y257D01*
G01X107620Y260D01*
G01X107634Y265D01*
G01X107646Y272D01*
G01X107658Y281D01*
G01X107668Y291D01*
G01X107677Y303D01*
G01X107684Y315D01*
G01X107689Y329D01*
G01X107692Y343D01*
G01X107693Y358D01*
G01X107693Y91589D01*
G01X107692Y91604D01*
G01X107689Y91618D01*
G01X107684Y91632D01*
G01X107677Y91644D01*
G01X107668Y91656D01*
G01X107658Y91666D01*
G01X107646Y91675D01*
G01X107634Y91682D01*
G01X107620Y91687D01*
G01X107606Y91690D01*
G01X107591Y91691D01*
G37*

%LPC*%
G36*
G01X38283Y53702D02*
G01X38227Y53703D01*
G01X38170Y53702D01*
G01X38114Y53699D01*
G01X38058Y53694D01*
G01X38002Y53686D01*
G01X37947Y53677D01*
G01X37891Y53665D01*
G01X37836Y53652D01*
G01X37783Y53636D01*
G01X37729Y53618D01*
G01X37676Y53599D01*
G01X37624Y53577D01*
G01X37573Y53554D01*
G01X37522Y53528D01*
G01X37473Y53501D01*
G01X37425Y53472D01*
G01X37378Y53441D01*
G01X37332Y53409D01*
G01X37287Y53375D01*
G01X37244Y53338D01*
G01X37202Y53301D01*
G01X37161Y53262D01*
G01X37122Y53221D01*
G01X37085Y53179D01*
G01X37048Y53136D01*
G01X37014Y53091D01*
G01X36982Y53045D01*
G01X36951Y52998D01*
G01X36922Y52950D01*
G01X36895Y52901D01*
G01X36869Y52850D01*
G01X36846Y52799D01*
G01X36824Y52747D01*
G01X36805Y52694D01*
G01X36787Y52640D01*
G01X36771Y52587D01*
G01X36758Y52532D01*
G01X36746Y52476D01*
G01X36737Y52421D01*
G01X36729Y52365D01*
G01X36724Y52309D01*
G01X36721Y52253D01*
G01X36720Y52197D01*
G01X36721Y52140D01*
G01X36724Y52084D01*
G01X36729Y52028D01*
G01X36737Y51972D01*
G01X36746Y51917D01*
G01X36758Y51861D01*
G01X36771Y51806D01*
G01X36787Y51753D01*
G01X36805Y51699D01*
G01X36824Y51646D01*
G01X36846Y51594D01*
G01X36869Y51543D01*
G01X36895Y51492D01*
G01X36922Y51443D01*
G01X36951Y51395D01*
G01X36982Y51348D01*
G01X37014Y51302D01*
G01X37048Y51257D01*
G01X37085Y51214D01*
G01X37122Y51172D01*
G01X37161Y51131D01*
G01X37202Y51092D01*
G01X37244Y51055D01*
G01X37287Y51018D01*
G01X37332Y50984D01*
G01X37378Y50952D01*
G01X37425Y50921D01*
G01X37473Y50892D01*
G01X37522Y50865D01*
G01X37573Y50839D01*
G01X37624Y50816D01*
G01X37676Y50794D01*
G01X37729Y50775D01*
G01X37783Y50757D01*
G01X37836Y50741D01*
G01X37891Y50728D01*
G01X37947Y50716D01*
G01X38002Y50707D01*
G01X38058Y50699D01*
G01X38114Y50694D01*
G01X38170Y50691D01*
G01X38227Y50690D01*
G01X38283Y50691D01*
G01X38339Y50694D01*
G01X38395Y50699D01*
G01X38451Y50707D01*
G01X38506Y50716D01*
G01X38562Y50728D01*
G01X38617Y50741D01*
G01X38670Y50757D01*
G01X38724Y50775D01*
G01X38777Y50794D01*
G01X38829Y50816D01*
G01X38880Y50839D01*
G01X38931Y50865D01*
G01X38980Y50892D01*
G01X39028Y50921D01*
G01X39075Y50952D01*
G01X39121Y50984D01*
G01X39166Y51018D01*
G01X39209Y51055D01*
G01X39251Y51092D01*
G01X39292Y51131D01*
G01X39331Y51172D01*
G01X39368Y51214D01*
G01X39405Y51257D01*
G01X39439Y51302D01*
G01X39471Y51348D01*
G01X39502Y51395D01*
G01X39531Y51443D01*
G01X39558Y51492D01*
G01X39584Y51543D01*
G01X39607Y51594D01*
G01X39629Y51646D01*
G01X39648Y51699D01*
G01X39666Y51753D01*
G01X39682Y51806D01*
G01X39695Y51861D01*
G01X39707Y51917D01*
G01X39716Y51972D01*
G01X39724Y52028D01*
G01X39729Y52084D01*
G01X39732Y52140D01*
G01X39733Y52197D01*
G01X39732Y52253D01*
G01X39729Y52309D01*
G01X39724Y52365D01*
G01X39716Y52421D01*
G01X39707Y52476D01*
G01X39695Y52532D01*
G01X39682Y52587D01*
G01X39666Y52640D01*
G01X39648Y52694D01*
G01X39629Y52747D01*
G01X39607Y52799D01*
G01X39584Y52850D01*
G01X39558Y52901D01*
G01X39531Y52950D01*
G01X39502Y52998D01*
G01X39471Y53045D01*
G01X39439Y53091D01*
G01X39405Y53136D01*
G01X39368Y53179D01*
G01X39331Y53221D01*
G01X39292Y53262D01*
G01X39251Y53301D01*
G01X39209Y53338D01*
G01X39166Y53375D01*
G01X39121Y53409D01*
G01X39075Y53441D01*
G01X39028Y53472D01*
G01X38980Y53501D01*
G01X38931Y53528D01*
G01X38880Y53554D01*
G01X38829Y53577D01*
G01X38777Y53599D01*
G01X38724Y53618D01*
G01X38670Y53636D01*
G01X38617Y53652D01*
G01X38562Y53665D01*
G01X38506Y53677D01*
G01X38451Y53686D01*
G01X38395Y53694D01*
G01X38339Y53699D01*
G01X38283Y53702D01*
G37*
G36*
G01X98115Y5278D02*
G01X97422Y5278D01*
G01X97422Y4841D01*
G01X97423Y4818D01*
G01X97426Y4795D01*
G01X97432Y4771D01*
G01X97439Y4749D01*
G01X97449Y4727D01*
G01X97460Y4707D01*
G01X97474Y4687D01*
G01X97489Y4669D01*
G01X97506Y4652D01*
G01X97524Y4637D01*
G01X97544Y4623D01*
G01X97564Y4612D01*
G01X97586Y4602D01*
G01X97608Y4595D01*
G01X97632Y4589D01*
G01X97655Y4586D01*
G01X97679Y4585D01*
G01X98115Y4585D01*
G01X98115Y5278D01*
G37*
G36*
G01X99935Y5278D02*
G01X99242Y5278D01*
G01X99242Y4585D01*
G01X99679Y4585D01*
G01X99702Y4586D01*
G01X99725Y4589D01*
G01X99749Y4595D01*
G01X99771Y4602D01*
G01X99793Y4612D01*
G01X99813Y4623D01*
G01X99833Y4637D01*
G01X99851Y4652D01*
G01X99868Y4669D01*
G01X99883Y4687D01*
G01X99897Y4707D01*
G01X99908Y4727D01*
G01X99918Y4749D01*
G01X99925Y4771D01*
G01X99931Y4795D01*
G01X99934Y4818D01*
G01X99935Y4841D01*
G01X99935Y5278D01*
G37*
G36*
G01X99802Y7818D02*
G01X99242Y7818D01*
G01X99242Y6405D01*
G01X99935Y6405D01*
G01X99935Y6841D01*
G01X99934Y6865D01*
G01X99931Y6888D01*
G01X99925Y6912D01*
G01X99918Y6934D01*
G01X99908Y6956D01*
G01X99897Y6976D01*
G01X99883Y6996D01*
G01X99868Y7014D01*
G01X99851Y7031D01*
G01X99833Y7046D01*
G01X99813Y7060D01*
G01X99793Y7071D01*
G01X99771Y7081D01*
G01X99749Y7088D01*
G01X99725Y7094D01*
G01X99702Y7097D01*
G01X99679Y7098D01*
G01X99348Y7098D01*
G01X99333Y7099D01*
G01X99319Y7102D01*
G01X99305Y7107D01*
G01X99293Y7114D01*
G01X99281Y7123D01*
G01X99271Y7133D01*
G01X99262Y7145D01*
G01X99255Y7157D01*
G01X99250Y7171D01*
G01X99247Y7185D01*
G01X99246Y7200D01*
G01X99247Y7215D01*
G01X99251Y7230D01*
G01X99256Y7244D01*
G01X99264Y7257D01*
G01X99273Y7269D01*
G01X99285Y7280D01*
G01X99298Y7288D01*
G01X99343Y7315D01*
G01X99388Y7344D01*
G01X99431Y7375D01*
G01X99473Y7408D01*
G01X99513Y7442D01*
G01X99552Y7478D01*
G01X99589Y7515D01*
G01X99625Y7554D01*
G01X99659Y7595D01*
G01X99691Y7637D01*
G01X99721Y7681D01*
G01X99750Y7725D01*
G01X99777Y7771D01*
G01X99802Y7818D01*
G37*
G36*
G01X98115Y7818D02*
G01X97555Y7818D01*
G01X97580Y7771D01*
G01X97607Y7725D01*
G01X97636Y7681D01*
G01X97666Y7637D01*
G01X97698Y7595D01*
G01X97732Y7554D01*
G01X97768Y7515D01*
G01X97805Y7478D01*
G01X97844Y7442D01*
G01X97884Y7408D01*
G01X97926Y7375D01*
G01X97969Y7344D01*
G01X98014Y7315D01*
G01X98059Y7288D01*
G01X98072Y7280D01*
G01X98084Y7269D01*
G01X98093Y7257D01*
G01X98101Y7244D01*
G01X98106Y7230D01*
G01X98110Y7215D01*
G01X98111Y7199D01*
G01X98110Y7185D01*
G01X98107Y7171D01*
G01X98102Y7157D01*
G01X98095Y7145D01*
G01X98086Y7133D01*
G01X98076Y7123D01*
G01X98064Y7114D01*
G01X98052Y7107D01*
G01X98038Y7102D01*
G01X98024Y7099D01*
G01X98009Y7098D01*
G01X97679Y7098D01*
G01X97655Y7097D01*
G01X97632Y7094D01*
G01X97608Y7088D01*
G01X97586Y7081D01*
G01X97564Y7071D01*
G01X97544Y7060D01*
G01X97524Y7046D01*
G01X97506Y7031D01*
G01X97489Y7014D01*
G01X97474Y6996D01*
G01X97460Y6976D01*
G01X97449Y6956D01*
G01X97439Y6934D01*
G01X97432Y6912D01*
G01X97426Y6888D01*
G01X97423Y6865D01*
G01X97422Y6841D01*
G01X97422Y6405D01*
G01X98115Y6405D01*
G01X98115Y7818D01*
G37*
G36*
G01X99290Y9479D02*
G01X99242Y9505D01*
G01X99242Y8945D01*
G01X99802Y8945D01*
G01X99776Y8993D01*
G01X99749Y9039D01*
G01X99720Y9084D01*
G01X99689Y9128D01*
G01X99656Y9170D01*
G01X99622Y9211D01*
G01X99586Y9251D01*
G01X99548Y9289D01*
G01X99508Y9325D01*
G01X99467Y9359D01*
G01X99425Y9392D01*
G01X99381Y9423D01*
G01X99336Y9452D01*
G01X99290Y9479D01*
G37*
G36*
G01X98115Y8945D02*
G01X98115Y9505D01*
G01X98067Y9479D01*
G01X98021Y9452D01*
G01X97976Y9423D01*
G01X97932Y9392D01*
G01X97890Y9359D01*
G01X97849Y9325D01*
G01X97809Y9289D01*
G01X97771Y9251D01*
G01X97735Y9211D01*
G01X97701Y9170D01*
G01X97668Y9128D01*
G01X97637Y9084D01*
G01X97608Y9039D01*
G01X97581Y8993D01*
G01X97555Y8945D01*
G01X98115Y8945D01*
G37*
G36*
G01X45906Y38312D02*
G01X45847Y38313D01*
G01X45787Y38312D01*
G01X45727Y38308D01*
G01X45668Y38301D01*
G01X45609Y38292D01*
G01X45550Y38280D01*
G01X45492Y38266D01*
G01X45436Y38249D01*
G01X45420Y38246D01*
G01X45405Y38244D01*
G01X45389Y38246D01*
G01X45373Y38249D01*
G01X45364Y38237D01*
G01X45353Y38225D01*
G01X45340Y38216D01*
G01X45326Y38209D01*
G01X45277Y38188D01*
G01X45229Y38165D01*
G01X45183Y38140D01*
G01X45137Y38112D01*
G01X45092Y38084D01*
G01X45048Y38053D01*
G01X45006Y38021D01*
G01X44965Y37987D01*
G01X44925Y37952D01*
G01X44886Y37915D01*
G01X44814Y37837D01*
G01X44781Y37796D01*
G01X44749Y37753D01*
G01X44718Y37709D01*
G01X44689Y37665D01*
G01X44662Y37619D01*
G01X44637Y37572D01*
G01X44614Y37524D01*
G01X44593Y37475D01*
G01X44573Y37425D01*
G01X44556Y37375D01*
G01X44541Y37324D01*
G01X44527Y37273D01*
G01X44516Y37221D01*
G01X44506Y37168D01*
G01X44499Y37116D01*
G01X44494Y37063D01*
G01X44491Y37010D01*
G01X44490Y36957D01*
G01X44491Y36903D01*
G01X44494Y36850D01*
G01X44499Y36797D01*
G01X44507Y36744D01*
G01X44516Y36691D01*
G01X44528Y36640D01*
G01X44541Y36588D01*
G01X44557Y36537D01*
G01X44574Y36486D01*
G01X44594Y36437D01*
G01X44615Y36388D01*
G01X44638Y36340D01*
G01X44663Y36293D01*
G01X44690Y36247D01*
G01X44719Y36202D01*
G01X44750Y36158D01*
G01X44782Y36116D01*
G01X44816Y36075D01*
G01X44851Y36034D01*
G01X44888Y35996D01*
G01X44927Y35959D01*
G01X44967Y35924D01*
G01X45008Y35890D01*
G01X45051Y35858D01*
G01X45095Y35827D01*
G01X45139Y35799D01*
G01X45186Y35772D01*
G01X45233Y35747D01*
G01X45281Y35724D01*
G01X45305Y35708D01*
G01X45315Y35698D01*
G01X45324Y35686D01*
G01X45331Y35673D01*
G01X45336Y35660D01*
G01X45339Y35646D01*
G01X45340Y35631D01*
G01X45340Y35303D01*
G01X45339Y35288D01*
G01X45335Y35272D01*
G01X45329Y35257D01*
G01X45321Y35244D01*
G01X45310Y35231D01*
G01X37995Y27917D01*
G01X37973Y27892D01*
G01X37952Y27867D01*
G01X37932Y27840D01*
G01X37915Y27812D01*
G01X37899Y27783D01*
G01X37886Y27753D01*
G01X37874Y27722D01*
G01X37864Y27690D01*
G01X37857Y27658D01*
G01X37851Y27625D01*
G01X37848Y27592D01*
G01X37847Y27559D01*
G01X37847Y17162D01*
G01X37846Y17147D01*
G01X37842Y17132D01*
G01X37837Y17119D01*
G01X37830Y17105D01*
G01X37821Y17094D01*
G01X37810Y17084D01*
G01X37798Y17075D01*
G01X37784Y17068D01*
G01X37770Y17063D01*
G01X37719Y17050D01*
G01X37669Y17034D01*
G01X37619Y17016D01*
G01X37570Y16996D01*
G01X37521Y16975D01*
G01X37474Y16951D01*
G01X37427Y16926D01*
G01X37382Y16899D01*
G01X37338Y16870D01*
G01X37295Y16840D01*
G01X37253Y16807D01*
G01X37212Y16774D01*
G01X37173Y16738D01*
G01X37135Y16701D01*
G01X37098Y16663D01*
G01X37064Y16623D01*
G01X37030Y16582D01*
G01X36998Y16540D01*
G01X36968Y16496D01*
G01X36940Y16452D01*
G01X36913Y16406D01*
G01X36889Y16359D01*
G01X36866Y16311D01*
G01X36845Y16263D01*
G01X36825Y16214D01*
G01X36808Y16164D01*
G01X36793Y16113D01*
G01X36780Y16062D01*
G01X36769Y16010D01*
G01X36759Y15958D01*
G01X36752Y15906D01*
G01X36747Y15853D01*
G01X36744Y15800D01*
G01X36743Y15748D01*
G01X36744Y15694D01*
G01X36747Y15641D01*
G01X36752Y15588D01*
G01X36760Y15535D01*
G01X36769Y15483D01*
G01X36780Y15431D01*
G01X36794Y15379D01*
G01X36809Y15328D01*
G01X36827Y15278D01*
G01X36846Y15228D01*
G01X36868Y15180D01*
G01X36891Y15132D01*
G01X36916Y15085D01*
G01X36943Y15039D01*
G01X36972Y14994D01*
G01X37002Y14950D01*
G01X37034Y14908D01*
G01X37068Y14867D01*
G01X37103Y14826D01*
G01X37140Y14788D01*
G01X37178Y14751D01*
G01X37219Y14716D01*
G01X37260Y14682D01*
G01X37302Y14650D01*
G01X37346Y14620D01*
G01X37391Y14591D01*
G01X37437Y14564D01*
G01X37484Y14539D01*
G01X37532Y14516D01*
G01X37580Y14494D01*
G01X37630Y14475D01*
G01X37680Y14457D01*
G01X37731Y14442D01*
G01X37783Y14428D01*
G01X37835Y14417D01*
G01X37887Y14408D01*
G01X37940Y14400D01*
G01X37993Y14395D01*
G01X38046Y14392D01*
G01X38100Y14391D01*
G01X38153Y14392D01*
G01X38206Y14395D01*
G01X38259Y14400D01*
G01X38312Y14408D01*
G01X38364Y14417D01*
G01X38416Y14428D01*
G01X38468Y14442D01*
G01X38519Y14457D01*
G01X38569Y14475D01*
G01X38619Y14494D01*
G01X38667Y14516D01*
G01X38715Y14539D01*
G01X38762Y14564D01*
G01X38808Y14591D01*
G01X38853Y14620D01*
G01X38897Y14650D01*
G01X38939Y14682D01*
G01X38980Y14716D01*
G01X39021Y14751D01*
G01X39059Y14788D01*
G01X39096Y14826D01*
G01X39131Y14867D01*
G01X39165Y14908D01*
G01X39197Y14950D01*
G01X39227Y14994D01*
G01X39256Y15039D01*
G01X39283Y15085D01*
G01X39308Y15132D01*
G01X39331Y15180D01*
G01X39353Y15228D01*
G01X39372Y15278D01*
G01X39390Y15328D01*
G01X39405Y15379D01*
G01X39419Y15431D01*
G01X39430Y15483D01*
G01X39439Y15535D01*
G01X39447Y15588D01*
G01X39452Y15641D01*
G01X39455Y15694D01*
G01X39456Y15748D01*
G01X39455Y15800D01*
G01X39452Y15854D01*
G01X39447Y15906D01*
G01X39440Y15959D01*
G01X39430Y16011D01*
G01X39419Y16063D01*
G01X39406Y16114D01*
G01X39390Y16165D01*
G01X39373Y16215D01*
G01X39354Y16264D01*
G01X39332Y16313D01*
G01X39310Y16361D01*
G01X39285Y16407D01*
G01X39258Y16454D01*
G01X39229Y16498D01*
G01X39199Y16542D01*
G01X39167Y16584D01*
G01X39134Y16625D01*
G01X39099Y16665D01*
G01X39062Y16703D01*
G01X39024Y16740D01*
G01X38984Y16776D01*
G01X38944Y16809D01*
G01X38902Y16842D01*
G01X38889Y16852D01*
G01X38879Y16864D01*
G01X38871Y16877D01*
G01X38865Y16892D01*
G01X38862Y16908D01*
G01X38860Y16924D01*
G01X38860Y27307D01*
G01X38862Y27322D01*
G01X38865Y27338D01*
G01X38871Y27353D01*
G01X38879Y27366D01*
G01X38890Y27379D01*
G01X46205Y34693D01*
G01X46228Y34718D01*
G01X46248Y34743D01*
G01X46268Y34770D01*
G01X46285Y34798D01*
G01X46301Y34827D01*
G01X46314Y34857D01*
G01X46326Y34888D01*
G01X46336Y34920D01*
G01X46343Y34952D01*
G01X46349Y34985D01*
G01X46352Y35018D01*
G01X46353Y35052D01*
G01X46353Y35631D01*
G01X46354Y35646D01*
G01X46357Y35660D01*
G01X46362Y35673D01*
G01X46369Y35686D01*
G01X46378Y35698D01*
G01X46388Y35708D01*
G01X46412Y35724D01*
G01X46460Y35747D01*
G01X46507Y35772D01*
G01X46554Y35799D01*
G01X46598Y35827D01*
G01X46642Y35858D01*
G01X46685Y35890D01*
G01X46726Y35924D01*
G01X46766Y35959D01*
G01X46805Y35996D01*
G01X46842Y36034D01*
G01X46877Y36075D01*
G01X46911Y36116D01*
G01X46943Y36158D01*
G01X46974Y36202D01*
G01X47003Y36247D01*
G01X47030Y36293D01*
G01X47055Y36340D01*
G01X47078Y36388D01*
G01X47099Y36437D01*
G01X47119Y36486D01*
G01X47136Y36537D01*
G01X47152Y36588D01*
G01X47165Y36640D01*
G01X47177Y36691D01*
G01X47186Y36744D01*
G01X47194Y36797D01*
G01X47199Y36850D01*
G01X47202Y36903D01*
G01X47203Y36957D01*
G01X47202Y37010D01*
G01X47199Y37063D01*
G01X47194Y37116D01*
G01X47187Y37168D01*
G01X47177Y37221D01*
G01X47166Y37273D01*
G01X47152Y37324D01*
G01X47137Y37375D01*
G01X47120Y37425D01*
G01X47100Y37475D01*
G01X47079Y37524D01*
G01X47056Y37572D01*
G01X47031Y37619D01*
G01X47004Y37665D01*
G01X46975Y37709D01*
G01X46944Y37753D01*
G01X46912Y37796D01*
G01X46879Y37837D01*
G01X46807Y37915D01*
G01X46768Y37952D01*
G01X46728Y37987D01*
G01X46687Y38021D01*
G01X46645Y38053D01*
G01X46601Y38084D01*
G01X46556Y38112D01*
G01X46510Y38140D01*
G01X46464Y38165D01*
G01X46416Y38188D01*
G01X46367Y38209D01*
G01X46353Y38216D01*
G01X46340Y38225D01*
G01X46329Y38237D01*
G01X46320Y38249D01*
G01X46304Y38246D01*
G01X46288Y38244D01*
G01X46273Y38246D01*
G01X46257Y38249D01*
G01X46201Y38266D01*
G01X46143Y38280D01*
G01X46084Y38292D01*
G01X46025Y38301D01*
G01X45966Y38308D01*
G01X45906Y38312D01*
G37*
G36*
G01X96740Y77823D02*
G01X96652Y77871D01*
G01X96652Y77348D01*
G01X97175Y77348D01*
G01X97127Y77436D01*
G01X97100Y77478D01*
G01X97071Y77519D01*
G01X97040Y77559D01*
G01X97008Y77598D01*
G01X96974Y77635D01*
G01X96939Y77670D01*
G01X96902Y77704D01*
G01X96863Y77736D01*
G01X96823Y77767D01*
G01X96782Y77796D01*
G01X96740Y77823D01*
G37*
G36*
G01X95625Y77348D02*
G01X95625Y77871D01*
G01X95537Y77823D01*
G01X95495Y77796D01*
G01X95454Y77767D01*
G01X95414Y77736D01*
G01X95375Y77704D01*
G01X95338Y77670D01*
G01X95303Y77635D01*
G01X95269Y77598D01*
G01X95237Y77559D01*
G01X95206Y77519D01*
G01X95177Y77478D01*
G01X95150Y77436D01*
G01X95102Y77348D01*
G01X95625Y77348D01*
G37*
G36*
G01X84376Y79249D02*
G01X84328Y79250D01*
G01X84279Y79249D01*
G01X84230Y79246D01*
G01X84182Y79241D01*
G01X84134Y79234D01*
G01X84086Y79224D01*
G01X84039Y79213D01*
G01X83992Y79200D01*
G01X83946Y79185D01*
G01X83900Y79167D01*
G01X83856Y79148D01*
G01X83812Y79128D01*
G01X83769Y79105D01*
G01X83727Y79080D01*
G01X83686Y79053D01*
G01X83646Y79026D01*
G01X83608Y78996D01*
G01X83571Y78965D01*
G01X83535Y78932D01*
G01X83500Y78897D01*
G01X83467Y78861D01*
G01X83436Y78824D01*
G01X83406Y78786D01*
G01X83379Y78746D01*
G01X83352Y78705D01*
G01X83327Y78663D01*
G01X83304Y78620D01*
G01X83284Y78576D01*
G01X83265Y78532D01*
G01X83247Y78486D01*
G01X83232Y78440D01*
G01X83219Y78393D01*
G01X83208Y78346D01*
G01X83198Y78298D01*
G01X83191Y78250D01*
G01X83186Y78202D01*
G01X83183Y78153D01*
G01X83182Y78105D01*
G01X83183Y78056D01*
G01X83186Y78007D01*
G01X83191Y77959D01*
G01X83198Y77911D01*
G01X83208Y77863D01*
G01X83219Y77816D01*
G01X83232Y77769D01*
G01X83247Y77723D01*
G01X83265Y77677D01*
G01X83284Y77633D01*
G01X83304Y77589D01*
G01X83327Y77546D01*
G01X83352Y77504D01*
G01X83379Y77463D01*
G01X83406Y77423D01*
G01X83436Y77385D01*
G01X83467Y77348D01*
G01X83500Y77312D01*
G01X83535Y77277D01*
G01X83571Y77244D01*
G01X83608Y77213D01*
G01X83646Y77183D01*
G01X83686Y77156D01*
G01X83727Y77129D01*
G01X83769Y77104D01*
G01X83812Y77081D01*
G01X83856Y77061D01*
G01X83900Y77042D01*
G01X83946Y77024D01*
G01X83992Y77009D01*
G01X84039Y76996D01*
G01X84086Y76985D01*
G01X84134Y76975D01*
G01X84182Y76968D01*
G01X84230Y76963D01*
G01X84279Y76960D01*
G01X84328Y76959D01*
G01X84376Y76960D01*
G01X84425Y76963D01*
G01X84473Y76968D01*
G01X84521Y76975D01*
G01X84569Y76985D01*
G01X84616Y76996D01*
G01X84663Y77009D01*
G01X84709Y77024D01*
G01X84755Y77042D01*
G01X84799Y77061D01*
G01X84843Y77081D01*
G01X84886Y77104D01*
G01X84928Y77129D01*
G01X84969Y77156D01*
G01X85009Y77183D01*
G01X85047Y77213D01*
G01X85084Y77244D01*
G01X85120Y77277D01*
G01X85155Y77312D01*
G01X85188Y77348D01*
G01X85219Y77385D01*
G01X85249Y77423D01*
G01X85276Y77463D01*
G01X85303Y77504D01*
G01X85328Y77546D01*
G01X85351Y77589D01*
G01X85371Y77633D01*
G01X85390Y77677D01*
G01X85408Y77723D01*
G01X85423Y77769D01*
G01X85436Y77816D01*
G01X85447Y77863D01*
G01X85457Y77911D01*
G01X85464Y77959D01*
G01X85469Y78007D01*
G01X85472Y78056D01*
G01X85473Y78105D01*
G01X85472Y78153D01*
G01X85469Y78202D01*
G01X85464Y78250D01*
G01X85457Y78298D01*
G01X85447Y78346D01*
G01X85436Y78393D01*
G01X85423Y78440D01*
G01X85408Y78486D01*
G01X85390Y78532D01*
G01X85371Y78576D01*
G01X85351Y78620D01*
G01X85328Y78663D01*
G01X85303Y78705D01*
G01X85276Y78746D01*
G01X85249Y78786D01*
G01X85219Y78824D01*
G01X85188Y78861D01*
G01X85155Y78897D01*
G01X85120Y78932D01*
G01X85084Y78965D01*
G01X85047Y78996D01*
G01X85009Y79026D01*
G01X84969Y79053D01*
G01X84928Y79080D01*
G01X84886Y79105D01*
G01X84843Y79128D01*
G01X84799Y79148D01*
G01X84755Y79167D01*
G01X84709Y79185D01*
G01X84663Y79200D01*
G01X84616Y79213D01*
G01X84569Y79224D01*
G01X84521Y79234D01*
G01X84473Y79241D01*
G01X84425Y79246D01*
G01X84376Y79249D01*
G37*
G36*
G01X38283Y38462D02*
G01X38227Y38463D01*
G01X38170Y38462D01*
G01X38114Y38459D01*
G01X38058Y38454D01*
G01X38002Y38446D01*
G01X37947Y38437D01*
G01X37891Y38425D01*
G01X37836Y38412D01*
G01X37783Y38396D01*
G01X37729Y38378D01*
G01X37676Y38359D01*
G01X37624Y38337D01*
G01X37573Y38314D01*
G01X37522Y38288D01*
G01X37473Y38261D01*
G01X37425Y38232D01*
G01X37378Y38201D01*
G01X37332Y38169D01*
G01X37287Y38135D01*
G01X37244Y38098D01*
G01X37202Y38061D01*
G01X37161Y38022D01*
G01X37122Y37981D01*
G01X37085Y37939D01*
G01X37048Y37896D01*
G01X37014Y37851D01*
G01X36982Y37805D01*
G01X36951Y37758D01*
G01X36922Y37710D01*
G01X36895Y37661D01*
G01X36869Y37610D01*
G01X36846Y37559D01*
G01X36824Y37507D01*
G01X36805Y37454D01*
G01X36787Y37400D01*
G01X36771Y37347D01*
G01X36758Y37292D01*
G01X36746Y37236D01*
G01X36737Y37181D01*
G01X36729Y37125D01*
G01X36724Y37069D01*
G01X36721Y37013D01*
G01X36720Y36957D01*
G01X36721Y36900D01*
G01X36724Y36844D01*
G01X36729Y36788D01*
G01X36737Y36732D01*
G01X36746Y36677D01*
G01X36758Y36621D01*
G01X36771Y36566D01*
G01X36787Y36513D01*
G01X36805Y36459D01*
G01X36824Y36406D01*
G01X36846Y36354D01*
G01X36869Y36303D01*
G01X36895Y36252D01*
G01X36922Y36203D01*
G01X36951Y36155D01*
G01X36982Y36108D01*
G01X37014Y36062D01*
G01X37048Y36017D01*
G01X37085Y35974D01*
G01X37122Y35932D01*
G01X37161Y35891D01*
G01X37202Y35852D01*
G01X37244Y35815D01*
G01X37287Y35778D01*
G01X37332Y35744D01*
G01X37378Y35712D01*
G01X37425Y35681D01*
G01X37473Y35652D01*
G01X37522Y35625D01*
G01X37573Y35599D01*
G01X37624Y35576D01*
G01X37676Y35554D01*
G01X37729Y35535D01*
G01X37783Y35517D01*
G01X37836Y35501D01*
G01X37891Y35488D01*
G01X37947Y35476D01*
G01X38002Y35467D01*
G01X38058Y35459D01*
G01X38114Y35454D01*
G01X38170Y35451D01*
G01X38227Y35450D01*
G01X38283Y35451D01*
G01X38339Y35454D01*
G01X38395Y35459D01*
G01X38451Y35467D01*
G01X38506Y35476D01*
G01X38562Y35488D01*
G01X38617Y35501D01*
G01X38670Y35517D01*
G01X38724Y35535D01*
G01X38777Y35554D01*
G01X38829Y35576D01*
G01X38880Y35599D01*
G01X38931Y35625D01*
G01X38980Y35652D01*
G01X39028Y35681D01*
G01X39075Y35712D01*
G01X39121Y35744D01*
G01X39166Y35778D01*
G01X39209Y35815D01*
G01X39251Y35852D01*
G01X39292Y35891D01*
G01X39331Y35932D01*
G01X39368Y35974D01*
G01X39405Y36017D01*
G01X39439Y36062D01*
G01X39471Y36108D01*
G01X39502Y36155D01*
G01X39531Y36203D01*
G01X39558Y36252D01*
G01X39584Y36303D01*
G01X39607Y36354D01*
G01X39629Y36406D01*
G01X39648Y36459D01*
G01X39666Y36513D01*
G01X39682Y36566D01*
G01X39695Y36621D01*
G01X39707Y36677D01*
G01X39716Y36732D01*
G01X39724Y36788D01*
G01X39729Y36844D01*
G01X39732Y36900D01*
G01X39733Y36957D01*
G01X39732Y37013D01*
G01X39729Y37069D01*
G01X39724Y37125D01*
G01X39716Y37181D01*
G01X39707Y37236D01*
G01X39695Y37292D01*
G01X39682Y37347D01*
G01X39666Y37400D01*
G01X39648Y37454D01*
G01X39629Y37507D01*
G01X39607Y37559D01*
G01X39584Y37610D01*
G01X39558Y37661D01*
G01X39531Y37710D01*
G01X39502Y37758D01*
G01X39471Y37805D01*
G01X39439Y37851D01*
G01X39405Y37896D01*
G01X39368Y37939D01*
G01X39331Y37981D01*
G01X39292Y38022D01*
G01X39251Y38061D01*
G01X39209Y38098D01*
G01X39166Y38135D01*
G01X39121Y38169D01*
G01X39075Y38201D01*
G01X39028Y38232D01*
G01X38980Y38261D01*
G01X38931Y38288D01*
G01X38880Y38314D01*
G01X38829Y38337D01*
G01X38777Y38359D01*
G01X38724Y38378D01*
G01X38670Y38396D01*
G01X38617Y38412D01*
G01X38562Y38425D01*
G01X38506Y38437D01*
G01X38451Y38446D01*
G01X38395Y38454D01*
G01X38339Y38459D01*
G01X38283Y38462D01*
G37*
G36*
G01X20899Y36393D02*
G01X20206Y36393D01*
G01X20206Y35956D01*
G01X20207Y35933D01*
G01X20210Y35910D01*
G01X20216Y35886D01*
G01X20223Y35864D01*
G01X20233Y35842D01*
G01X20244Y35822D01*
G01X20258Y35802D01*
G01X20273Y35784D01*
G01X20290Y35767D01*
G01X20308Y35752D01*
G01X20328Y35738D01*
G01X20348Y35727D01*
G01X20370Y35717D01*
G01X20392Y35710D01*
G01X20416Y35704D01*
G01X20439Y35701D01*
G01X20463Y35700D01*
G01X20899Y35700D01*
G01X20899Y36393D01*
G37*
G36*
G01X22719Y36393D02*
G01X22026Y36393D01*
G01X22026Y35700D01*
G01X22463Y35700D01*
G01X22486Y35701D01*
G01X22509Y35704D01*
G01X22533Y35710D01*
G01X22555Y35717D01*
G01X22577Y35727D01*
G01X22597Y35738D01*
G01X22617Y35752D01*
G01X22635Y35767D01*
G01X22652Y35784D01*
G01X22667Y35802D01*
G01X22681Y35822D01*
G01X22692Y35842D01*
G01X22702Y35864D01*
G01X22709Y35886D01*
G01X22715Y35910D01*
G01X22718Y35933D01*
G01X22719Y35956D01*
G01X22719Y36393D01*
G37*
G36*
G01X20899Y38933D02*
G01X20339Y38933D01*
G01X20364Y38886D01*
G01X20391Y38840D01*
G01X20420Y38796D01*
G01X20450Y38752D01*
G01X20482Y38710D01*
G01X20516Y38669D01*
G01X20552Y38630D01*
G01X20589Y38593D01*
G01X20628Y38557D01*
G01X20668Y38523D01*
G01X20710Y38490D01*
G01X20753Y38459D01*
G01X20798Y38430D01*
G01X20843Y38403D01*
G01X20856Y38395D01*
G01X20868Y38384D01*
G01X20877Y38372D01*
G01X20885Y38359D01*
G01X20890Y38345D01*
G01X20894Y38330D01*
G01X20895Y38314D01*
G01X20894Y38300D01*
G01X20891Y38286D01*
G01X20886Y38272D01*
G01X20879Y38260D01*
G01X20870Y38248D01*
G01X20860Y38238D01*
G01X20848Y38229D01*
G01X20836Y38222D01*
G01X20822Y38217D01*
G01X20808Y38214D01*
G01X20793Y38213D01*
G01X20463Y38213D01*
G01X20439Y38212D01*
G01X20416Y38209D01*
G01X20392Y38203D01*
G01X20370Y38196D01*
G01X20348Y38186D01*
G01X20328Y38175D01*
G01X20308Y38161D01*
G01X20290Y38146D01*
G01X20273Y38129D01*
G01X20258Y38111D01*
G01X20244Y38091D01*
G01X20233Y38071D01*
G01X20223Y38049D01*
G01X20216Y38027D01*
G01X20210Y38003D01*
G01X20207Y37980D01*
G01X20206Y37956D01*
G01X20206Y37520D01*
G01X20899Y37520D01*
G01X20899Y38933D01*
G37*
G36*
G01X22586Y38933D02*
G01X22026Y38933D01*
G01X22026Y37520D01*
G01X22719Y37520D01*
G01X22719Y37956D01*
G01X22718Y37980D01*
G01X22715Y38003D01*
G01X22709Y38027D01*
G01X22702Y38049D01*
G01X22692Y38071D01*
G01X22681Y38091D01*
G01X22667Y38111D01*
G01X22652Y38129D01*
G01X22635Y38146D01*
G01X22617Y38161D01*
G01X22597Y38175D01*
G01X22577Y38186D01*
G01X22555Y38196D01*
G01X22533Y38203D01*
G01X22509Y38209D01*
G01X22486Y38212D01*
G01X22463Y38213D01*
G01X22132Y38213D01*
G01X22117Y38214D01*
G01X22103Y38217D01*
G01X22089Y38222D01*
G01X22077Y38229D01*
G01X22065Y38238D01*
G01X22055Y38248D01*
G01X22046Y38260D01*
G01X22039Y38272D01*
G01X22034Y38286D01*
G01X22031Y38300D01*
G01X22030Y38315D01*
G01X22031Y38330D01*
G01X22035Y38345D01*
G01X22040Y38359D01*
G01X22048Y38372D01*
G01X22057Y38384D01*
G01X22069Y38395D01*
G01X22082Y38403D01*
G01X22127Y38430D01*
G01X22172Y38459D01*
G01X22215Y38490D01*
G01X22257Y38523D01*
G01X22297Y38557D01*
G01X22336Y38593D01*
G01X22373Y38630D01*
G01X22409Y38669D01*
G01X22443Y38710D01*
G01X22475Y38752D01*
G01X22505Y38796D01*
G01X22534Y38840D01*
G01X22561Y38886D01*
G01X22586Y38933D01*
G37*
G36*
G01X97175Y76321D02*
G01X96652Y76321D01*
G01X96652Y75798D01*
G01X96740Y75846D01*
G01X96782Y75873D01*
G01X96823Y75902D01*
G01X96863Y75933D01*
G01X96902Y75965D01*
G01X96939Y75999D01*
G01X96974Y76034D01*
G01X97008Y76071D01*
G01X97040Y76110D01*
G01X97071Y76150D01*
G01X97100Y76191D01*
G01X97127Y76233D01*
G01X97175Y76321D01*
G37*
G36*
G01X95625Y76321D02*
G01X95102Y76321D01*
G01X95150Y76233D01*
G01X95177Y76191D01*
G01X95206Y76150D01*
G01X95237Y76110D01*
G01X95269Y76071D01*
G01X95303Y76034D01*
G01X95338Y75999D01*
G01X95375Y75965D01*
G01X95414Y75933D01*
G01X95454Y75902D01*
G01X95495Y75873D01*
G01X95537Y75846D01*
G01X95625Y75798D01*
G01X95625Y76321D01*
G37*
G36*
G01X45303Y38953D02*
G01X44758Y38953D01*
G01X44782Y38907D01*
G01X44809Y38862D01*
G01X44837Y38818D01*
G01X44867Y38775D01*
G01X44899Y38733D01*
G01X44933Y38693D01*
G01X44968Y38655D01*
G01X45005Y38618D01*
G01X45043Y38583D01*
G01X45083Y38549D01*
G01X45125Y38517D01*
G01X45168Y38487D01*
G01X45212Y38459D01*
G01X45257Y38432D01*
G01X45303Y38408D01*
G01X45303Y38953D01*
G37*
G36*
G01X46935Y38953D02*
G01X46390Y38953D01*
G01X46390Y38408D01*
G01X46436Y38432D01*
G01X46482Y38459D01*
G01X46525Y38487D01*
G01X46568Y38517D01*
G01X46610Y38549D01*
G01X46650Y38583D01*
G01X46688Y38618D01*
G01X46725Y38655D01*
G01X46760Y38693D01*
G01X46794Y38733D01*
G01X46826Y38775D01*
G01X46856Y38818D01*
G01X46884Y38862D01*
G01X46911Y38907D01*
G01X46935Y38953D01*
G37*
G36*
G01X96901Y87501D02*
G01X17907Y87501D01*
G01X17873Y87500D01*
G01X17840Y87497D01*
G01X17807Y87491D01*
G01X17775Y87484D01*
G01X17743Y87474D01*
G01X17712Y87462D01*
G01X17682Y87449D01*
G01X17653Y87433D01*
G01X17625Y87416D01*
G01X17598Y87396D01*
G01X17573Y87376D01*
G01X17548Y87353D01*
G01X16659Y86464D01*
G01X16637Y86439D01*
G01X16616Y86414D01*
G01X16596Y86387D01*
G01X16579Y86359D01*
G01X16563Y86330D01*
G01X16550Y86300D01*
G01X16538Y86269D01*
G01X16528Y86237D01*
G01X16521Y86205D01*
G01X16515Y86172D01*
G01X16512Y86139D01*
G01X16511Y86106D01*
G01X16511Y46228D01*
G01X16512Y46194D01*
G01X16515Y46161D01*
G01X16521Y46128D01*
G01X16528Y46096D01*
G01X16538Y46064D01*
G01X16550Y46033D01*
G01X16563Y46003D01*
G01X16579Y45974D01*
G01X16596Y45946D01*
G01X16616Y45919D01*
G01X16637Y45894D01*
G01X16659Y45869D01*
G01X18310Y44218D01*
G01X18335Y44196D01*
G01X18360Y44175D01*
G01X18387Y44155D01*
G01X18415Y44138D01*
G01X18444Y44122D01*
G01X18474Y44109D01*
G01X18505Y44097D01*
G01X18537Y44087D01*
G01X18569Y44080D01*
G01X18602Y44074D01*
G01X18635Y44071D01*
G01X18669Y44070D01*
G01X44521Y44070D01*
G01X44536Y44069D01*
G01X44550Y44066D01*
G01X44563Y44061D01*
G01X44576Y44054D01*
G01X44588Y44045D01*
G01X44598Y44035D01*
G01X44614Y44011D01*
G01X44636Y43963D01*
G01X44662Y43916D01*
G01X44688Y43870D01*
G01X44717Y43825D01*
G01X44747Y43781D01*
G01X44779Y43739D01*
G01X44813Y43698D01*
G01X44848Y43658D01*
G01X44885Y43620D01*
G01X44923Y43583D01*
G01X44963Y43547D01*
G01X45004Y43514D01*
G01X45046Y43481D01*
G01X45090Y43451D01*
G01X45134Y43422D01*
G01X45180Y43395D01*
G01X45193Y43386D01*
G01X45204Y43376D01*
G01X45214Y43364D01*
G01X45222Y43351D01*
G01X45227Y43336D01*
G01X45230Y43322D01*
G01X45232Y43307D01*
G01X45230Y43291D01*
G01X45227Y43277D01*
G01X45222Y43262D01*
G01X45214Y43249D01*
G01X45204Y43237D01*
G01X45193Y43227D01*
G01X45180Y43218D01*
G01X45134Y43191D01*
G01X45090Y43162D01*
G01X45046Y43132D01*
G01X45004Y43100D01*
G01X44963Y43066D01*
G01X44923Y43031D01*
G01X44885Y42994D01*
G01X44848Y42955D01*
G01X44813Y42915D01*
G01X44780Y42874D01*
G01X44748Y42832D01*
G01X44717Y42788D01*
G01X44689Y42744D01*
G01X44662Y42697D01*
G01X44637Y42651D01*
G01X44614Y42603D01*
G01X44593Y42554D01*
G01X44573Y42505D01*
G01X44556Y42455D01*
G01X44540Y42404D01*
G01X44527Y42352D01*
G01X44516Y42300D01*
G01X44506Y42248D01*
G01X44499Y42196D01*
G01X44494Y42143D01*
G01X44491Y42090D01*
G01X44490Y42037D01*
G01X44491Y41983D01*
G01X44494Y41930D01*
G01X44499Y41877D01*
G01X44506Y41825D01*
G01X44516Y41772D01*
G01X44527Y41720D01*
G01X44541Y41669D01*
G01X44556Y41618D01*
G01X44573Y41568D01*
G01X44593Y41518D01*
G01X44614Y41469D01*
G01X44637Y41421D01*
G01X44662Y41374D01*
G01X44689Y41328D01*
G01X44718Y41284D01*
G01X44749Y41240D01*
G01X44781Y41197D01*
G01X44814Y41156D01*
G01X44886Y41078D01*
G01X44925Y41041D01*
G01X44965Y41006D01*
G01X45006Y40972D01*
G01X45048Y40940D01*
G01X45092Y40909D01*
G01X45137Y40881D01*
G01X45183Y40853D01*
G01X45229Y40828D01*
G01X45277Y40805D01*
G01X45326Y40784D01*
G01X45340Y40777D01*
G01X45353Y40768D01*
G01X45364Y40756D01*
G01X45373Y40744D01*
G01X45389Y40747D01*
G01X45405Y40749D01*
G01X45420Y40747D01*
G01X45436Y40744D01*
G01X45492Y40727D01*
G01X45550Y40713D01*
G01X45609Y40701D01*
G01X45668Y40692D01*
G01X45727Y40685D01*
G01X45787Y40681D01*
G01X45847Y40680D01*
G01X45906Y40681D01*
G01X45966Y40685D01*
G01X46025Y40692D01*
G01X46084Y40701D01*
G01X46143Y40713D01*
G01X46201Y40727D01*
G01X46257Y40744D01*
G01X46273Y40747D01*
G01X46288Y40749D01*
G01X46304Y40747D01*
G01X46320Y40744D01*
G01X46329Y40756D01*
G01X46340Y40768D01*
G01X46353Y40777D01*
G01X46367Y40784D01*
G01X46416Y40805D01*
G01X46464Y40828D01*
G01X46511Y40854D01*
G01X46557Y40881D01*
G01X46601Y40910D01*
G01X46645Y40940D01*
G01X46688Y40972D01*
G01X46729Y41006D01*
G01X46769Y41042D01*
G01X46807Y41079D01*
G01X46844Y41117D01*
G01X46879Y41157D01*
G01X46913Y41198D01*
G01X46945Y41241D01*
G01X46976Y41285D01*
G01X47004Y41330D01*
G01X47031Y41376D01*
G01X47056Y41423D01*
G01X47079Y41471D01*
G01X47095Y41495D01*
G01X47105Y41505D01*
G01X47117Y41514D01*
G01X47130Y41521D01*
G01X47143Y41526D01*
G01X47157Y41529D01*
G01X47172Y41530D01*
G01X52707Y41530D01*
G01X52722Y41529D01*
G01X52738Y41525D01*
G01X52753Y41519D01*
G01X52766Y41511D01*
G01X52779Y41500D01*
G01X54251Y40027D01*
G01X54276Y40005D01*
G01X54301Y39984D01*
G01X54328Y39964D01*
G01X54356Y39947D01*
G01X54385Y39931D01*
G01X54415Y39918D01*
G01X54446Y39906D01*
G01X54478Y39896D01*
G01X54510Y39889D01*
G01X54543Y39883D01*
G01X54576Y39880D01*
G01X54610Y39879D01*
G01X71247Y39879D01*
G01X71280Y39880D01*
G01X71313Y39883D01*
G01X71346Y39889D01*
G01X71378Y39896D01*
G01X71410Y39906D01*
G01X71441Y39918D01*
G01X71471Y39931D01*
G01X71500Y39947D01*
G01X71528Y39964D01*
G01X71555Y39984D01*
G01X71580Y40005D01*
G01X71605Y40027D01*
G01X73002Y41424D01*
G01X73025Y41449D01*
G01X73045Y41474D01*
G01X73065Y41501D01*
G01X73082Y41529D01*
G01X73098Y41558D01*
G01X73111Y41588D01*
G01X73123Y41619D01*
G01X73133Y41651D01*
G01X73140Y41683D01*
G01X73146Y41716D01*
G01X73149Y41749D01*
G01X73150Y41783D01*
G01X73150Y46863D01*
G01X73149Y46896D01*
G01X73146Y46929D01*
G01X73140Y46962D01*
G01X73133Y46994D01*
G01X73123Y47026D01*
G01X73111Y47057D01*
G01X73098Y47087D01*
G01X73082Y47116D01*
G01X73065Y47144D01*
G01X73045Y47171D01*
G01X73025Y47196D01*
G01X73002Y47221D01*
G01X72240Y47983D01*
G01X72215Y48006D01*
G01X72190Y48026D01*
G01X72163Y48046D01*
G01X72135Y48063D01*
G01X72106Y48079D01*
G01X72076Y48092D01*
G01X72045Y48104D01*
G01X72013Y48114D01*
G01X71981Y48121D01*
G01X71948Y48127D01*
G01X71915Y48130D01*
G01X71882Y48131D01*
G01X70413Y48131D01*
G01X70398Y48132D01*
G01X70384Y48135D01*
G01X70371Y48140D01*
G01X70358Y48147D01*
G01X70346Y48156D01*
G01X70336Y48166D01*
G01X70320Y48190D01*
G01X70298Y48238D01*
G01X70273Y48284D01*
G01X70246Y48330D01*
G01X70218Y48374D01*
G01X70188Y48418D01*
G01X70156Y48460D01*
G01X70123Y48501D01*
G01X70088Y48540D01*
G01X70052Y48579D01*
G01X70014Y48616D01*
G01X69974Y48651D01*
G01X69934Y48685D01*
G01X69892Y48717D01*
G01X69849Y48747D01*
G01X69805Y48776D01*
G01X69760Y48803D01*
G01X69713Y48828D01*
G01X69666Y48851D01*
G01X69618Y48873D01*
G01X69569Y48893D01*
G01X69519Y48911D01*
G01X69505Y48917D01*
G01X69491Y48925D01*
G01X69479Y48936D01*
G01X69469Y48947D01*
G01X69461Y48961D01*
G01X69455Y48976D01*
G01X69451Y48991D01*
G01X69450Y49007D01*
G01X69451Y49022D01*
G01X69454Y49037D01*
G01X69460Y49050D01*
G01X69467Y49064D01*
G01X69477Y49076D01*
G01X69488Y49086D01*
G01X69500Y49095D01*
G01X69514Y49101D01*
G01X69558Y49120D01*
G01X69602Y49141D01*
G01X69645Y49164D01*
G01X69687Y49189D01*
G01X69728Y49215D01*
G01X69768Y49243D01*
G01X69806Y49273D01*
G01X69844Y49304D01*
G01X69879Y49337D01*
G01X69914Y49372D01*
G01X69947Y49407D01*
G01X69979Y49444D01*
G01X70008Y49483D01*
G01X70036Y49522D01*
G01X70063Y49564D01*
G01X70087Y49605D01*
G01X70110Y49648D01*
G01X70131Y49692D01*
G01X70150Y49737D01*
G01X70168Y49782D01*
G01X70183Y49829D01*
G01X70196Y49875D01*
G01X70207Y49923D01*
G01X70217Y49971D01*
G01X70224Y50019D01*
G01X70229Y50067D01*
G01X70232Y50116D01*
G01X70233Y50165D01*
G01X70232Y50213D01*
G01X70229Y50262D01*
G01X70224Y50310D01*
G01X70217Y50358D01*
G01X70207Y50406D01*
G01X70196Y50453D01*
G01X70183Y50500D01*
G01X70168Y50546D01*
G01X70150Y50592D01*
G01X70131Y50636D01*
G01X70111Y50680D01*
G01X70088Y50723D01*
G01X70063Y50765D01*
G01X70036Y50806D01*
G01X70009Y50846D01*
G01X69979Y50884D01*
G01X69948Y50921D01*
G01X69915Y50957D01*
G01X69880Y50992D01*
G01X69844Y51025D01*
G01X69807Y51056D01*
G01X69769Y51086D01*
G01X69729Y51113D01*
G01X69688Y51140D01*
G01X69646Y51165D01*
G01X69603Y51188D01*
G01X69559Y51208D01*
G01X69515Y51227D01*
G01X69469Y51245D01*
G01X69423Y51260D01*
G01X69376Y51273D01*
G01X69329Y51284D01*
G01X69281Y51294D01*
G01X69233Y51301D01*
G01X69185Y51306D01*
G01X69136Y51309D01*
G01X69088Y51310D01*
G01X69039Y51309D01*
G01X68990Y51306D01*
G01X68942Y51301D01*
G01X68894Y51294D01*
G01X68846Y51284D01*
G01X68799Y51273D01*
G01X68752Y51260D01*
G01X68706Y51245D01*
G01X68660Y51227D01*
G01X68616Y51208D01*
G01X68572Y51188D01*
G01X68529Y51165D01*
G01X68487Y51140D01*
G01X68446Y51113D01*
G01X68406Y51086D01*
G01X68368Y51056D01*
G01X68331Y51025D01*
G01X68295Y50992D01*
G01X68260Y50957D01*
G01X68227Y50921D01*
G01X68196Y50884D01*
G01X68166Y50846D01*
G01X68139Y50806D01*
G01X68112Y50765D01*
G01X68087Y50723D01*
G01X68064Y50680D01*
G01X68044Y50636D01*
G01X68025Y50592D01*
G01X68007Y50546D01*
G01X67992Y50500D01*
G01X67979Y50453D01*
G01X67968Y50406D01*
G01X67958Y50358D01*
G01X67951Y50310D01*
G01X67946Y50262D01*
G01X67943Y50213D01*
G01X67942Y50165D01*
G01X67943Y50116D01*
G01X67946Y50067D01*
G01X67951Y50019D01*
G01X67958Y49971D01*
G01X67968Y49923D01*
G01X67979Y49875D01*
G01X67992Y49829D01*
G01X68007Y49782D01*
G01X68025Y49737D01*
G01X68044Y49692D01*
G01X68065Y49648D01*
G01X68088Y49605D01*
G01X68112Y49564D01*
G01X68139Y49522D01*
G01X68167Y49483D01*
G01X68196Y49444D01*
G01X68228Y49407D01*
G01X68261Y49372D01*
G01X68296Y49337D01*
G01X68331Y49304D01*
G01X68369Y49273D01*
G01X68407Y49243D01*
G01X68447Y49215D01*
G01X68488Y49189D01*
G01X68530Y49164D01*
G01X68573Y49141D01*
G01X68617Y49120D01*
G01X68661Y49101D01*
G01X68675Y49095D01*
G01X68687Y49086D01*
G01X68698Y49076D01*
G01X68708Y49064D01*
G01X68715Y49050D01*
G01X68721Y49037D01*
G01X68724Y49022D01*
G01X68725Y49007D01*
G01X68724Y48991D01*
G01X68720Y48976D01*
G01X68714Y48961D01*
G01X68706Y48947D01*
G01X68696Y48936D01*
G01X68684Y48925D01*
G01X68670Y48917D01*
G01X68656Y48911D01*
G01X68606Y48893D01*
G01X68557Y48873D01*
G01X68509Y48851D01*
G01X68462Y48828D01*
G01X68415Y48803D01*
G01X68370Y48776D01*
G01X68326Y48747D01*
G01X68282Y48716D01*
G01X68240Y48684D01*
G01X68200Y48650D01*
G01X68160Y48615D01*
G01X68122Y48578D01*
G01X68086Y48539D01*
G01X68051Y48500D01*
G01X68018Y48459D01*
G01X67986Y48416D01*
G01X67956Y48373D01*
G01X67928Y48329D01*
G01X67901Y48283D01*
G01X67876Y48236D01*
G01X67854Y48188D01*
G01X67833Y48140D01*
G01X67813Y48090D01*
G01X67796Y48041D01*
G01X67781Y47990D01*
G01X67768Y47939D01*
G01X67757Y47887D01*
G01X67747Y47835D01*
G01X67740Y47782D01*
G01X67735Y47730D01*
G01X67732Y47677D01*
G01X67731Y47625D01*
G01X67732Y47571D01*
G01X67735Y47518D01*
G01X67740Y47465D01*
G01X67747Y47413D01*
G01X67757Y47361D01*
G01X67768Y47309D01*
G01X67781Y47257D01*
G01X67797Y47206D01*
G01X67814Y47156D01*
G01X67834Y47107D01*
G01X67855Y47058D01*
G01X67878Y47010D01*
G01X67903Y46964D01*
G01X67930Y46917D01*
G01X67958Y46873D01*
G01X67989Y46829D01*
G01X68021Y46787D01*
G01X68054Y46746D01*
G01X68089Y46706D01*
G01X68126Y46667D01*
G01X68164Y46630D01*
G01X68204Y46595D01*
G01X68245Y46561D01*
G01X68287Y46529D01*
G01X68331Y46499D01*
G01X68375Y46470D01*
G01X68421Y46443D01*
G01X68434Y46434D01*
G01X68445Y46424D01*
G01X68455Y46412D01*
G01X68463Y46399D01*
G01X68468Y46384D01*
G01X68471Y46370D01*
G01X68473Y46355D01*
G01X68471Y46339D01*
G01X68468Y46325D01*
G01X68463Y46310D01*
G01X68455Y46297D01*
G01X68445Y46285D01*
G01X68434Y46275D01*
G01X68421Y46266D01*
G01X68375Y46239D01*
G01X68331Y46210D01*
G01X68287Y46180D01*
G01X68245Y46147D01*
G01X68204Y46114D01*
G01X68164Y46078D01*
G01X68126Y46041D01*
G01X68089Y46003D01*
G01X68054Y45963D01*
G01X68020Y45922D01*
G01X67988Y45880D01*
G01X67958Y45836D01*
G01X67929Y45791D01*
G01X67903Y45745D01*
G01X67877Y45698D01*
G01X67855Y45650D01*
G01X67839Y45626D01*
G01X67829Y45616D01*
G01X67817Y45607D01*
G01X67804Y45600D01*
G01X67791Y45595D01*
G01X67777Y45592D01*
G01X67762Y45591D01*
G01X61211Y45591D01*
G01X61196Y45593D01*
G01X61180Y45596D01*
G01X61165Y45602D01*
G01X61152Y45610D01*
G01X61139Y45621D01*
G01X59413Y47348D01*
G01X59388Y47371D01*
G01X59363Y47391D01*
G01X59336Y47411D01*
G01X59308Y47428D01*
G01X59279Y47444D01*
G01X59249Y47457D01*
G01X59218Y47469D01*
G01X59186Y47479D01*
G01X59154Y47486D01*
G01X59121Y47492D01*
G01X59088Y47495D01*
G01X59055Y47496D01*
G01X47223Y47496D01*
G01X47207Y47498D01*
G01X47192Y47501D01*
G01X47177Y47507D01*
G01X47164Y47515D01*
G01X47152Y47525D01*
G01X47142Y47537D01*
G01X47133Y47550D01*
G01X47127Y47564D01*
G01X47108Y47615D01*
G01X47087Y47665D01*
G01X47064Y47714D01*
G01X47039Y47763D01*
G01X47012Y47810D01*
G01X46984Y47856D01*
G01X46953Y47901D01*
G01X46921Y47945D01*
G01X46887Y47987D01*
G01X46851Y48028D01*
G01X46814Y48067D01*
G01X46775Y48105D01*
G01X46735Y48142D01*
G01X46693Y48176D01*
G01X46650Y48209D01*
G01X46606Y48241D01*
G01X46560Y48270D01*
G01X46514Y48298D01*
G01X46466Y48324D01*
G01X46417Y48347D01*
G01X46367Y48369D01*
G01X46353Y48376D01*
G01X46340Y48385D01*
G01X46329Y48397D01*
G01X46320Y48409D01*
G01X46304Y48406D01*
G01X46288Y48404D01*
G01X46273Y48406D01*
G01X46257Y48409D01*
G01X46201Y48426D01*
G01X46143Y48440D01*
G01X46084Y48452D01*
G01X46025Y48461D01*
G01X45966Y48468D01*
G01X45906Y48472D01*
G01X45847Y48473D01*
G01X45787Y48472D01*
G01X45727Y48468D01*
G01X45668Y48461D01*
G01X45609Y48452D01*
G01X45550Y48440D01*
G01X45492Y48426D01*
G01X45436Y48409D01*
G01X45420Y48406D01*
G01X45405Y48404D01*
G01X45389Y48406D01*
G01X45373Y48409D01*
G01X45364Y48397D01*
G01X45353Y48385D01*
G01X45340Y48376D01*
G01X45326Y48369D01*
G01X45277Y48348D01*
G01X45229Y48325D01*
G01X45183Y48300D01*
G01X45137Y48272D01*
G01X45092Y48244D01*
G01X45048Y48213D01*
G01X45006Y48181D01*
G01X44965Y48147D01*
G01X44925Y48112D01*
G01X44886Y48075D01*
G01X44814Y47997D01*
G01X44781Y47956D01*
G01X44749Y47913D01*
G01X44718Y47869D01*
G01X44689Y47825D01*
G01X44662Y47779D01*
G01X44637Y47732D01*
G01X44614Y47684D01*
G01X44593Y47635D01*
G01X44573Y47585D01*
G01X44556Y47535D01*
G01X44541Y47484D01*
G01X44527Y47433D01*
G01X44516Y47381D01*
G01X44506Y47328D01*
G01X44499Y47276D01*
G01X44494Y47223D01*
G01X44491Y47170D01*
G01X44490Y47117D01*
G01X44491Y47063D01*
G01X44494Y47010D01*
G01X44499Y46957D01*
G01X44506Y46905D01*
G01X44516Y46853D01*
G01X44527Y46801D01*
G01X44540Y46749D01*
G01X44556Y46698D01*
G01X44573Y46648D01*
G01X44593Y46599D01*
G01X44614Y46550D01*
G01X44637Y46502D01*
G01X44662Y46456D01*
G01X44689Y46409D01*
G01X44717Y46365D01*
G01X44748Y46321D01*
G01X44780Y46279D01*
G01X44813Y46238D01*
G01X44848Y46198D01*
G01X44885Y46159D01*
G01X44923Y46122D01*
G01X44963Y46087D01*
G01X45004Y46053D01*
G01X45046Y46021D01*
G01X45090Y45991D01*
G01X45134Y45962D01*
G01X45180Y45935D01*
G01X45193Y45926D01*
G01X45204Y45916D01*
G01X45214Y45904D01*
G01X45222Y45891D01*
G01X45227Y45876D01*
G01X45230Y45862D01*
G01X45232Y45847D01*
G01X45230Y45831D01*
G01X45227Y45817D01*
G01X45222Y45802D01*
G01X45214Y45789D01*
G01X45204Y45777D01*
G01X45193Y45767D01*
G01X45180Y45758D01*
G01X45134Y45731D01*
G01X45090Y45702D01*
G01X45046Y45672D01*
G01X45004Y45639D01*
G01X44963Y45606D01*
G01X44923Y45570D01*
G01X44885Y45533D01*
G01X44848Y45495D01*
G01X44813Y45455D01*
G01X44779Y45414D01*
G01X44747Y45372D01*
G01X44717Y45328D01*
G01X44688Y45283D01*
G01X44662Y45237D01*
G01X44636Y45190D01*
G01X44614Y45142D01*
G01X44598Y45118D01*
G01X44588Y45108D01*
G01X44576Y45099D01*
G01X44563Y45092D01*
G01X44550Y45087D01*
G01X44536Y45084D01*
G01X44521Y45083D01*
G01X18920Y45083D01*
G01X18905Y45085D01*
G01X18889Y45088D01*
G01X18874Y45094D01*
G01X18861Y45102D01*
G01X18848Y45113D01*
G01X17554Y46407D01*
G01X17543Y46420D01*
G01X17535Y46433D01*
G01X17529Y46448D01*
G01X17526Y46464D01*
G01X17524Y46479D01*
G01X17524Y85854D01*
G01X17526Y85869D01*
G01X17529Y85885D01*
G01X17535Y85900D01*
G01X17543Y85913D01*
G01X17554Y85926D01*
G01X18086Y86458D01*
G01X18099Y86469D01*
G01X18112Y86477D01*
G01X18127Y86483D01*
G01X18143Y86487D01*
G01X18158Y86488D01*
G01X96649Y86488D01*
G01X96664Y86487D01*
G01X96680Y86483D01*
G01X96695Y86477D01*
G01X96708Y86469D01*
G01X96721Y86458D01*
G01X99412Y83767D01*
G01X99423Y83754D01*
G01X99431Y83741D01*
G01X99437Y83726D01*
G01X99441Y83710D01*
G01X99442Y83695D01*
G01X99442Y80010D01*
G01X99443Y79976D01*
G01X99446Y79943D01*
G01X99452Y79910D01*
G01X99459Y79878D01*
G01X99469Y79846D01*
G01X99481Y79815D01*
G01X99494Y79785D01*
G01X99510Y79756D01*
G01X99527Y79728D01*
G01X99547Y79701D01*
G01X99568Y79676D01*
G01X99590Y79651D01*
G01X101825Y77417D01*
G01X101836Y77404D01*
G01X101844Y77391D01*
G01X101850Y77376D01*
G01X101854Y77360D01*
G01X101855Y77345D01*
G01X101855Y60322D01*
G01X101854Y60307D01*
G01X101850Y60291D01*
G01X101844Y60276D01*
G01X101836Y60263D01*
G01X101825Y60250D01*
G01X95145Y53571D01*
G01X95123Y53546D01*
G01X95102Y53521D01*
G01X95082Y53494D01*
G01X95065Y53466D01*
G01X95049Y53437D01*
G01X95036Y53407D01*
G01X95024Y53376D01*
G01X95014Y53344D01*
G01X95007Y53312D01*
G01X95001Y53279D01*
G01X94998Y53246D01*
G01X94997Y53213D01*
G01X94997Y46860D01*
G01X94996Y46845D01*
G01X94992Y46829D01*
G01X94986Y46814D01*
G01X94978Y46801D01*
G01X94967Y46788D01*
G01X91260Y43081D01*
G01X91247Y43070D01*
G01X91234Y43062D01*
G01X91219Y43056D01*
G01X91203Y43053D01*
G01X91188Y43051D01*
G01X85653Y43051D01*
G01X85638Y43052D01*
G01X85624Y43055D01*
G01X85611Y43060D01*
G01X85598Y43067D01*
G01X85586Y43076D01*
G01X85576Y43086D01*
G01X85560Y43110D01*
G01X85538Y43158D01*
G01X85513Y43204D01*
G01X85486Y43250D01*
G01X85458Y43294D01*
G01X85428Y43338D01*
G01X85396Y43380D01*
G01X85363Y43421D01*
G01X85328Y43460D01*
G01X85292Y43499D01*
G01X85254Y43536D01*
G01X85214Y43571D01*
G01X85174Y43605D01*
G01X85132Y43637D01*
G01X85089Y43667D01*
G01X85045Y43696D01*
G01X85000Y43723D01*
G01X84953Y43748D01*
G01X84906Y43771D01*
G01X84858Y43793D01*
G01X84809Y43813D01*
G01X84759Y43831D01*
G01X84745Y43837D01*
G01X84731Y43845D01*
G01X84719Y43856D01*
G01X84709Y43867D01*
G01X84701Y43881D01*
G01X84695Y43896D01*
G01X84691Y43911D01*
G01X84690Y43927D01*
G01X84691Y43942D01*
G01X84694Y43957D01*
G01X84700Y43970D01*
G01X84707Y43984D01*
G01X84717Y43996D01*
G01X84728Y44006D01*
G01X84740Y44015D01*
G01X84754Y44021D01*
G01X84798Y44040D01*
G01X84842Y44061D01*
G01X84885Y44084D01*
G01X84927Y44109D01*
G01X84968Y44135D01*
G01X85008Y44163D01*
G01X85046Y44193D01*
G01X85084Y44224D01*
G01X85119Y44257D01*
G01X85154Y44292D01*
G01X85187Y44327D01*
G01X85219Y44364D01*
G01X85248Y44403D01*
G01X85276Y44442D01*
G01X85303Y44484D01*
G01X85327Y44525D01*
G01X85350Y44568D01*
G01X85371Y44612D01*
G01X85390Y44657D01*
G01X85408Y44702D01*
G01X85423Y44749D01*
G01X85436Y44795D01*
G01X85447Y44843D01*
G01X85457Y44891D01*
G01X85464Y44939D01*
G01X85469Y44987D01*
G01X85472Y45036D01*
G01X85473Y45085D01*
G01X85472Y45133D01*
G01X85469Y45182D01*
G01X85464Y45230D01*
G01X85457Y45278D01*
G01X85447Y45326D01*
G01X85436Y45373D01*
G01X85423Y45420D01*
G01X85408Y45466D01*
G01X85390Y45512D01*
G01X85371Y45556D01*
G01X85351Y45600D01*
G01X85328Y45643D01*
G01X85303Y45685D01*
G01X85276Y45726D01*
G01X85249Y45766D01*
G01X85219Y45804D01*
G01X85188Y45841D01*
G01X85155Y45877D01*
G01X85120Y45912D01*
G01X85084Y45945D01*
G01X85047Y45976D01*
G01X85009Y46006D01*
G01X84969Y46033D01*
G01X84928Y46060D01*
G01X84886Y46085D01*
G01X84843Y46108D01*
G01X84799Y46128D01*
G01X84755Y46147D01*
G01X84709Y46165D01*
G01X84663Y46180D01*
G01X84616Y46193D01*
G01X84569Y46204D01*
G01X84521Y46214D01*
G01X84473Y46221D01*
G01X84425Y46226D01*
G01X84376Y46229D01*
G01X84328Y46230D01*
G01X84279Y46229D01*
G01X84230Y46226D01*
G01X84182Y46221D01*
G01X84134Y46214D01*
G01X84086Y46204D01*
G01X84039Y46193D01*
G01X83992Y46180D01*
G01X83946Y46165D01*
G01X83900Y46147D01*
G01X83856Y46128D01*
G01X83812Y46108D01*
G01X83769Y46085D01*
G01X83727Y46060D01*
G01X83686Y46033D01*
G01X83646Y46006D01*
G01X83608Y45976D01*
G01X83571Y45945D01*
G01X83535Y45912D01*
G01X83500Y45877D01*
G01X83467Y45841D01*
G01X83436Y45804D01*
G01X83406Y45766D01*
G01X83379Y45726D01*
G01X83352Y45685D01*
G01X83327Y45643D01*
G01X83304Y45600D01*
G01X83284Y45556D01*
G01X83265Y45512D01*
G01X83247Y45466D01*
G01X83232Y45420D01*
G01X83219Y45373D01*
G01X83208Y45326D01*
G01X83198Y45278D01*
G01X83191Y45230D01*
G01X83186Y45182D01*
G01X83183Y45133D01*
G01X83182Y45085D01*
G01X83183Y45036D01*
G01X83186Y44987D01*
G01X83191Y44939D01*
G01X83198Y44891D01*
G01X83208Y44843D01*
G01X83219Y44795D01*
G01X83232Y44749D01*
G01X83247Y44702D01*
G01X83265Y44657D01*
G01X83284Y44612D01*
G01X83305Y44568D01*
G01X83328Y44525D01*
G01X83352Y44484D01*
G01X83379Y44442D01*
G01X83407Y44403D01*
G01X83436Y44364D01*
G01X83468Y44327D01*
G01X83501Y44292D01*
G01X83536Y44257D01*
G01X83571Y44224D01*
G01X83609Y44193D01*
G01X83647Y44163D01*
G01X83687Y44135D01*
G01X83728Y44109D01*
G01X83770Y44084D01*
G01X83813Y44061D01*
G01X83857Y44040D01*
G01X83901Y44021D01*
G01X83915Y44015D01*
G01X83927Y44006D01*
G01X83938Y43996D01*
G01X83948Y43984D01*
G01X83955Y43970D01*
G01X83961Y43957D01*
G01X83964Y43942D01*
G01X83965Y43927D01*
G01X83964Y43911D01*
G01X83960Y43896D01*
G01X83954Y43881D01*
G01X83946Y43867D01*
G01X83936Y43856D01*
G01X83924Y43845D01*
G01X83910Y43837D01*
G01X83896Y43831D01*
G01X83846Y43813D01*
G01X83797Y43793D01*
G01X83749Y43771D01*
G01X83702Y43748D01*
G01X83655Y43723D01*
G01X83610Y43696D01*
G01X83566Y43667D01*
G01X83522Y43636D01*
G01X83480Y43604D01*
G01X83440Y43570D01*
G01X83400Y43535D01*
G01X83362Y43498D01*
G01X83326Y43459D01*
G01X83291Y43420D01*
G01X83258Y43379D01*
G01X83226Y43336D01*
G01X83196Y43293D01*
G01X83168Y43249D01*
G01X83141Y43203D01*
G01X83116Y43156D01*
G01X83094Y43108D01*
G01X83073Y43060D01*
G01X83053Y43010D01*
G01X83036Y42961D01*
G01X83021Y42910D01*
G01X83008Y42859D01*
G01X82997Y42807D01*
G01X82987Y42755D01*
G01X82980Y42702D01*
G01X82975Y42650D01*
G01X82972Y42597D01*
G01X82971Y42545D01*
G01X82972Y42491D01*
G01X82975Y42438D01*
G01X82980Y42385D01*
G01X82988Y42332D01*
G01X82997Y42280D01*
G01X83008Y42228D01*
G01X83022Y42176D01*
G01X83037Y42125D01*
G01X83055Y42075D01*
G01X83074Y42025D01*
G01X83096Y41977D01*
G01X83119Y41929D01*
G01X83144Y41882D01*
G01X83171Y41836D01*
G01X83200Y41791D01*
G01X83230Y41747D01*
G01X83262Y41705D01*
G01X83296Y41664D01*
G01X83331Y41623D01*
G01X83368Y41585D01*
G01X83406Y41548D01*
G01X83447Y41513D01*
G01X83488Y41479D01*
G01X83530Y41447D01*
G01X83574Y41417D01*
G01X83619Y41388D01*
G01X83665Y41361D01*
G01X83712Y41336D01*
G01X83760Y41313D01*
G01X83808Y41291D01*
G01X83858Y41272D01*
G01X83908Y41254D01*
G01X83959Y41239D01*
G01X84011Y41225D01*
G01X84063Y41214D01*
G01X84115Y41205D01*
G01X84168Y41197D01*
G01X84221Y41192D01*
G01X84274Y41189D01*
G01X84328Y41188D01*
G01X84381Y41189D01*
G01X84434Y41192D01*
G01X84487Y41197D01*
G01X84540Y41205D01*
G01X84593Y41214D01*
G01X84644Y41226D01*
G01X84696Y41239D01*
G01X84747Y41255D01*
G01X84798Y41272D01*
G01X84847Y41292D01*
G01X84896Y41313D01*
G01X84944Y41336D01*
G01X84991Y41361D01*
G01X85037Y41388D01*
G01X85082Y41417D01*
G01X85126Y41448D01*
G01X85168Y41480D01*
G01X85209Y41514D01*
G01X85250Y41549D01*
G01X85288Y41586D01*
G01X85325Y41625D01*
G01X85360Y41665D01*
G01X85394Y41706D01*
G01X85426Y41749D01*
G01X85457Y41793D01*
G01X85485Y41837D01*
G01X85512Y41884D01*
G01X85537Y41931D01*
G01X85560Y41979D01*
G01X85576Y42003D01*
G01X85586Y42013D01*
G01X85598Y42022D01*
G01X85611Y42029D01*
G01X85624Y42034D01*
G01X85638Y42037D01*
G01X85653Y42038D01*
G01X91440Y42038D01*
G01X91473Y42039D01*
G01X91506Y42042D01*
G01X91539Y42048D01*
G01X91571Y42055D01*
G01X91603Y42065D01*
G01X91634Y42077D01*
G01X91664Y42090D01*
G01X91693Y42106D01*
G01X91721Y42123D01*
G01X91748Y42143D01*
G01X91773Y42164D01*
G01X91798Y42186D01*
G01X95862Y46250D01*
G01X95885Y46275D01*
G01X95905Y46300D01*
G01X95925Y46327D01*
G01X95942Y46355D01*
G01X95958Y46384D01*
G01X95971Y46414D01*
G01X95983Y46445D01*
G01X95993Y46477D01*
G01X96000Y46509D01*
G01X96006Y46542D01*
G01X96009Y46575D01*
G01X96010Y46609D01*
G01X96010Y52961D01*
G01X96012Y52976D01*
G01X96015Y52992D01*
G01X96021Y53007D01*
G01X96029Y53020D01*
G01X96040Y53033D01*
G01X102720Y59712D01*
G01X102743Y59737D01*
G01X102763Y59762D01*
G01X102783Y59789D01*
G01X102800Y59817D01*
G01X102816Y59846D01*
G01X102829Y59876D01*
G01X102841Y59907D01*
G01X102851Y59939D01*
G01X102858Y59971D01*
G01X102864Y60004D01*
G01X102867Y60037D01*
G01X102868Y60071D01*
G01X102868Y77406D01*
G01X102869Y77421D01*
G01X102872Y77435D01*
G01X102877Y77449D01*
G01X102884Y77461D01*
G01X102893Y77473D01*
G01X102903Y77483D01*
G01X102915Y77492D01*
G01X102927Y77498D01*
G01X102941Y77504D01*
G01X102955Y77507D01*
G01X102970Y77508D01*
G01X102987Y77507D01*
G01X103004Y77502D01*
G01X103070Y77480D01*
G01X103137Y77459D01*
G01X103204Y77441D01*
G01X103272Y77425D01*
G01X103341Y77411D01*
G01X103410Y77399D01*
G01X103479Y77389D01*
G01X103549Y77382D01*
G01X103619Y77377D01*
G01X103688Y77373D01*
G01X103759Y77372D01*
G01X103827Y77373D01*
G01X103895Y77376D01*
G01X103963Y77381D01*
G01X104030Y77388D01*
G01X104098Y77398D01*
G01X104165Y77409D01*
G01X104232Y77422D01*
G01X104299Y77437D01*
G01X104365Y77455D01*
G01X104430Y77474D01*
G01X104495Y77495D01*
G01X104559Y77519D01*
G01X104622Y77544D01*
G01X104685Y77571D01*
G01X104747Y77600D01*
G01X104807Y77631D01*
G01X104867Y77663D01*
G01X104926Y77698D01*
G01X104984Y77734D01*
G01X105040Y77771D01*
G01X105096Y77811D01*
G01X105150Y77852D01*
G01X105203Y77895D01*
G01X105255Y77939D01*
G01X105305Y77986D01*
G01X105354Y78033D01*
G01X105401Y78082D01*
G01X105448Y78132D01*
G01X105492Y78184D01*
G01X105535Y78237D01*
G01X105576Y78291D01*
G01X105616Y78347D01*
G01X105653Y78403D01*
G01X105689Y78461D01*
G01X105724Y78520D01*
G01X105756Y78580D01*
G01X105787Y78640D01*
G01X105816Y78702D01*
G01X105843Y78765D01*
G01X105868Y78828D01*
G01X105892Y78892D01*
G01X105913Y78957D01*
G01X105932Y79022D01*
G01X105950Y79088D01*
G01X105965Y79155D01*
G01X105978Y79222D01*
G01X105989Y79289D01*
G01X105999Y79357D01*
G01X106006Y79424D01*
G01X106011Y79492D01*
G01X106014Y79560D01*
G01X106015Y79629D01*
G01X106014Y79697D01*
G01X106011Y79765D01*
G01X106006Y79833D01*
G01X105999Y79900D01*
G01X105989Y79968D01*
G01X105978Y80035D01*
G01X105965Y80102D01*
G01X105950Y80169D01*
G01X105932Y80235D01*
G01X105913Y80300D01*
G01X105892Y80365D01*
G01X105868Y80429D01*
G01X105843Y80492D01*
G01X105816Y80555D01*
G01X105787Y80617D01*
G01X105756Y80677D01*
G01X105724Y80737D01*
G01X105689Y80796D01*
G01X105653Y80854D01*
G01X105616Y80910D01*
G01X105576Y80966D01*
G01X105535Y81020D01*
G01X105492Y81073D01*
G01X105448Y81125D01*
G01X105401Y81175D01*
G01X105354Y81224D01*
G01X105305Y81271D01*
G01X105255Y81318D01*
G01X105203Y81362D01*
G01X105150Y81405D01*
G01X105096Y81446D01*
G01X105040Y81486D01*
G01X104984Y81523D01*
G01X104926Y81559D01*
G01X104867Y81594D01*
G01X104807Y81626D01*
G01X104747Y81657D01*
G01X104685Y81686D01*
G01X104622Y81713D01*
G01X104559Y81738D01*
G01X104495Y81762D01*
G01X104430Y81783D01*
G01X104365Y81802D01*
G01X104299Y81820D01*
G01X104232Y81835D01*
G01X104165Y81848D01*
G01X104098Y81859D01*
G01X104030Y81869D01*
G01X103963Y81876D01*
G01X103895Y81881D01*
G01X103827Y81884D01*
G01X103759Y81885D01*
G01X103690Y81884D01*
G01X103622Y81881D01*
G01X103554Y81876D01*
G01X103487Y81869D01*
G01X103419Y81859D01*
G01X103352Y81848D01*
G01X103285Y81835D01*
G01X103218Y81820D01*
G01X103152Y81802D01*
G01X103087Y81783D01*
G01X103022Y81762D01*
G01X102958Y81738D01*
G01X102895Y81713D01*
G01X102832Y81686D01*
G01X102770Y81657D01*
G01X102710Y81626D01*
G01X102650Y81594D01*
G01X102591Y81559D01*
G01X102533Y81523D01*
G01X102477Y81486D01*
G01X102421Y81446D01*
G01X102367Y81405D01*
G01X102314Y81362D01*
G01X102262Y81318D01*
G01X102212Y81271D01*
G01X102163Y81224D01*
G01X102116Y81175D01*
G01X102069Y81125D01*
G01X102025Y81073D01*
G01X101982Y81020D01*
G01X101941Y80966D01*
G01X101901Y80910D01*
G01X101864Y80854D01*
G01X101828Y80796D01*
G01X101793Y80737D01*
G01X101761Y80677D01*
G01X101730Y80617D01*
G01X101701Y80555D01*
G01X101674Y80492D01*
G01X101649Y80429D01*
G01X101625Y80365D01*
G01X101604Y80300D01*
G01X101585Y80235D01*
G01X101567Y80169D01*
G01X101552Y80102D01*
G01X101539Y80035D01*
G01X101528Y79968D01*
G01X101518Y79900D01*
G01X101511Y79833D01*
G01X101506Y79765D01*
G01X101503Y79697D01*
G01X101502Y79629D01*
G01X101503Y79558D01*
G01X101507Y79487D01*
G01X101512Y79417D01*
G01X101512Y79408D01*
G01X101511Y79393D01*
G01X101508Y79379D01*
G01X101503Y79365D01*
G01X101496Y79352D01*
G01X101488Y79341D01*
G01X101477Y79330D01*
G01X101466Y79322D01*
G01X101453Y79315D01*
G01X101439Y79310D01*
G01X101425Y79307D01*
G01X101411Y79306D01*
G01X101395Y79307D01*
G01X101380Y79310D01*
G01X101365Y79317D01*
G01X101351Y79325D01*
G01X101339Y79335D01*
G01X100485Y80189D01*
G01X100474Y80202D01*
G01X100466Y80215D01*
G01X100460Y80230D01*
G01X100457Y80246D01*
G01X100455Y80261D01*
G01X100455Y83947D01*
G01X100454Y83980D01*
G01X100451Y84013D01*
G01X100445Y84046D01*
G01X100438Y84078D01*
G01X100428Y84110D01*
G01X100416Y84141D01*
G01X100403Y84171D01*
G01X100387Y84200D01*
G01X100370Y84228D01*
G01X100350Y84255D01*
G01X100330Y84280D01*
G01X100307Y84305D01*
G01X97259Y87353D01*
G01X97234Y87376D01*
G01X97209Y87396D01*
G01X97182Y87416D01*
G01X97154Y87433D01*
G01X97125Y87449D01*
G01X97095Y87462D01*
G01X97064Y87474D01*
G01X97032Y87484D01*
G01X97000Y87491D01*
G01X96967Y87497D01*
G01X96934Y87500D01*
G01X96901Y87501D01*
G37*
G36*
G01X46436Y40561D02*
G01X46390Y40585D01*
G01X46390Y40040D01*
G01X46935Y40040D01*
G01X46911Y40086D01*
G01X46884Y40132D01*
G01X46856Y40175D01*
G01X46826Y40218D01*
G01X46794Y40260D01*
G01X46760Y40300D01*
G01X46725Y40338D01*
G01X46688Y40375D01*
G01X46650Y40410D01*
G01X46610Y40444D01*
G01X46568Y40476D01*
G01X46525Y40506D01*
G01X46482Y40534D01*
G01X46436Y40561D01*
G37*
G36*
G01X45303Y40040D02*
G01X45303Y40585D01*
G01X45257Y40561D01*
G01X45212Y40534D01*
G01X45168Y40506D01*
G01X45125Y40476D01*
G01X45083Y40444D01*
G01X45043Y40410D01*
G01X45005Y40375D01*
G01X44968Y40338D01*
G01X44933Y40300D01*
G01X44899Y40260D01*
G01X44867Y40218D01*
G01X44837Y40175D01*
G01X44809Y40132D01*
G01X44782Y40086D01*
G01X44758Y40040D01*
G01X45303Y40040D01*
G37*
G36*
G01X20899Y40060D02*
G01X20899Y40620D01*
G01X20851Y40594D01*
G01X20805Y40567D01*
G01X20760Y40538D01*
G01X20716Y40507D01*
G01X20674Y40474D01*
G01X20633Y40440D01*
G01X20593Y40404D01*
G01X20555Y40366D01*
G01X20519Y40326D01*
G01X20485Y40285D01*
G01X20452Y40243D01*
G01X20421Y40199D01*
G01X20392Y40154D01*
G01X20365Y40108D01*
G01X20339Y40060D01*
G01X20899Y40060D01*
G37*
G36*
G01X22074Y40594D02*
G01X22026Y40620D01*
G01X22026Y40060D01*
G01X22586Y40060D01*
G01X22560Y40108D01*
G01X22533Y40154D01*
G01X22504Y40199D01*
G01X22473Y40243D01*
G01X22440Y40285D01*
G01X22406Y40326D01*
G01X22370Y40366D01*
G01X22332Y40404D01*
G01X22292Y40440D01*
G01X22251Y40474D01*
G01X22209Y40507D01*
G01X22165Y40538D01*
G01X22120Y40567D01*
G01X22074Y40594D01*
G37*
G36*
G01X84376Y76709D02*
G01X84328Y76710D01*
G01X84279Y76709D01*
G01X84230Y76706D01*
G01X84182Y76701D01*
G01X84134Y76694D01*
G01X84086Y76684D01*
G01X84039Y76673D01*
G01X83992Y76660D01*
G01X83946Y76645D01*
G01X83900Y76627D01*
G01X83856Y76608D01*
G01X83812Y76588D01*
G01X83769Y76565D01*
G01X83727Y76540D01*
G01X83686Y76513D01*
G01X83646Y76486D01*
G01X83608Y76456D01*
G01X83571Y76425D01*
G01X83535Y76392D01*
G01X83500Y76357D01*
G01X83467Y76321D01*
G01X83436Y76284D01*
G01X83406Y76246D01*
G01X83379Y76206D01*
G01X83352Y76165D01*
G01X83327Y76123D01*
G01X83304Y76080D01*
G01X83284Y76036D01*
G01X83265Y75992D01*
G01X83247Y75946D01*
G01X83232Y75900D01*
G01X83219Y75853D01*
G01X83208Y75806D01*
G01X83198Y75758D01*
G01X83191Y75710D01*
G01X83186Y75662D01*
G01X83183Y75613D01*
G01X83182Y75565D01*
G01X83183Y75516D01*
G01X83186Y75467D01*
G01X83191Y75419D01*
G01X83198Y75371D01*
G01X83208Y75323D01*
G01X83219Y75276D01*
G01X83232Y75229D01*
G01X83247Y75183D01*
G01X83265Y75137D01*
G01X83284Y75093D01*
G01X83304Y75049D01*
G01X83327Y75006D01*
G01X83352Y74964D01*
G01X83379Y74923D01*
G01X83406Y74883D01*
G01X83436Y74845D01*
G01X83467Y74808D01*
G01X83500Y74772D01*
G01X83535Y74737D01*
G01X83571Y74704D01*
G01X83608Y74673D01*
G01X83646Y74643D01*
G01X83686Y74616D01*
G01X83727Y74589D01*
G01X83769Y74564D01*
G01X83812Y74541D01*
G01X83856Y74521D01*
G01X83900Y74502D01*
G01X83946Y74484D01*
G01X83992Y74469D01*
G01X84039Y74456D01*
G01X84086Y74445D01*
G01X84134Y74435D01*
G01X84182Y74428D01*
G01X84230Y74423D01*
G01X84279Y74420D01*
G01X84328Y74419D01*
G01X84376Y74420D01*
G01X84425Y74423D01*
G01X84473Y74428D01*
G01X84521Y74435D01*
G01X84569Y74445D01*
G01X84616Y74456D01*
G01X84663Y74469D01*
G01X84709Y74484D01*
G01X84755Y74502D01*
G01X84799Y74521D01*
G01X84843Y74541D01*
G01X84886Y74564D01*
G01X84928Y74589D01*
G01X84969Y74616D01*
G01X85009Y74643D01*
G01X85047Y74673D01*
G01X85084Y74704D01*
G01X85120Y74737D01*
G01X85155Y74772D01*
G01X85188Y74808D01*
G01X85219Y74845D01*
G01X85249Y74883D01*
G01X85276Y74923D01*
G01X85303Y74964D01*
G01X85328Y75006D01*
G01X85351Y75049D01*
G01X85371Y75093D01*
G01X85390Y75137D01*
G01X85408Y75183D01*
G01X85423Y75229D01*
G01X85436Y75276D01*
G01X85447Y75323D01*
G01X85457Y75371D01*
G01X85464Y75419D01*
G01X85469Y75467D01*
G01X85472Y75516D01*
G01X85473Y75565D01*
G01X85472Y75613D01*
G01X85469Y75662D01*
G01X85464Y75710D01*
G01X85457Y75758D01*
G01X85447Y75806D01*
G01X85436Y75853D01*
G01X85423Y75900D01*
G01X85408Y75946D01*
G01X85390Y75992D01*
G01X85371Y76036D01*
G01X85351Y76080D01*
G01X85328Y76123D01*
G01X85303Y76165D01*
G01X85276Y76206D01*
G01X85249Y76246D01*
G01X85219Y76284D01*
G01X85188Y76321D01*
G01X85155Y76357D01*
G01X85120Y76392D01*
G01X85084Y76425D01*
G01X85047Y76456D01*
G01X85009Y76486D01*
G01X84969Y76513D01*
G01X84928Y76540D01*
G01X84886Y76565D01*
G01X84843Y76588D01*
G01X84799Y76608D01*
G01X84755Y76627D01*
G01X84709Y76645D01*
G01X84663Y76660D01*
G01X84616Y76673D01*
G01X84569Y76684D01*
G01X84521Y76694D01*
G01X84473Y76701D01*
G01X84425Y76706D01*
G01X84376Y76709D01*
G37*
G36*
G01X46334Y67950D02*
G01X46291Y67972D01*
G01X46291Y67500D01*
G01X46763Y67500D01*
G01X46741Y67543D01*
G01X46716Y67585D01*
G01X46690Y67626D01*
G01X46662Y67666D01*
G01X46632Y67704D01*
G01X46600Y67741D01*
G01X46567Y67776D01*
G01X46532Y67809D01*
G01X46495Y67841D01*
G01X46457Y67871D01*
G01X46417Y67899D01*
G01X46376Y67925D01*
G01X46334Y67950D01*
G37*
G36*
G01X45402Y67500D02*
G01X45402Y67972D01*
G01X45359Y67950D01*
G01X45317Y67925D01*
G01X45276Y67899D01*
G01X45236Y67871D01*
G01X45198Y67841D01*
G01X45161Y67809D01*
G01X45126Y67776D01*
G01X45093Y67741D01*
G01X45061Y67704D01*
G01X45031Y67666D01*
G01X45003Y67626D01*
G01X44977Y67585D01*
G01X44952Y67543D01*
G01X44930Y67500D01*
G01X45402Y67500D01*
G37*
G36*
G01X45402Y66611D02*
G01X44930Y66611D01*
G01X44952Y66568D01*
G01X44977Y66526D01*
G01X45003Y66485D01*
G01X45031Y66445D01*
G01X45061Y66407D01*
G01X45093Y66370D01*
G01X45126Y66335D01*
G01X45161Y66302D01*
G01X45198Y66270D01*
G01X45236Y66240D01*
G01X45276Y66212D01*
G01X45317Y66186D01*
G01X45359Y66161D01*
G01X45402Y66139D01*
G01X45402Y66611D01*
G37*
G36*
G01X46763Y66611D02*
G01X46291Y66611D01*
G01X46291Y66139D01*
G01X46334Y66161D01*
G01X46376Y66186D01*
G01X46417Y66212D01*
G01X46457Y66240D01*
G01X46495Y66270D01*
G01X46532Y66302D01*
G01X46567Y66335D01*
G01X46600Y66370D01*
G01X46632Y66407D01*
G01X46662Y66445D01*
G01X46690Y66485D01*
G01X46716Y66526D01*
G01X46741Y66568D01*
G01X46763Y66611D01*
G37*
G36*
G01X27649Y63592D02*
G01X27586Y63593D01*
G01X27524Y63592D01*
G01X27462Y63589D01*
G01X27399Y63584D01*
G01X27338Y63577D01*
G01X27276Y63568D01*
G01X27215Y63556D01*
G01X27153Y63543D01*
G01X27093Y63528D01*
G01X27033Y63511D01*
G01X26973Y63492D01*
G01X26914Y63471D01*
G01X26856Y63448D01*
G01X26799Y63423D01*
G01X26743Y63396D01*
G01X26687Y63368D01*
G01X26633Y63337D01*
G01X26579Y63305D01*
G01X26527Y63271D01*
G01X26475Y63236D01*
G01X26425Y63199D01*
G01X26376Y63160D01*
G01X26329Y63120D01*
G01X26282Y63078D01*
G01X26238Y63034D01*
G01X26194Y62989D01*
G01X26152Y62943D01*
G01X26112Y62895D01*
G01X26073Y62847D01*
G01X26036Y62796D01*
G01X26000Y62745D01*
G01X25966Y62693D01*
G01X25934Y62639D01*
G01X25904Y62585D01*
G01X25875Y62529D01*
G01X25849Y62473D01*
G01X25824Y62415D01*
G01X25801Y62358D01*
G01X25780Y62299D01*
G01X25761Y62239D01*
G01X25744Y62179D01*
G01X25729Y62119D01*
G01X25715Y62058D01*
G01X25704Y61996D01*
G01X25695Y61934D01*
G01X25688Y61872D01*
G01X25683Y61810D01*
G01X25680Y61748D01*
G01X25679Y61685D01*
G01X25680Y61623D01*
G01X25683Y61561D01*
G01X25688Y61498D01*
G01X25695Y61437D01*
G01X25704Y61375D01*
G01X25715Y61314D01*
G01X25729Y61252D01*
G01X25744Y61192D01*
G01X25761Y61132D01*
G01X25780Y61072D01*
G01X25801Y61013D01*
G01X25824Y60955D01*
G01X25849Y60898D01*
G01X25875Y60842D01*
G01X25904Y60786D01*
G01X25934Y60732D01*
G01X25966Y60678D01*
G01X26000Y60626D01*
G01X26036Y60574D01*
G01X26073Y60524D01*
G01X26112Y60475D01*
G01X26152Y60428D01*
G01X26194Y60381D01*
G01X26238Y60337D01*
G01X26282Y60294D01*
G01X26329Y60251D01*
G01X26376Y60211D01*
G01X26425Y60172D01*
G01X26475Y60135D01*
G01X26527Y60099D01*
G01X26579Y60065D01*
G01X26633Y60033D01*
G01X26687Y60003D01*
G01X26743Y59974D01*
G01X26799Y59948D01*
G01X26856Y59923D01*
G01X26914Y59900D01*
G01X26973Y59879D01*
G01X27033Y59860D01*
G01X27093Y59843D01*
G01X27153Y59828D01*
G01X27215Y59814D01*
G01X27276Y59803D01*
G01X27338Y59794D01*
G01X27399Y59787D01*
G01X27462Y59782D01*
G01X27524Y59779D01*
G01X27586Y59778D01*
G01X27649Y59779D01*
G01X27711Y59782D01*
G01X27773Y59787D01*
G01X27835Y59794D01*
G01X27897Y59803D01*
G01X27959Y59814D01*
G01X28020Y59828D01*
G01X28080Y59843D01*
G01X28140Y59860D01*
G01X28200Y59879D01*
G01X28259Y59900D01*
G01X28316Y59923D01*
G01X28374Y59948D01*
G01X28430Y59974D01*
G01X28486Y60003D01*
G01X28540Y60033D01*
G01X28594Y60065D01*
G01X28646Y60099D01*
G01X28697Y60135D01*
G01X28748Y60172D01*
G01X28796Y60211D01*
G01X28844Y60251D01*
G01X28890Y60294D01*
G01X28935Y60337D01*
G01X28979Y60381D01*
G01X29021Y60428D01*
G01X29061Y60475D01*
G01X29100Y60524D01*
G01X29137Y60574D01*
G01X29172Y60626D01*
G01X29206Y60678D01*
G01X29238Y60732D01*
G01X29269Y60786D01*
G01X29297Y60842D01*
G01X29324Y60898D01*
G01X29349Y60955D01*
G01X29372Y61013D01*
G01X29393Y61072D01*
G01X29412Y61132D01*
G01X29429Y61192D01*
G01X29444Y61252D01*
G01X29457Y61314D01*
G01X29469Y61375D01*
G01X29478Y61437D01*
G01X29485Y61498D01*
G01X29490Y61561D01*
G01X29493Y61623D01*
G01X29494Y61685D01*
G01X29493Y61748D01*
G01X29490Y61810D01*
G01X29485Y61872D01*
G01X29478Y61934D01*
G01X29469Y61996D01*
G01X29457Y62058D01*
G01X29444Y62119D01*
G01X29429Y62179D01*
G01X29412Y62239D01*
G01X29393Y62299D01*
G01X29372Y62358D01*
G01X29349Y62415D01*
G01X29324Y62473D01*
G01X29297Y62529D01*
G01X29269Y62585D01*
G01X29238Y62639D01*
G01X29206Y62693D01*
G01X29172Y62745D01*
G01X29137Y62796D01*
G01X29100Y62847D01*
G01X29061Y62895D01*
G01X29021Y62943D01*
G01X28979Y62989D01*
G01X28935Y63034D01*
G01X28890Y63078D01*
G01X28844Y63120D01*
G01X28796Y63160D01*
G01X28748Y63199D01*
G01X28697Y63236D01*
G01X28646Y63271D01*
G01X28594Y63305D01*
G01X28540Y63337D01*
G01X28486Y63368D01*
G01X28430Y63396D01*
G01X28374Y63423D01*
G01X28316Y63448D01*
G01X28259Y63471D01*
G01X28200Y63492D01*
G01X28140Y63511D01*
G01X28080Y63528D01*
G01X28020Y63543D01*
G01X27959Y63556D01*
G01X27897Y63568D01*
G01X27835Y63577D01*
G01X27773Y63584D01*
G01X27711Y63589D01*
G01X27649Y63592D01*
G37*
G36*
G01X69136Y58929D02*
G01X69088Y58930D01*
G01X69039Y58929D01*
G01X68990Y58926D01*
G01X68942Y58921D01*
G01X68894Y58914D01*
G01X68846Y58904D01*
G01X68799Y58893D01*
G01X68752Y58880D01*
G01X68706Y58865D01*
G01X68660Y58847D01*
G01X68616Y58828D01*
G01X68572Y58808D01*
G01X68529Y58785D01*
G01X68487Y58760D01*
G01X68446Y58733D01*
G01X68406Y58706D01*
G01X68368Y58676D01*
G01X68331Y58645D01*
G01X68295Y58612D01*
G01X68260Y58577D01*
G01X68227Y58541D01*
G01X68196Y58504D01*
G01X68166Y58466D01*
G01X68139Y58426D01*
G01X68112Y58385D01*
G01X68087Y58343D01*
G01X68064Y58300D01*
G01X68044Y58256D01*
G01X68025Y58212D01*
G01X68007Y58166D01*
G01X67992Y58120D01*
G01X67979Y58073D01*
G01X67968Y58026D01*
G01X67958Y57978D01*
G01X67951Y57930D01*
G01X67946Y57882D01*
G01X67943Y57833D01*
G01X67942Y57785D01*
G01X67943Y57736D01*
G01X67946Y57687D01*
G01X67951Y57639D01*
G01X67958Y57591D01*
G01X67968Y57543D01*
G01X67979Y57496D01*
G01X67992Y57449D01*
G01X68007Y57403D01*
G01X68025Y57357D01*
G01X68044Y57313D01*
G01X68064Y57269D01*
G01X68087Y57226D01*
G01X68112Y57184D01*
G01X68139Y57143D01*
G01X68166Y57103D01*
G01X68196Y57065D01*
G01X68227Y57028D01*
G01X68260Y56992D01*
G01X68295Y56957D01*
G01X68331Y56924D01*
G01X68368Y56893D01*
G01X68406Y56863D01*
G01X68446Y56836D01*
G01X68487Y56809D01*
G01X68529Y56784D01*
G01X68572Y56761D01*
G01X68616Y56741D01*
G01X68660Y56722D01*
G01X68706Y56704D01*
G01X68752Y56689D01*
G01X68799Y56676D01*
G01X68846Y56665D01*
G01X68894Y56655D01*
G01X68942Y56648D01*
G01X68990Y56643D01*
G01X69039Y56640D01*
G01X69088Y56639D01*
G01X69136Y56640D01*
G01X69185Y56643D01*
G01X69233Y56648D01*
G01X69281Y56655D01*
G01X69329Y56665D01*
G01X69376Y56676D01*
G01X69423Y56689D01*
G01X69469Y56704D01*
G01X69515Y56722D01*
G01X69559Y56741D01*
G01X69603Y56761D01*
G01X69646Y56784D01*
G01X69688Y56809D01*
G01X69729Y56836D01*
G01X69769Y56863D01*
G01X69807Y56893D01*
G01X69844Y56924D01*
G01X69880Y56957D01*
G01X69915Y56992D01*
G01X69948Y57028D01*
G01X69979Y57065D01*
G01X70009Y57103D01*
G01X70036Y57143D01*
G01X70063Y57184D01*
G01X70088Y57226D01*
G01X70111Y57269D01*
G01X70131Y57313D01*
G01X70150Y57357D01*
G01X70168Y57403D01*
G01X70183Y57449D01*
G01X70196Y57496D01*
G01X70207Y57543D01*
G01X70217Y57591D01*
G01X70224Y57639D01*
G01X70229Y57687D01*
G01X70232Y57736D01*
G01X70233Y57785D01*
G01X70232Y57833D01*
G01X70229Y57882D01*
G01X70224Y57930D01*
G01X70217Y57978D01*
G01X70207Y58026D01*
G01X70196Y58073D01*
G01X70183Y58120D01*
G01X70168Y58166D01*
G01X70150Y58212D01*
G01X70131Y58256D01*
G01X70111Y58300D01*
G01X70088Y58343D01*
G01X70063Y58385D01*
G01X70036Y58426D01*
G01X70009Y58466D01*
G01X69979Y58504D01*
G01X69948Y58541D01*
G01X69915Y58577D01*
G01X69880Y58612D01*
G01X69844Y58645D01*
G01X69807Y58676D01*
G01X69769Y58706D01*
G01X69729Y58733D01*
G01X69688Y58760D01*
G01X69646Y58785D01*
G01X69603Y58808D01*
G01X69559Y58828D01*
G01X69515Y58847D01*
G01X69469Y58865D01*
G01X69423Y58880D01*
G01X69376Y58893D01*
G01X69329Y58904D01*
G01X69281Y58914D01*
G01X69233Y58921D01*
G01X69185Y58926D01*
G01X69136Y58929D01*
G37*
G36*
G01X103827Y50896D02*
G01X103759Y50897D01*
G01X103690Y50896D01*
G01X103622Y50893D01*
G01X103554Y50888D01*
G01X103487Y50881D01*
G01X103419Y50871D01*
G01X103352Y50860D01*
G01X103285Y50847D01*
G01X103218Y50832D01*
G01X103152Y50814D01*
G01X103087Y50795D01*
G01X103022Y50774D01*
G01X102958Y50750D01*
G01X102895Y50725D01*
G01X102832Y50698D01*
G01X102770Y50669D01*
G01X102710Y50638D01*
G01X102650Y50606D01*
G01X102591Y50571D01*
G01X102533Y50535D01*
G01X102477Y50498D01*
G01X102421Y50458D01*
G01X102367Y50417D01*
G01X102314Y50374D01*
G01X102262Y50330D01*
G01X102212Y50283D01*
G01X102163Y50236D01*
G01X102116Y50187D01*
G01X102069Y50137D01*
G01X102025Y50085D01*
G01X101982Y50032D01*
G01X101941Y49978D01*
G01X101901Y49922D01*
G01X101864Y49866D01*
G01X101828Y49808D01*
G01X101793Y49749D01*
G01X101761Y49689D01*
G01X101730Y49629D01*
G01X101701Y49567D01*
G01X101674Y49504D01*
G01X101649Y49441D01*
G01X101625Y49377D01*
G01X101604Y49312D01*
G01X101585Y49247D01*
G01X101567Y49181D01*
G01X101552Y49114D01*
G01X101539Y49047D01*
G01X101528Y48980D01*
G01X101518Y48912D01*
G01X101511Y48845D01*
G01X101506Y48777D01*
G01X101503Y48709D01*
G01X101502Y48641D01*
G01X101503Y48572D01*
G01X101506Y48504D01*
G01X101511Y48436D01*
G01X101518Y48369D01*
G01X101528Y48301D01*
G01X101539Y48234D01*
G01X101552Y48167D01*
G01X101567Y48100D01*
G01X101585Y48034D01*
G01X101604Y47969D01*
G01X101625Y47904D01*
G01X101649Y47840D01*
G01X101674Y47777D01*
G01X101701Y47714D01*
G01X101730Y47652D01*
G01X101761Y47592D01*
G01X101793Y47532D01*
G01X101828Y47473D01*
G01X101864Y47415D01*
G01X101901Y47359D01*
G01X101941Y47303D01*
G01X101982Y47249D01*
G01X102025Y47196D01*
G01X102069Y47144D01*
G01X102116Y47094D01*
G01X102163Y47045D01*
G01X102212Y46998D01*
G01X102262Y46951D01*
G01X102314Y46907D01*
G01X102367Y46864D01*
G01X102421Y46823D01*
G01X102477Y46783D01*
G01X102533Y46746D01*
G01X102591Y46710D01*
G01X102650Y46675D01*
G01X102710Y46643D01*
G01X102770Y46612D01*
G01X102832Y46583D01*
G01X102895Y46556D01*
G01X102958Y46531D01*
G01X103022Y46507D01*
G01X103087Y46486D01*
G01X103152Y46467D01*
G01X103218Y46449D01*
G01X103285Y46434D01*
G01X103352Y46421D01*
G01X103419Y46410D01*
G01X103487Y46400D01*
G01X103554Y46393D01*
G01X103622Y46388D01*
G01X103690Y46385D01*
G01X103759Y46384D01*
G01X103827Y46385D01*
G01X103895Y46388D01*
G01X103963Y46393D01*
G01X104030Y46400D01*
G01X104098Y46410D01*
G01X104165Y46421D01*
G01X104232Y46434D01*
G01X104299Y46449D01*
G01X104365Y46467D01*
G01X104430Y46486D01*
G01X104495Y46507D01*
G01X104559Y46531D01*
G01X104622Y46556D01*
G01X104685Y46583D01*
G01X104747Y46612D01*
G01X104807Y46643D01*
G01X104867Y46675D01*
G01X104926Y46710D01*
G01X104984Y46746D01*
G01X105040Y46783D01*
G01X105096Y46823D01*
G01X105150Y46864D01*
G01X105203Y46907D01*
G01X105255Y46951D01*
G01X105305Y46998D01*
G01X105354Y47045D01*
G01X105401Y47094D01*
G01X105448Y47144D01*
G01X105492Y47196D01*
G01X105535Y47249D01*
G01X105576Y47303D01*
G01X105616Y47359D01*
G01X105653Y47415D01*
G01X105689Y47473D01*
G01X105724Y47532D01*
G01X105756Y47592D01*
G01X105787Y47652D01*
G01X105816Y47714D01*
G01X105843Y47777D01*
G01X105868Y47840D01*
G01X105892Y47904D01*
G01X105913Y47969D01*
G01X105932Y48034D01*
G01X105950Y48100D01*
G01X105965Y48167D01*
G01X105978Y48234D01*
G01X105989Y48301D01*
G01X105999Y48369D01*
G01X106006Y48436D01*
G01X106011Y48504D01*
G01X106014Y48572D01*
G01X106015Y48641D01*
G01X106014Y48709D01*
G01X106011Y48777D01*
G01X106006Y48845D01*
G01X105999Y48912D01*
G01X105989Y48980D01*
G01X105978Y49047D01*
G01X105965Y49114D01*
G01X105950Y49181D01*
G01X105932Y49247D01*
G01X105913Y49312D01*
G01X105892Y49377D01*
G01X105868Y49441D01*
G01X105843Y49504D01*
G01X105816Y49567D01*
G01X105787Y49629D01*
G01X105756Y49689D01*
G01X105724Y49749D01*
G01X105689Y49808D01*
G01X105653Y49866D01*
G01X105616Y49922D01*
G01X105576Y49978D01*
G01X105535Y50032D01*
G01X105492Y50085D01*
G01X105448Y50137D01*
G01X105401Y50187D01*
G01X105354Y50236D01*
G01X105305Y50283D01*
G01X105255Y50330D01*
G01X105203Y50374D01*
G01X105150Y50417D01*
G01X105096Y50458D01*
G01X105040Y50498D01*
G01X104984Y50535D01*
G01X104926Y50571D01*
G01X104867Y50606D01*
G01X104807Y50638D01*
G01X104747Y50669D01*
G01X104685Y50698D01*
G01X104622Y50725D01*
G01X104559Y50750D01*
G01X104495Y50774D01*
G01X104430Y50795D01*
G01X104365Y50814D01*
G01X104299Y50832D01*
G01X104232Y50847D01*
G01X104165Y50860D01*
G01X104098Y50871D01*
G01X104030Y50881D01*
G01X103963Y50888D01*
G01X103895Y50893D01*
G01X103827Y50896D01*
G37*
G36*
G01X84376Y48769D02*
G01X84328Y48770D01*
G01X84279Y48769D01*
G01X84230Y48766D01*
G01X84182Y48761D01*
G01X84134Y48754D01*
G01X84086Y48744D01*
G01X84039Y48733D01*
G01X83992Y48720D01*
G01X83946Y48705D01*
G01X83900Y48687D01*
G01X83856Y48668D01*
G01X83812Y48648D01*
G01X83769Y48625D01*
G01X83727Y48600D01*
G01X83686Y48573D01*
G01X83646Y48546D01*
G01X83608Y48516D01*
G01X83571Y48485D01*
G01X83535Y48452D01*
G01X83500Y48417D01*
G01X83467Y48381D01*
G01X83436Y48344D01*
G01X83406Y48306D01*
G01X83379Y48266D01*
G01X83352Y48225D01*
G01X83327Y48183D01*
G01X83304Y48140D01*
G01X83284Y48096D01*
G01X83265Y48052D01*
G01X83247Y48006D01*
G01X83232Y47960D01*
G01X83219Y47913D01*
G01X83208Y47866D01*
G01X83198Y47818D01*
G01X83191Y47770D01*
G01X83186Y47722D01*
G01X83183Y47673D01*
G01X83182Y47625D01*
G01X83183Y47576D01*
G01X83186Y47527D01*
G01X83191Y47479D01*
G01X83198Y47431D01*
G01X83208Y47383D01*
G01X83219Y47336D01*
G01X83232Y47289D01*
G01X83247Y47243D01*
G01X83265Y47197D01*
G01X83284Y47153D01*
G01X83304Y47109D01*
G01X83327Y47066D01*
G01X83352Y47024D01*
G01X83379Y46983D01*
G01X83406Y46943D01*
G01X83436Y46905D01*
G01X83467Y46868D01*
G01X83500Y46832D01*
G01X83535Y46797D01*
G01X83571Y46764D01*
G01X83608Y46733D01*
G01X83646Y46703D01*
G01X83686Y46676D01*
G01X83727Y46649D01*
G01X83769Y46624D01*
G01X83812Y46601D01*
G01X83856Y46581D01*
G01X83900Y46562D01*
G01X83946Y46544D01*
G01X83992Y46529D01*
G01X84039Y46516D01*
G01X84086Y46505D01*
G01X84134Y46495D01*
G01X84182Y46488D01*
G01X84230Y46483D01*
G01X84279Y46480D01*
G01X84328Y46479D01*
G01X84376Y46480D01*
G01X84425Y46483D01*
G01X84473Y46488D01*
G01X84521Y46495D01*
G01X84569Y46505D01*
G01X84616Y46516D01*
G01X84663Y46529D01*
G01X84709Y46544D01*
G01X84755Y46562D01*
G01X84799Y46581D01*
G01X84843Y46601D01*
G01X84886Y46624D01*
G01X84928Y46649D01*
G01X84969Y46676D01*
G01X85009Y46703D01*
G01X85047Y46733D01*
G01X85084Y46764D01*
G01X85120Y46797D01*
G01X85155Y46832D01*
G01X85188Y46868D01*
G01X85219Y46905D01*
G01X85249Y46943D01*
G01X85276Y46983D01*
G01X85303Y47024D01*
G01X85328Y47066D01*
G01X85351Y47109D01*
G01X85371Y47153D01*
G01X85390Y47197D01*
G01X85408Y47243D01*
G01X85423Y47289D01*
G01X85436Y47336D01*
G01X85447Y47383D01*
G01X85457Y47431D01*
G01X85464Y47479D01*
G01X85469Y47527D01*
G01X85472Y47576D01*
G01X85473Y47625D01*
G01X85472Y47673D01*
G01X85469Y47722D01*
G01X85464Y47770D01*
G01X85457Y47818D01*
G01X85447Y47866D01*
G01X85436Y47913D01*
G01X85423Y47960D01*
G01X85408Y48006D01*
G01X85390Y48052D01*
G01X85371Y48096D01*
G01X85351Y48140D01*
G01X85328Y48183D01*
G01X85303Y48225D01*
G01X85276Y48266D01*
G01X85249Y48306D01*
G01X85219Y48344D01*
G01X85188Y48381D01*
G01X85155Y48417D01*
G01X85120Y48452D01*
G01X85084Y48485D01*
G01X85047Y48516D01*
G01X85009Y48546D01*
G01X84969Y48573D01*
G01X84928Y48600D01*
G01X84886Y48625D01*
G01X84843Y48648D01*
G01X84799Y48668D01*
G01X84755Y48687D01*
G01X84709Y48705D01*
G01X84663Y48720D01*
G01X84616Y48733D01*
G01X84569Y48744D01*
G01X84521Y48754D01*
G01X84473Y48761D01*
G01X84425Y48766D01*
G01X84376Y48769D01*
G37*
G36*
G01X84376Y56389D02*
G01X84328Y56390D01*
G01X84279Y56389D01*
G01X84230Y56386D01*
G01X84182Y56381D01*
G01X84134Y56374D01*
G01X84086Y56364D01*
G01X84039Y56353D01*
G01X83992Y56340D01*
G01X83946Y56325D01*
G01X83900Y56307D01*
G01X83856Y56288D01*
G01X83812Y56268D01*
G01X83769Y56245D01*
G01X83727Y56220D01*
G01X83686Y56193D01*
G01X83646Y56166D01*
G01X83608Y56136D01*
G01X83571Y56105D01*
G01X83535Y56072D01*
G01X83500Y56037D01*
G01X83467Y56001D01*
G01X83436Y55964D01*
G01X83406Y55926D01*
G01X83379Y55886D01*
G01X83352Y55845D01*
G01X83327Y55803D01*
G01X83304Y55760D01*
G01X83284Y55716D01*
G01X83265Y55672D01*
G01X83247Y55626D01*
G01X83232Y55580D01*
G01X83219Y55533D01*
G01X83208Y55486D01*
G01X83198Y55438D01*
G01X83191Y55390D01*
G01X83186Y55342D01*
G01X83183Y55293D01*
G01X83182Y55245D01*
G01X83183Y55196D01*
G01X83186Y55147D01*
G01X83191Y55099D01*
G01X83198Y55051D01*
G01X83208Y55003D01*
G01X83219Y54956D01*
G01X83232Y54909D01*
G01X83247Y54863D01*
G01X83265Y54817D01*
G01X83284Y54773D01*
G01X83304Y54729D01*
G01X83327Y54686D01*
G01X83352Y54644D01*
G01X83379Y54603D01*
G01X83406Y54563D01*
G01X83436Y54525D01*
G01X83467Y54488D01*
G01X83500Y54452D01*
G01X83535Y54417D01*
G01X83571Y54384D01*
G01X83608Y54353D01*
G01X83646Y54323D01*
G01X83686Y54296D01*
G01X83727Y54269D01*
G01X83769Y54244D01*
G01X83812Y54221D01*
G01X83856Y54201D01*
G01X83900Y54182D01*
G01X83946Y54164D01*
G01X83992Y54149D01*
G01X84039Y54136D01*
G01X84086Y54125D01*
G01X84134Y54115D01*
G01X84182Y54108D01*
G01X84230Y54103D01*
G01X84279Y54100D01*
G01X84328Y54099D01*
G01X84376Y54100D01*
G01X84425Y54103D01*
G01X84473Y54108D01*
G01X84521Y54115D01*
G01X84569Y54125D01*
G01X84616Y54136D01*
G01X84663Y54149D01*
G01X84709Y54164D01*
G01X84755Y54182D01*
G01X84799Y54201D01*
G01X84843Y54221D01*
G01X84886Y54244D01*
G01X84928Y54269D01*
G01X84969Y54296D01*
G01X85009Y54323D01*
G01X85047Y54353D01*
G01X85084Y54384D01*
G01X85120Y54417D01*
G01X85155Y54452D01*
G01X85188Y54488D01*
G01X85219Y54525D01*
G01X85249Y54563D01*
G01X85276Y54603D01*
G01X85303Y54644D01*
G01X85328Y54686D01*
G01X85351Y54729D01*
G01X85371Y54773D01*
G01X85390Y54817D01*
G01X85408Y54863D01*
G01X85423Y54909D01*
G01X85436Y54956D01*
G01X85447Y55003D01*
G01X85457Y55051D01*
G01X85464Y55099D01*
G01X85469Y55147D01*
G01X85472Y55196D01*
G01X85473Y55245D01*
G01X85472Y55293D01*
G01X85469Y55342D01*
G01X85464Y55390D01*
G01X85457Y55438D01*
G01X85447Y55486D01*
G01X85436Y55533D01*
G01X85423Y55580D01*
G01X85408Y55626D01*
G01X85390Y55672D01*
G01X85371Y55716D01*
G01X85351Y55760D01*
G01X85328Y55803D01*
G01X85303Y55845D01*
G01X85276Y55886D01*
G01X85249Y55926D01*
G01X85219Y55964D01*
G01X85188Y56001D01*
G01X85155Y56037D01*
G01X85120Y56072D01*
G01X85084Y56105D01*
G01X85047Y56136D01*
G01X85009Y56166D01*
G01X84969Y56193D01*
G01X84928Y56220D01*
G01X84886Y56245D01*
G01X84843Y56268D01*
G01X84799Y56288D01*
G01X84755Y56307D01*
G01X84709Y56325D01*
G01X84663Y56340D01*
G01X84616Y56353D01*
G01X84569Y56364D01*
G01X84521Y56374D01*
G01X84473Y56381D01*
G01X84425Y56386D01*
G01X84376Y56389D01*
G37*
G36*
G01X69136Y56389D02*
G01X69088Y56390D01*
G01X69039Y56389D01*
G01X68990Y56386D01*
G01X68942Y56381D01*
G01X68894Y56374D01*
G01X68846Y56364D01*
G01X68799Y56353D01*
G01X68752Y56340D01*
G01X68706Y56325D01*
G01X68660Y56307D01*
G01X68616Y56288D01*
G01X68572Y56268D01*
G01X68529Y56245D01*
G01X68487Y56220D01*
G01X68446Y56193D01*
G01X68406Y56166D01*
G01X68368Y56136D01*
G01X68331Y56105D01*
G01X68295Y56072D01*
G01X68260Y56037D01*
G01X68227Y56001D01*
G01X68196Y55964D01*
G01X68166Y55926D01*
G01X68139Y55886D01*
G01X68112Y55845D01*
G01X68087Y55803D01*
G01X68064Y55760D01*
G01X68044Y55716D01*
G01X68025Y55672D01*
G01X68007Y55626D01*
G01X67992Y55580D01*
G01X67979Y55533D01*
G01X67968Y55486D01*
G01X67958Y55438D01*
G01X67951Y55390D01*
G01X67946Y55342D01*
G01X67943Y55293D01*
G01X67942Y55245D01*
G01X67943Y55196D01*
G01X67946Y55147D01*
G01X67951Y55099D01*
G01X67958Y55051D01*
G01X67968Y55003D01*
G01X67979Y54956D01*
G01X67992Y54909D01*
G01X68007Y54863D01*
G01X68025Y54817D01*
G01X68044Y54773D01*
G01X68064Y54729D01*
G01X68087Y54686D01*
G01X68112Y54644D01*
G01X68139Y54603D01*
G01X68166Y54563D01*
G01X68196Y54525D01*
G01X68227Y54488D01*
G01X68260Y54452D01*
G01X68295Y54417D01*
G01X68331Y54384D01*
G01X68368Y54353D01*
G01X68406Y54323D01*
G01X68446Y54296D01*
G01X68487Y54269D01*
G01X68529Y54244D01*
G01X68572Y54221D01*
G01X68616Y54201D01*
G01X68660Y54182D01*
G01X68706Y54164D01*
G01X68752Y54149D01*
G01X68799Y54136D01*
G01X68846Y54125D01*
G01X68894Y54115D01*
G01X68942Y54108D01*
G01X68990Y54103D01*
G01X69039Y54100D01*
G01X69088Y54099D01*
G01X69136Y54100D01*
G01X69185Y54103D01*
G01X69233Y54108D01*
G01X69281Y54115D01*
G01X69329Y54125D01*
G01X69376Y54136D01*
G01X69423Y54149D01*
G01X69469Y54164D01*
G01X69515Y54182D01*
G01X69559Y54201D01*
G01X69603Y54221D01*
G01X69646Y54244D01*
G01X69688Y54269D01*
G01X69729Y54296D01*
G01X69769Y54323D01*
G01X69807Y54353D01*
G01X69844Y54384D01*
G01X69880Y54417D01*
G01X69915Y54452D01*
G01X69948Y54488D01*
G01X69979Y54525D01*
G01X70009Y54563D01*
G01X70036Y54603D01*
G01X70063Y54644D01*
G01X70088Y54686D01*
G01X70111Y54729D01*
G01X70131Y54773D01*
G01X70150Y54817D01*
G01X70168Y54863D01*
G01X70183Y54909D01*
G01X70196Y54956D01*
G01X70207Y55003D01*
G01X70217Y55051D01*
G01X70224Y55099D01*
G01X70229Y55147D01*
G01X70232Y55196D01*
G01X70233Y55245D01*
G01X70232Y55293D01*
G01X70229Y55342D01*
G01X70224Y55390D01*
G01X70217Y55438D01*
G01X70207Y55486D01*
G01X70196Y55533D01*
G01X70183Y55580D01*
G01X70168Y55626D01*
G01X70150Y55672D01*
G01X70131Y55716D01*
G01X70111Y55760D01*
G01X70088Y55803D01*
G01X70063Y55845D01*
G01X70036Y55886D01*
G01X70009Y55926D01*
G01X69979Y55964D01*
G01X69948Y56001D01*
G01X69915Y56037D01*
G01X69880Y56072D01*
G01X69844Y56105D01*
G01X69807Y56136D01*
G01X69769Y56166D01*
G01X69729Y56193D01*
G01X69688Y56220D01*
G01X69646Y56245D01*
G01X69603Y56268D01*
G01X69559Y56288D01*
G01X69515Y56307D01*
G01X69469Y56325D01*
G01X69423Y56340D01*
G01X69376Y56353D01*
G01X69329Y56364D01*
G01X69281Y56374D01*
G01X69233Y56381D01*
G01X69185Y56386D01*
G01X69136Y56389D01*
G37*
G36*
G01X46935Y49113D02*
G01X46390Y49113D01*
G01X46390Y48568D01*
G01X46436Y48592D01*
G01X46482Y48619D01*
G01X46525Y48647D01*
G01X46568Y48677D01*
G01X46610Y48709D01*
G01X46650Y48743D01*
G01X46688Y48778D01*
G01X46725Y48815D01*
G01X46760Y48853D01*
G01X46794Y48893D01*
G01X46826Y48935D01*
G01X46856Y48978D01*
G01X46884Y49022D01*
G01X46911Y49067D01*
G01X46935Y49113D01*
G37*
G36*
G01X45303Y49113D02*
G01X44758Y49113D01*
G01X44782Y49067D01*
G01X44809Y49022D01*
G01X44837Y48978D01*
G01X44867Y48935D01*
G01X44899Y48893D01*
G01X44933Y48853D01*
G01X44968Y48815D01*
G01X45005Y48778D01*
G01X45043Y48743D01*
G01X45083Y48709D01*
G01X45125Y48677D01*
G01X45168Y48647D01*
G01X45212Y48619D01*
G01X45257Y48592D01*
G01X45303Y48568D01*
G01X45303Y49113D01*
G37*
G36*
G01X84376Y51309D02*
G01X84328Y51310D01*
G01X84279Y51309D01*
G01X84230Y51306D01*
G01X84182Y51301D01*
G01X84134Y51294D01*
G01X84086Y51284D01*
G01X84039Y51273D01*
G01X83992Y51260D01*
G01X83946Y51245D01*
G01X83900Y51227D01*
G01X83856Y51208D01*
G01X83812Y51188D01*
G01X83769Y51165D01*
G01X83727Y51140D01*
G01X83686Y51113D01*
G01X83646Y51086D01*
G01X83608Y51056D01*
G01X83571Y51025D01*
G01X83535Y50992D01*
G01X83500Y50957D01*
G01X83467Y50921D01*
G01X83436Y50884D01*
G01X83406Y50846D01*
G01X83379Y50806D01*
G01X83352Y50765D01*
G01X83327Y50723D01*
G01X83304Y50680D01*
G01X83284Y50636D01*
G01X83265Y50592D01*
G01X83247Y50546D01*
G01X83232Y50500D01*
G01X83219Y50453D01*
G01X83208Y50406D01*
G01X83198Y50358D01*
G01X83191Y50310D01*
G01X83186Y50262D01*
G01X83183Y50213D01*
G01X83182Y50165D01*
G01X83183Y50116D01*
G01X83186Y50067D01*
G01X83191Y50019D01*
G01X83198Y49971D01*
G01X83208Y49923D01*
G01X83219Y49876D01*
G01X83232Y49829D01*
G01X83247Y49783D01*
G01X83265Y49737D01*
G01X83284Y49693D01*
G01X83304Y49649D01*
G01X83327Y49606D01*
G01X83352Y49564D01*
G01X83379Y49523D01*
G01X83406Y49483D01*
G01X83436Y49445D01*
G01X83467Y49408D01*
G01X83500Y49372D01*
G01X83535Y49337D01*
G01X83571Y49304D01*
G01X83608Y49273D01*
G01X83646Y49243D01*
G01X83686Y49216D01*
G01X83727Y49189D01*
G01X83769Y49164D01*
G01X83812Y49141D01*
G01X83856Y49121D01*
G01X83900Y49102D01*
G01X83946Y49084D01*
G01X83992Y49069D01*
G01X84039Y49056D01*
G01X84086Y49045D01*
G01X84134Y49035D01*
G01X84182Y49028D01*
G01X84230Y49023D01*
G01X84279Y49020D01*
G01X84328Y49019D01*
G01X84376Y49020D01*
G01X84425Y49023D01*
G01X84473Y49028D01*
G01X84521Y49035D01*
G01X84569Y49045D01*
G01X84616Y49056D01*
G01X84663Y49069D01*
G01X84709Y49084D01*
G01X84755Y49102D01*
G01X84799Y49121D01*
G01X84843Y49141D01*
G01X84886Y49164D01*
G01X84928Y49189D01*
G01X84969Y49216D01*
G01X85009Y49243D01*
G01X85047Y49273D01*
G01X85084Y49304D01*
G01X85120Y49337D01*
G01X85155Y49372D01*
G01X85188Y49408D01*
G01X85219Y49445D01*
G01X85249Y49483D01*
G01X85276Y49523D01*
G01X85303Y49564D01*
G01X85328Y49606D01*
G01X85351Y49649D01*
G01X85371Y49693D01*
G01X85390Y49737D01*
G01X85408Y49783D01*
G01X85423Y49829D01*
G01X85436Y49876D01*
G01X85447Y49923D01*
G01X85457Y49971D01*
G01X85464Y50019D01*
G01X85469Y50067D01*
G01X85472Y50116D01*
G01X85473Y50165D01*
G01X85472Y50213D01*
G01X85469Y50262D01*
G01X85464Y50310D01*
G01X85457Y50358D01*
G01X85447Y50406D01*
G01X85436Y50453D01*
G01X85423Y50500D01*
G01X85408Y50546D01*
G01X85390Y50592D01*
G01X85371Y50636D01*
G01X85351Y50680D01*
G01X85328Y50723D01*
G01X85303Y50765D01*
G01X85276Y50806D01*
G01X85249Y50846D01*
G01X85219Y50884D01*
G01X85188Y50921D01*
G01X85155Y50957D01*
G01X85120Y50992D01*
G01X85084Y51025D01*
G01X85047Y51056D01*
G01X85009Y51086D01*
G01X84969Y51113D01*
G01X84928Y51140D01*
G01X84886Y51165D01*
G01X84843Y51188D01*
G01X84799Y51208D01*
G01X84755Y51227D01*
G01X84709Y51245D01*
G01X84663Y51260D01*
G01X84616Y51273D01*
G01X84569Y51284D01*
G01X84521Y51294D01*
G01X84473Y51301D01*
G01X84425Y51306D01*
G01X84376Y51309D01*
G37*
G36*
G01X84836Y85088D02*
G01X43815Y85088D01*
G01X43781Y85087D01*
G01X43748Y85084D01*
G01X43715Y85078D01*
G01X43683Y85071D01*
G01X43651Y85061D01*
G01X43620Y85049D01*
G01X43590Y85036D01*
G01X43561Y85020D01*
G01X43533Y85003D01*
G01X43506Y84983D01*
G01X43481Y84963D01*
G01X43456Y84940D01*
G01X40523Y82006D01*
G01X40500Y81982D01*
G01X40479Y81956D01*
G01X40460Y81929D01*
G01X40442Y81901D01*
G01X40427Y81872D01*
G01X40413Y81842D01*
G01X40401Y81811D01*
G01X40392Y81779D01*
G01X40384Y81747D01*
G01X40379Y81714D01*
G01X40375Y81681D01*
G01X40374Y81648D01*
G01X40374Y70077D01*
G01X40373Y70062D01*
G01X40370Y70048D01*
G01X40365Y70034D01*
G01X40358Y70022D01*
G01X40349Y70010D01*
G01X40339Y70000D01*
G01X40328Y69991D01*
G01X40315Y69984D01*
G01X40301Y69979D01*
G01X40287Y69976D01*
G01X40273Y69975D01*
G01X22693Y69975D01*
G01X22679Y69976D01*
G01X22665Y69979D01*
G01X22651Y69984D01*
G01X22639Y69991D01*
G01X22627Y70000D01*
G01X22617Y70010D01*
G01X22608Y70022D01*
G01X22601Y70034D01*
G01X22596Y70048D01*
G01X22593Y70062D01*
G01X22592Y70077D01*
G01X22592Y70468D01*
G01X22591Y70492D01*
G01X22588Y70515D01*
G01X22582Y70539D01*
G01X22575Y70561D01*
G01X22565Y70583D01*
G01X22554Y70603D01*
G01X22540Y70623D01*
G01X22525Y70641D01*
G01X22508Y70658D01*
G01X22490Y70673D01*
G01X22470Y70687D01*
G01X22450Y70698D01*
G01X22428Y70708D01*
G01X22406Y70715D01*
G01X22382Y70721D01*
G01X22359Y70724D01*
G01X22336Y70725D01*
G01X22005Y70725D01*
G01X21990Y70726D01*
G01X21976Y70729D01*
G01X21962Y70734D01*
G01X21950Y70741D01*
G01X21938Y70750D01*
G01X21928Y70760D01*
G01X21919Y70772D01*
G01X21912Y70784D01*
G01X21907Y70798D01*
G01X21904Y70812D01*
G01X21903Y70827D01*
G01X21904Y70842D01*
G01X21908Y70857D01*
G01X21913Y70871D01*
G01X21921Y70884D01*
G01X21930Y70896D01*
G01X21942Y70907D01*
G01X21955Y70915D01*
G01X21998Y70941D01*
G01X22041Y70969D01*
G01X22083Y70999D01*
G01X22123Y71030D01*
G01X22163Y71062D01*
G01X22200Y71097D01*
G01X22236Y71133D01*
G01X22271Y71170D01*
G01X22304Y71208D01*
G01X22336Y71249D01*
G01X22366Y71290D01*
G01X22395Y71332D01*
G01X22421Y71376D01*
G01X22446Y71420D01*
G01X22469Y71466D01*
G01X22490Y71512D01*
G01X22509Y71559D01*
G01X22526Y71608D01*
G01X22541Y71656D01*
G01X22555Y71705D01*
G01X22566Y71755D01*
G01X22576Y71805D01*
G01X22583Y71856D01*
G01X22588Y71906D01*
G01X22591Y71958D01*
G01X22592Y72009D01*
G01X22591Y72059D01*
G01X22588Y72110D01*
G01X22583Y72160D01*
G01X22576Y72210D01*
G01X22567Y72260D01*
G01X22556Y72309D01*
G01X22543Y72358D01*
G01X22511Y72454D01*
G01X22492Y72501D01*
G01X22471Y72547D01*
G01X22448Y72592D01*
G01X22424Y72637D01*
G01X22398Y72680D01*
G01X22370Y72722D01*
G01X22340Y72763D01*
G01X22309Y72803D01*
G01X22276Y72842D01*
G01X22242Y72879D01*
G01X22206Y72915D01*
G01X22169Y72949D01*
G01X22130Y72982D01*
G01X22090Y73013D01*
G01X22049Y73043D01*
G01X22007Y73071D01*
G01X21964Y73097D01*
G01X21919Y73121D01*
G01X21874Y73144D01*
G01X21828Y73165D01*
G01X21781Y73184D01*
G01X21685Y73216D01*
G01X21636Y73229D01*
G01X21587Y73240D01*
G01X21537Y73249D01*
G01X21487Y73256D01*
G01X21437Y73261D01*
G01X21386Y73264D01*
G01X21336Y73265D01*
G01X21285Y73264D01*
G01X21234Y73261D01*
G01X21184Y73256D01*
G01X21134Y73249D01*
G01X21084Y73240D01*
G01X21035Y73229D01*
G01X20986Y73216D01*
G01X20890Y73184D01*
G01X20843Y73165D01*
G01X20797Y73144D01*
G01X20752Y73121D01*
G01X20707Y73097D01*
G01X20664Y73071D01*
G01X20622Y73043D01*
G01X20581Y73013D01*
G01X20541Y72982D01*
G01X20502Y72949D01*
G01X20465Y72915D01*
G01X20429Y72879D01*
G01X20395Y72842D01*
G01X20362Y72803D01*
G01X20331Y72763D01*
G01X20301Y72722D01*
G01X20273Y72680D01*
G01X20247Y72637D01*
G01X20223Y72592D01*
G01X20200Y72547D01*
G01X20179Y72501D01*
G01X20160Y72454D01*
G01X20128Y72358D01*
G01X20115Y72309D01*
G01X20104Y72260D01*
G01X20095Y72210D01*
G01X20088Y72160D01*
G01X20083Y72110D01*
G01X20080Y72059D01*
G01X20079Y72009D01*
G01X20080Y71958D01*
G01X20083Y71906D01*
G01X20088Y71856D01*
G01X20095Y71805D01*
G01X20105Y71755D01*
G01X20116Y71705D01*
G01X20130Y71656D01*
G01X20145Y71608D01*
G01X20162Y71559D01*
G01X20181Y71512D01*
G01X20202Y71466D01*
G01X20225Y71420D01*
G01X20250Y71376D01*
G01X20276Y71332D01*
G01X20305Y71290D01*
G01X20335Y71249D01*
G01X20367Y71208D01*
G01X20400Y71170D01*
G01X20435Y71133D01*
G01X20471Y71097D01*
G01X20508Y71062D01*
G01X20548Y71030D01*
G01X20588Y70999D01*
G01X20630Y70969D01*
G01X20673Y70941D01*
G01X20716Y70915D01*
G01X20729Y70907D01*
G01X20741Y70896D01*
G01X20750Y70884D01*
G01X20758Y70871D01*
G01X20763Y70857D01*
G01X20767Y70842D01*
G01X20768Y70826D01*
G01X20767Y70812D01*
G01X20764Y70798D01*
G01X20759Y70784D01*
G01X20752Y70772D01*
G01X20743Y70760D01*
G01X20733Y70750D01*
G01X20721Y70741D01*
G01X20709Y70734D01*
G01X20695Y70729D01*
G01X20681Y70726D01*
G01X20666Y70725D01*
G01X20336Y70725D01*
G01X20312Y70724D01*
G01X20289Y70721D01*
G01X20265Y70715D01*
G01X20243Y70708D01*
G01X20221Y70698D01*
G01X20201Y70687D01*
G01X20181Y70673D01*
G01X20163Y70658D01*
G01X20146Y70641D01*
G01X20131Y70623D01*
G01X20117Y70603D01*
G01X20106Y70583D01*
G01X20096Y70561D01*
G01X20089Y70539D01*
G01X20083Y70515D01*
G01X20080Y70492D01*
G01X20079Y70468D01*
G01X20079Y68468D01*
G01X20080Y68445D01*
G01X20083Y68422D01*
G01X20089Y68398D01*
G01X20096Y68376D01*
G01X20106Y68354D01*
G01X20117Y68334D01*
G01X20131Y68314D01*
G01X20146Y68296D01*
G01X20163Y68279D01*
G01X20181Y68264D01*
G01X20201Y68250D01*
G01X20221Y68239D01*
G01X20243Y68229D01*
G01X20265Y68222D01*
G01X20289Y68216D01*
G01X20312Y68213D01*
G01X20336Y68212D01*
G01X22336Y68212D01*
G01X22359Y68213D01*
G01X22382Y68216D01*
G01X22406Y68222D01*
G01X22428Y68229D01*
G01X22450Y68239D01*
G01X22470Y68250D01*
G01X22490Y68264D01*
G01X22508Y68279D01*
G01X22525Y68296D01*
G01X22540Y68314D01*
G01X22554Y68334D01*
G01X22565Y68354D01*
G01X22575Y68376D01*
G01X22582Y68398D01*
G01X22588Y68422D01*
G01X22591Y68445D01*
G01X22592Y68468D01*
G01X22592Y68860D01*
G01X22593Y68875D01*
G01X22596Y68889D01*
G01X22601Y68903D01*
G01X22608Y68915D01*
G01X22617Y68927D01*
G01X22627Y68937D01*
G01X22639Y68946D01*
G01X22651Y68953D01*
G01X22665Y68958D01*
G01X22679Y68961D01*
G01X22693Y68962D01*
G01X40273Y68962D01*
G01X40287Y68961D01*
G01X40301Y68958D01*
G01X40315Y68953D01*
G01X40328Y68946D01*
G01X40339Y68937D01*
G01X40349Y68927D01*
G01X40358Y68915D01*
G01X40365Y68903D01*
G01X40370Y68889D01*
G01X40373Y68875D01*
G01X40374Y68860D01*
G01X40374Y61226D01*
G01X40375Y61193D01*
G01X40379Y61160D01*
G01X40384Y61127D01*
G01X40392Y61095D01*
G01X40401Y61063D01*
G01X40413Y61032D01*
G01X40427Y61002D01*
G01X40442Y60973D01*
G01X40460Y60945D01*
G01X40479Y60918D01*
G01X40500Y60892D01*
G01X40523Y60868D01*
G01X44167Y57224D01*
G01X44178Y57211D01*
G01X44186Y57198D01*
G01X44192Y57183D01*
G01X44196Y57167D01*
G01X44197Y57152D01*
G01X44197Y55626D01*
G01X44198Y55592D01*
G01X44201Y55559D01*
G01X44207Y55526D01*
G01X44214Y55494D01*
G01X44224Y55462D01*
G01X44236Y55431D01*
G01X44249Y55401D01*
G01X44265Y55372D01*
G01X44282Y55344D01*
G01X44302Y55317D01*
G01X44323Y55292D01*
G01X44345Y55267D01*
G01X45310Y54303D01*
G01X45321Y54290D01*
G01X45329Y54277D01*
G01X45335Y54262D01*
G01X45339Y54246D01*
G01X45340Y54231D01*
G01X45340Y53654D01*
G01X45339Y53640D01*
G01X45336Y53626D01*
G01X45331Y53612D01*
G01X45324Y53600D01*
G01X45315Y53588D01*
G01X45305Y53578D01*
G01X45293Y53569D01*
G01X45281Y53562D01*
G01X45267Y53557D01*
G01X45253Y53554D01*
G01X45238Y53553D01*
G01X44886Y53553D01*
G01X44863Y53552D01*
G01X44839Y53549D01*
G01X44816Y53543D01*
G01X44794Y53536D01*
G01X44772Y53526D01*
G01X44751Y53515D01*
G01X44732Y53501D01*
G01X44714Y53486D01*
G01X44697Y53470D01*
G01X44682Y53451D01*
G01X44668Y53431D01*
G01X44657Y53411D01*
G01X44647Y53389D01*
G01X44640Y53367D01*
G01X44634Y53344D01*
G01X44631Y53320D01*
G01X44630Y53296D01*
G01X44630Y51097D01*
G01X44631Y51073D01*
G01X44634Y51049D01*
G01X44640Y51026D01*
G01X44647Y51004D01*
G01X44657Y50982D01*
G01X44668Y50962D01*
G01X44682Y50942D01*
G01X44697Y50923D01*
G01X44714Y50907D01*
G01X44732Y50892D01*
G01X44751Y50878D01*
G01X44772Y50867D01*
G01X44794Y50857D01*
G01X44816Y50850D01*
G01X44839Y50844D01*
G01X44863Y50841D01*
G01X44886Y50840D01*
G01X45094Y50840D01*
G01X45108Y50839D01*
G01X45122Y50836D01*
G01X45136Y50831D01*
G01X45149Y50824D01*
G01X45160Y50815D01*
G01X45170Y50805D01*
G01X45179Y50793D01*
G01X45186Y50781D01*
G01X45191Y50767D01*
G01X45194Y50753D01*
G01X45195Y50739D01*
G01X45194Y50722D01*
G01X45190Y50707D01*
G01X45184Y50691D01*
G01X45175Y50678D01*
G01X45164Y50665D01*
G01X45152Y50655D01*
G01X45110Y50625D01*
G01X45071Y50594D01*
G01X45033Y50561D01*
G01X44996Y50526D01*
G01X44960Y50490D01*
G01X44926Y50452D01*
G01X44894Y50413D01*
G01X44864Y50373D01*
G01X44834Y50331D01*
G01X44807Y50288D01*
G01X44782Y50245D01*
G01X44758Y50200D01*
G01X45303Y50200D01*
G01X45303Y50739D01*
G01X45304Y50753D01*
G01X45307Y50767D01*
G01X45312Y50781D01*
G01X45319Y50793D01*
G01X45328Y50805D01*
G01X45338Y50815D01*
G01X45350Y50824D01*
G01X45362Y50831D01*
G01X45376Y50836D01*
G01X45390Y50839D01*
G01X45405Y50840D01*
G01X46288Y50840D01*
G01X46303Y50839D01*
G01X46317Y50836D01*
G01X46331Y50831D01*
G01X46343Y50824D01*
G01X46355Y50815D01*
G01X46365Y50805D01*
G01X46374Y50793D01*
G01X46381Y50781D01*
G01X46386Y50767D01*
G01X46389Y50753D01*
G01X46390Y50739D01*
G01X46390Y50200D01*
G01X46935Y50200D01*
G01X46911Y50245D01*
G01X46886Y50288D01*
G01X46859Y50331D01*
G01X46829Y50373D01*
G01X46799Y50413D01*
G01X46767Y50452D01*
G01X46733Y50490D01*
G01X46697Y50526D01*
G01X46660Y50561D01*
G01X46622Y50594D01*
G01X46583Y50625D01*
G01X46541Y50655D01*
G01X46529Y50665D01*
G01X46518Y50678D01*
G01X46509Y50691D01*
G01X46503Y50707D01*
G01X46499Y50722D01*
G01X46498Y50739D01*
G01X46499Y50753D01*
G01X46502Y50767D01*
G01X46507Y50781D01*
G01X46514Y50793D01*
G01X46523Y50805D01*
G01X46533Y50815D01*
G01X46544Y50824D01*
G01X46557Y50831D01*
G01X46571Y50836D01*
G01X46585Y50839D01*
G01X46599Y50840D01*
G01X46807Y50840D01*
G01X46830Y50841D01*
G01X46854Y50844D01*
G01X46877Y50850D01*
G01X46899Y50857D01*
G01X46921Y50867D01*
G01X46942Y50878D01*
G01X46961Y50892D01*
G01X46979Y50907D01*
G01X46996Y50923D01*
G01X47011Y50942D01*
G01X47025Y50962D01*
G01X47036Y50982D01*
G01X47046Y51004D01*
G01X47053Y51026D01*
G01X47059Y51049D01*
G01X47062Y51073D01*
G01X47063Y51097D01*
G01X47063Y53296D01*
G01X47062Y53320D01*
G01X47059Y53344D01*
G01X47053Y53367D01*
G01X47046Y53389D01*
G01X47036Y53411D01*
G01X47025Y53431D01*
G01X47011Y53451D01*
G01X46996Y53470D01*
G01X46979Y53486D01*
G01X46961Y53501D01*
G01X46942Y53515D01*
G01X46921Y53526D01*
G01X46899Y53536D01*
G01X46877Y53543D01*
G01X46854Y53549D01*
G01X46830Y53552D01*
G01X46807Y53553D01*
G01X46455Y53553D01*
G01X46440Y53554D01*
G01X46426Y53557D01*
G01X46412Y53562D01*
G01X46400Y53569D01*
G01X46388Y53578D01*
G01X46378Y53588D01*
G01X46369Y53600D01*
G01X46362Y53612D01*
G01X46357Y53626D01*
G01X46354Y53640D01*
G01X46353Y53654D01*
G01X46353Y54483D01*
G01X46352Y54516D01*
G01X46349Y54549D01*
G01X46343Y54582D01*
G01X46336Y54614D01*
G01X46326Y54646D01*
G01X46314Y54677D01*
G01X46301Y54707D01*
G01X46285Y54736D01*
G01X46268Y54764D01*
G01X46248Y54791D01*
G01X46228Y54816D01*
G01X46205Y54841D01*
G01X45240Y55805D01*
G01X45229Y55818D01*
G01X45221Y55831D01*
G01X45215Y55846D01*
G01X45212Y55862D01*
G01X45210Y55877D01*
G01X45210Y57404D01*
G01X45209Y57437D01*
G01X45206Y57470D01*
G01X45200Y57503D01*
G01X45193Y57535D01*
G01X45183Y57567D01*
G01X45171Y57598D01*
G01X45158Y57628D01*
G01X45142Y57657D01*
G01X45125Y57685D01*
G01X45105Y57712D01*
G01X45085Y57737D01*
G01X45062Y57762D01*
G01X43193Y59631D01*
G01X43183Y59643D01*
G01X43174Y59656D01*
G01X43168Y59671D01*
G01X43164Y59686D01*
G01X43163Y59702D01*
G01X43164Y59717D01*
G01X43167Y59731D01*
G01X43172Y59744D01*
G01X43180Y59757D01*
G01X43188Y59769D01*
G01X43198Y59779D01*
G01X43210Y59788D01*
G01X43223Y59795D01*
G01X43236Y59800D01*
G01X43250Y59803D01*
G01X43265Y59804D01*
G01X43281Y59803D01*
G01X43357Y59792D01*
G01X43434Y59784D01*
G01X43510Y59779D01*
G01X43586Y59778D01*
G01X43649Y59779D01*
G01X43711Y59782D01*
G01X43773Y59787D01*
G01X43835Y59794D01*
G01X43897Y59803D01*
G01X43959Y59814D01*
G01X44020Y59828D01*
G01X44080Y59843D01*
G01X44140Y59860D01*
G01X44200Y59879D01*
G01X44258Y59900D01*
G01X44316Y59923D01*
G01X44374Y59948D01*
G01X44430Y59974D01*
G01X44486Y60003D01*
G01X44540Y60033D01*
G01X44594Y60065D01*
G01X44646Y60099D01*
G01X44697Y60135D01*
G01X44748Y60172D01*
G01X44796Y60211D01*
G01X44844Y60251D01*
G01X44890Y60294D01*
G01X44935Y60337D01*
G01X44979Y60381D01*
G01X45061Y60475D01*
G01X45100Y60524D01*
G01X45137Y60574D01*
G01X45172Y60626D01*
G01X45206Y60678D01*
G01X45238Y60732D01*
G01X45269Y60786D01*
G01X45297Y60842D01*
G01X45324Y60898D01*
G01X45349Y60955D01*
G01X45372Y61013D01*
G01X45393Y61072D01*
G01X45412Y61132D01*
G01X45429Y61192D01*
G01X45444Y61252D01*
G01X45457Y61314D01*
G01X45469Y61375D01*
G01X45478Y61437D01*
G01X45485Y61498D01*
G01X45490Y61561D01*
G01X45493Y61623D01*
G01X45494Y61685D01*
G01X45493Y61748D01*
G01X45490Y61810D01*
G01X45485Y61872D01*
G01X45478Y61934D01*
G01X45469Y61996D01*
G01X45457Y62058D01*
G01X45444Y62119D01*
G01X45429Y62179D01*
G01X45412Y62239D01*
G01X45393Y62299D01*
G01X45372Y62358D01*
G01X45349Y62415D01*
G01X45324Y62473D01*
G01X45297Y62529D01*
G01X45269Y62585D01*
G01X45238Y62639D01*
G01X45206Y62693D01*
G01X45172Y62745D01*
G01X45137Y62796D01*
G01X45100Y62847D01*
G01X45061Y62895D01*
G01X45020Y62943D01*
G01X44979Y62989D01*
G01X44935Y63034D01*
G01X44890Y63078D01*
G01X44844Y63120D01*
G01X44796Y63160D01*
G01X44748Y63199D01*
G01X44697Y63236D01*
G01X44646Y63271D01*
G01X44594Y63305D01*
G01X44540Y63337D01*
G01X44486Y63368D01*
G01X44430Y63396D01*
G01X44374Y63423D01*
G01X44316Y63448D01*
G01X44258Y63471D01*
G01X44200Y63492D01*
G01X44140Y63511D01*
G01X44080Y63528D01*
G01X44020Y63543D01*
G01X43959Y63556D01*
G01X43897Y63568D01*
G01X43835Y63577D01*
G01X43773Y63584D01*
G01X43711Y63589D01*
G01X43649Y63592D01*
G01X43586Y63593D01*
G01X43524Y63592D01*
G01X43462Y63589D01*
G01X43399Y63584D01*
G01X43337Y63577D01*
G01X43276Y63568D01*
G01X43215Y63556D01*
G01X43154Y63543D01*
G01X43093Y63528D01*
G01X43033Y63511D01*
G01X42973Y63492D01*
G01X42915Y63471D01*
G01X42856Y63448D01*
G01X42799Y63423D01*
G01X42743Y63396D01*
G01X42687Y63368D01*
G01X42633Y63337D01*
G01X42579Y63305D01*
G01X42527Y63271D01*
G01X42475Y63236D01*
G01X42425Y63199D01*
G01X42376Y63160D01*
G01X42329Y63120D01*
G01X42282Y63078D01*
G01X42238Y63034D01*
G01X42194Y62989D01*
G01X42152Y62943D01*
G01X42112Y62895D01*
G01X42073Y62847D01*
G01X42036Y62796D01*
G01X42000Y62745D01*
G01X41966Y62693D01*
G01X41934Y62639D01*
G01X41904Y62585D01*
G01X41875Y62529D01*
G01X41849Y62473D01*
G01X41824Y62415D01*
G01X41801Y62358D01*
G01X41780Y62299D01*
G01X41761Y62239D01*
G01X41744Y62179D01*
G01X41729Y62119D01*
G01X41715Y62058D01*
G01X41704Y61996D01*
G01X41695Y61934D01*
G01X41688Y61872D01*
G01X41683Y61810D01*
G01X41680Y61748D01*
G01X41679Y61685D01*
G01X41680Y61609D01*
G01X41685Y61533D01*
G01X41693Y61456D01*
G01X41704Y61380D01*
G01X41705Y61364D01*
G01X41704Y61349D01*
G01X41701Y61335D01*
G01X41696Y61322D01*
G01X41689Y61309D01*
G01X41680Y61297D01*
G01X41670Y61287D01*
G01X41658Y61279D01*
G01X41645Y61271D01*
G01X41632Y61266D01*
G01X41618Y61263D01*
G01X41603Y61262D01*
G01X41587Y61263D01*
G01X41572Y61267D01*
G01X41557Y61273D01*
G01X41544Y61282D01*
G01X41532Y61292D01*
G01X41417Y61406D01*
G01X41407Y61418D01*
G01X41398Y61432D01*
G01X41392Y61447D01*
G01X41389Y61462D01*
G01X41387Y61478D01*
G01X41387Y68987D01*
G01X41388Y69002D01*
G01X41391Y69016D01*
G01X41396Y69030D01*
G01X41412Y69054D01*
G01X41422Y69064D01*
G01X41434Y69073D01*
G01X41447Y69080D01*
G01X41460Y69085D01*
G01X41475Y69088D01*
G01X41489Y69089D01*
G01X44521Y69089D01*
G01X44536Y69088D01*
G01X44550Y69085D01*
G01X44563Y69080D01*
G01X44576Y69073D01*
G01X44588Y69064D01*
G01X44598Y69054D01*
G01X44614Y69030D01*
G01X44637Y68981D01*
G01X44662Y68934D01*
G01X44689Y68888D01*
G01X44718Y68843D01*
G01X44749Y68798D01*
G01X44781Y68756D01*
G01X44815Y68714D01*
G01X44851Y68674D01*
G01X44888Y68635D01*
G01X44927Y68598D01*
G01X44967Y68563D01*
G01X45009Y68529D01*
G01X45051Y68496D01*
G01X45096Y68466D01*
G01X45141Y68437D01*
G01X45188Y68410D01*
G01X45235Y68384D01*
G01X45283Y68362D01*
G01X45332Y68340D01*
G01X45383Y68321D01*
G01X45433Y68303D01*
G01X45485Y68288D01*
G01X45537Y68275D01*
G01X45589Y68264D01*
G01X45642Y68254D01*
G01X45710Y68246D01*
G01X45778Y68241D01*
G01X45847Y68239D01*
G01X45915Y68241D01*
G01X45983Y68246D01*
G01X46051Y68254D01*
G01X46103Y68264D01*
G01X46155Y68275D01*
G01X46208Y68288D01*
G01X46258Y68303D01*
G01X46309Y68320D01*
G01X46359Y68340D01*
G01X46408Y68361D01*
G01X46457Y68384D01*
G01X46504Y68409D01*
G01X46550Y68436D01*
G01X46595Y68464D01*
G01X46639Y68495D01*
G01X46682Y68527D01*
G01X46724Y68561D01*
G01X46764Y68596D01*
G01X46803Y68633D01*
G01X46840Y68671D01*
G01X46875Y68712D01*
G01X46909Y68753D01*
G01X46942Y68795D01*
G01X46973Y68839D01*
G01X47002Y68884D01*
G01X47029Y68930D01*
G01X47054Y68977D01*
G01X47077Y69026D01*
G01X47099Y69074D01*
G01X47119Y69124D01*
G01X47136Y69174D01*
G01X47152Y69226D01*
G01X47165Y69277D01*
G01X47177Y69330D01*
G01X47186Y69382D01*
G01X47194Y69435D01*
G01X47199Y69489D01*
G01X47202Y69542D01*
G01X47203Y69596D01*
G01X47202Y69649D01*
G01X47199Y69702D01*
G01X47194Y69755D01*
G01X47187Y69807D01*
G01X47177Y69859D01*
G01X47166Y69911D01*
G01X47153Y69963D01*
G01X47137Y70014D01*
G01X47120Y70064D01*
G01X47100Y70113D01*
G01X47079Y70162D01*
G01X47056Y70210D01*
G01X47031Y70256D01*
G01X47004Y70303D01*
G01X46976Y70347D01*
G01X46945Y70391D01*
G01X46913Y70433D01*
G01X46880Y70474D01*
G01X46845Y70514D01*
G01X46808Y70553D01*
G01X46770Y70590D01*
G01X46730Y70625D01*
G01X46689Y70659D01*
G01X46647Y70691D01*
G01X46603Y70721D01*
G01X46559Y70750D01*
G01X46513Y70777D01*
G01X46500Y70786D01*
G01X46489Y70796D01*
G01X46479Y70808D01*
G01X46471Y70821D01*
G01X46466Y70836D01*
G01X46463Y70850D01*
G01X46461Y70866D01*
G01X46463Y70881D01*
G01X46466Y70895D01*
G01X46471Y70910D01*
G01X46479Y70923D01*
G01X46489Y70935D01*
G01X46500Y70945D01*
G01X46513Y70954D01*
G01X46559Y70981D01*
G01X46603Y71010D01*
G01X46647Y71040D01*
G01X46689Y71073D01*
G01X46730Y71106D01*
G01X46770Y71142D01*
G01X46808Y71179D01*
G01X46845Y71217D01*
G01X46880Y71257D01*
G01X46914Y71298D01*
G01X46946Y71340D01*
G01X46976Y71384D01*
G01X47005Y71429D01*
G01X47031Y71475D01*
G01X47057Y71522D01*
G01X47079Y71570D01*
G01X47095Y71594D01*
G01X47105Y71604D01*
G01X47117Y71613D01*
G01X47130Y71620D01*
G01X47143Y71625D01*
G01X47157Y71628D01*
G01X47172Y71629D01*
G01X48516Y71629D01*
G01X48531Y71628D01*
G01X48547Y71624D01*
G01X48562Y71618D01*
G01X48575Y71610D01*
G01X48588Y71599D01*
G01X50898Y69289D01*
G01X50909Y69276D01*
G01X50917Y69263D01*
G01X50923Y69248D01*
G01X50927Y69232D01*
G01X50928Y69217D01*
G01X50928Y64770D01*
G01X50929Y64736D01*
G01X50932Y64703D01*
G01X50938Y64670D01*
G01X50945Y64638D01*
G01X50955Y64606D01*
G01X50967Y64575D01*
G01X50980Y64545D01*
G01X50996Y64516D01*
G01X51013Y64488D01*
G01X51033Y64461D01*
G01X51054Y64436D01*
G01X51076Y64411D01*
G01X52981Y62506D01*
G01X53006Y62484D01*
G01X53031Y62463D01*
G01X53058Y62443D01*
G01X53086Y62426D01*
G01X53115Y62410D01*
G01X53145Y62397D01*
G01X53176Y62385D01*
G01X53208Y62375D01*
G01X53240Y62368D01*
G01X53273Y62362D01*
G01X53306Y62359D01*
G01X53340Y62358D01*
G01X67762Y62358D01*
G01X67777Y62357D01*
G01X67791Y62354D01*
G01X67804Y62349D01*
G01X67817Y62342D01*
G01X67829Y62333D01*
G01X67839Y62323D01*
G01X67855Y62299D01*
G01X67877Y62251D01*
G01X67902Y62205D01*
G01X67929Y62159D01*
G01X67957Y62115D01*
G01X67987Y62071D01*
G01X68019Y62029D01*
G01X68052Y61988D01*
G01X68087Y61949D01*
G01X68123Y61910D01*
G01X68161Y61873D01*
G01X68201Y61838D01*
G01X68241Y61804D01*
G01X68283Y61772D01*
G01X68326Y61742D01*
G01X68370Y61713D01*
G01X68415Y61686D01*
G01X68462Y61661D01*
G01X68509Y61638D01*
G01X68557Y61616D01*
G01X68606Y61596D01*
G01X68656Y61578D01*
G01X68670Y61572D01*
G01X68684Y61564D01*
G01X68696Y61553D01*
G01X68706Y61542D01*
G01X68714Y61528D01*
G01X68720Y61513D01*
G01X68724Y61498D01*
G01X68725Y61482D01*
G01X68724Y61467D01*
G01X68721Y61452D01*
G01X68715Y61439D01*
G01X68708Y61425D01*
G01X68698Y61413D01*
G01X68687Y61403D01*
G01X68675Y61394D01*
G01X68661Y61388D01*
G01X68617Y61369D01*
G01X68573Y61348D01*
G01X68530Y61325D01*
G01X68488Y61300D01*
G01X68447Y61274D01*
G01X68407Y61246D01*
G01X68369Y61216D01*
G01X68331Y61185D01*
G01X68296Y61152D01*
G01X68261Y61117D01*
G01X68228Y61082D01*
G01X68196Y61045D01*
G01X68167Y61006D01*
G01X68139Y60967D01*
G01X68112Y60925D01*
G01X68088Y60884D01*
G01X68065Y60841D01*
G01X68044Y60797D01*
G01X68025Y60752D01*
G01X68007Y60707D01*
G01X67992Y60660D01*
G01X67979Y60614D01*
G01X67968Y60566D01*
G01X67958Y60518D01*
G01X67951Y60470D01*
G01X67946Y60422D01*
G01X67943Y60373D01*
G01X67942Y60325D01*
G01X67943Y60276D01*
G01X67946Y60227D01*
G01X67951Y60179D01*
G01X67958Y60131D01*
G01X67968Y60083D01*
G01X67979Y60036D01*
G01X67992Y59989D01*
G01X68007Y59943D01*
G01X68025Y59897D01*
G01X68044Y59853D01*
G01X68064Y59809D01*
G01X68087Y59766D01*
G01X68112Y59724D01*
G01X68139Y59683D01*
G01X68166Y59643D01*
G01X68196Y59605D01*
G01X68227Y59568D01*
G01X68260Y59532D01*
G01X68295Y59497D01*
G01X68331Y59464D01*
G01X68368Y59433D01*
G01X68406Y59403D01*
G01X68446Y59376D01*
G01X68487Y59349D01*
G01X68529Y59324D01*
G01X68572Y59301D01*
G01X68616Y59281D01*
G01X68660Y59262D01*
G01X68706Y59244D01*
G01X68752Y59229D01*
G01X68799Y59216D01*
G01X68846Y59205D01*
G01X68894Y59195D01*
G01X68942Y59188D01*
G01X68990Y59183D01*
G01X69039Y59180D01*
G01X69088Y59179D01*
G01X69136Y59180D01*
G01X69185Y59183D01*
G01X69233Y59188D01*
G01X69281Y59195D01*
G01X69329Y59205D01*
G01X69376Y59216D01*
G01X69423Y59229D01*
G01X69469Y59244D01*
G01X69515Y59262D01*
G01X69559Y59281D01*
G01X69603Y59301D01*
G01X69646Y59324D01*
G01X69688Y59349D01*
G01X69729Y59376D01*
G01X69769Y59403D01*
G01X69807Y59433D01*
G01X69844Y59464D01*
G01X69880Y59497D01*
G01X69915Y59532D01*
G01X69948Y59568D01*
G01X69979Y59605D01*
G01X70009Y59643D01*
G01X70036Y59683D01*
G01X70063Y59724D01*
G01X70088Y59766D01*
G01X70111Y59809D01*
G01X70131Y59853D01*
G01X70150Y59897D01*
G01X70168Y59943D01*
G01X70183Y59989D01*
G01X70196Y60036D01*
G01X70207Y60083D01*
G01X70217Y60131D01*
G01X70224Y60179D01*
G01X70229Y60227D01*
G01X70232Y60276D01*
G01X70233Y60325D01*
G01X70232Y60373D01*
G01X70229Y60422D01*
G01X70224Y60470D01*
G01X70217Y60518D01*
G01X70207Y60566D01*
G01X70196Y60614D01*
G01X70183Y60660D01*
G01X70168Y60707D01*
G01X70150Y60752D01*
G01X70131Y60797D01*
G01X70110Y60841D01*
G01X70087Y60884D01*
G01X70063Y60925D01*
G01X70036Y60967D01*
G01X70008Y61006D01*
G01X69979Y61045D01*
G01X69947Y61082D01*
G01X69914Y61117D01*
G01X69879Y61152D01*
G01X69844Y61185D01*
G01X69806Y61216D01*
G01X69768Y61246D01*
G01X69728Y61274D01*
G01X69687Y61300D01*
G01X69645Y61325D01*
G01X69602Y61348D01*
G01X69558Y61369D01*
G01X69514Y61388D01*
G01X69500Y61394D01*
G01X69488Y61403D01*
G01X69477Y61413D01*
G01X69467Y61425D01*
G01X69460Y61439D01*
G01X69454Y61452D01*
G01X69451Y61467D01*
G01X69450Y61482D01*
G01X69451Y61498D01*
G01X69455Y61513D01*
G01X69461Y61528D01*
G01X69469Y61542D01*
G01X69479Y61553D01*
G01X69491Y61564D01*
G01X69505Y61572D01*
G01X69519Y61578D01*
G01X69569Y61596D01*
G01X69618Y61616D01*
G01X69666Y61638D01*
G01X69713Y61661D01*
G01X69760Y61686D01*
G01X69805Y61713D01*
G01X69850Y61742D01*
G01X69893Y61773D01*
G01X69935Y61805D01*
G01X69975Y61839D01*
G01X70015Y61874D01*
G01X70053Y61911D01*
G01X70089Y61950D01*
G01X70124Y61989D01*
G01X70157Y62030D01*
G01X70189Y62073D01*
G01X70219Y62116D01*
G01X70247Y62160D01*
G01X70274Y62206D01*
G01X70299Y62253D01*
G01X70321Y62301D01*
G01X70342Y62349D01*
G01X70362Y62399D01*
G01X70379Y62448D01*
G01X70394Y62499D01*
G01X70407Y62550D01*
G01X70418Y62602D01*
G01X70428Y62654D01*
G01X70435Y62707D01*
G01X70440Y62759D01*
G01X70443Y62812D01*
G01X70444Y62865D01*
G01X70443Y62918D01*
G01X70440Y62971D01*
G01X70435Y63024D01*
G01X70428Y63076D01*
G01X70418Y63128D01*
G01X70407Y63180D01*
G01X70394Y63232D01*
G01X70378Y63283D01*
G01X70361Y63333D01*
G01X70341Y63382D01*
G01X70320Y63431D01*
G01X70297Y63479D01*
G01X70272Y63525D01*
G01X70245Y63572D01*
G01X70217Y63616D01*
G01X70186Y63660D01*
G01X70154Y63702D01*
G01X70121Y63743D01*
G01X70086Y63783D01*
G01X70049Y63822D01*
G01X70011Y63859D01*
G01X69971Y63894D01*
G01X69930Y63928D01*
G01X69888Y63960D01*
G01X69844Y63990D01*
G01X69800Y64019D01*
G01X69754Y64046D01*
G01X69741Y64055D01*
G01X69730Y64065D01*
G01X69720Y64077D01*
G01X69712Y64090D01*
G01X69707Y64105D01*
G01X69704Y64119D01*
G01X69702Y64135D01*
G01X69704Y64150D01*
G01X69707Y64164D01*
G01X69712Y64179D01*
G01X69720Y64192D01*
G01X69730Y64204D01*
G01X69741Y64214D01*
G01X69754Y64223D01*
G01X69800Y64250D01*
G01X69844Y64279D01*
G01X69888Y64309D01*
G01X69930Y64342D01*
G01X69971Y64375D01*
G01X70011Y64411D01*
G01X70049Y64448D01*
G01X70086Y64486D01*
G01X70121Y64526D01*
G01X70155Y64567D01*
G01X70187Y64609D01*
G01X70217Y64653D01*
G01X70246Y64698D01*
G01X70272Y64744D01*
G01X70298Y64791D01*
G01X70320Y64839D01*
G01X70336Y64863D01*
G01X70346Y64873D01*
G01X70358Y64882D01*
G01X70371Y64889D01*
G01X70384Y64894D01*
G01X70398Y64897D01*
G01X70413Y64898D01*
G01X70612Y64898D01*
G01X70645Y64899D01*
G01X70678Y64902D01*
G01X70711Y64908D01*
G01X70743Y64915D01*
G01X70775Y64925D01*
G01X70806Y64937D01*
G01X70836Y64950D01*
G01X70865Y64966D01*
G01X70893Y64983D01*
G01X70920Y65003D01*
G01X70945Y65024D01*
G01X70970Y65046D01*
G01X74272Y68348D01*
G01X74295Y68373D01*
G01X74315Y68398D01*
G01X74335Y68425D01*
G01X74352Y68453D01*
G01X74368Y68482D01*
G01X74381Y68512D01*
G01X74393Y68543D01*
G01X74403Y68575D01*
G01X74410Y68607D01*
G01X74416Y68640D01*
G01X74419Y68673D01*
G01X74420Y68707D01*
G01X74420Y78867D01*
G01X74419Y78900D01*
G01X74416Y78933D01*
G01X74410Y78966D01*
G01X74403Y78998D01*
G01X74393Y79030D01*
G01X74381Y79061D01*
G01X74368Y79091D01*
G01X74352Y79120D01*
G01X74335Y79148D01*
G01X74315Y79175D01*
G01X74295Y79200D01*
G01X74272Y79225D01*
G01X71097Y82400D01*
G01X71072Y82423D01*
G01X71047Y82443D01*
G01X71020Y82463D01*
G01X70992Y82480D01*
G01X70963Y82496D01*
G01X70933Y82509D01*
G01X70902Y82521D01*
G01X70870Y82531D01*
G01X70838Y82538D01*
G01X70805Y82544D01*
G01X70772Y82547D01*
G01X70739Y82548D01*
G01X55626Y82548D01*
G01X55592Y82547D01*
G01X55559Y82544D01*
G01X55526Y82538D01*
G01X55494Y82531D01*
G01X55462Y82521D01*
G01X55431Y82509D01*
G01X55401Y82496D01*
G01X55372Y82480D01*
G01X55344Y82463D01*
G01X55317Y82443D01*
G01X55292Y82423D01*
G01X55267Y82400D01*
G01X50493Y77625D01*
G01X50480Y77614D01*
G01X50467Y77606D01*
G01X50452Y77600D01*
G01X50436Y77597D01*
G01X50421Y77595D01*
G01X47223Y77595D01*
G01X47207Y77597D01*
G01X47192Y77600D01*
G01X47177Y77606D01*
G01X47164Y77614D01*
G01X47152Y77624D01*
G01X47142Y77636D01*
G01X47133Y77649D01*
G01X47127Y77663D01*
G01X47108Y77714D01*
G01X47088Y77764D01*
G01X47065Y77812D01*
G01X47040Y77861D01*
G01X47013Y77907D01*
G01X46985Y77954D01*
G01X46954Y77998D01*
G01X46922Y78042D01*
G01X46889Y78084D01*
G01X46853Y78125D01*
G01X46816Y78164D01*
G01X46778Y78202D01*
G01X46738Y78238D01*
G01X46696Y78273D01*
G01X46654Y78306D01*
G01X46610Y78337D01*
G01X46564Y78367D01*
G01X46518Y78394D01*
G01X46470Y78420D01*
G01X46422Y78444D01*
G01X46373Y78466D01*
G01X46322Y78486D01*
G01X46271Y78504D01*
G01X46220Y78520D01*
G01X46168Y78533D01*
G01X46115Y78545D01*
G01X46062Y78555D01*
G01X46008Y78562D01*
G01X45954Y78568D01*
G01X45900Y78571D01*
G01X45847Y78572D01*
G01X45793Y78571D01*
G01X45740Y78568D01*
G01X45687Y78563D01*
G01X45634Y78555D01*
G01X45582Y78546D01*
G01X45530Y78535D01*
G01X45478Y78521D01*
G01X45427Y78506D01*
G01X45377Y78488D01*
G01X45327Y78469D01*
G01X45279Y78447D01*
G01X45231Y78424D01*
G01X45184Y78399D01*
G01X45138Y78372D01*
G01X45093Y78343D01*
G01X45049Y78313D01*
G01X45007Y78281D01*
G01X44966Y78247D01*
G01X44925Y78212D01*
G01X44887Y78175D01*
G01X44850Y78137D01*
G01X44815Y78096D01*
G01X44781Y78055D01*
G01X44749Y78013D01*
G01X44719Y77969D01*
G01X44690Y77924D01*
G01X44663Y77878D01*
G01X44638Y77831D01*
G01X44615Y77783D01*
G01X44593Y77735D01*
G01X44574Y77685D01*
G01X44556Y77635D01*
G01X44541Y77584D01*
G01X44527Y77532D01*
G01X44516Y77480D01*
G01X44507Y77428D01*
G01X44499Y77375D01*
G01X44494Y77322D01*
G01X44491Y77269D01*
G01X44490Y77216D01*
G01X44491Y77162D01*
G01X44494Y77109D01*
G01X44499Y77056D01*
G01X44506Y77004D01*
G01X44516Y76952D01*
G01X44527Y76900D01*
G01X44540Y76848D01*
G01X44556Y76797D01*
G01X44573Y76747D01*
G01X44593Y76698D01*
G01X44614Y76649D01*
G01X44637Y76601D01*
G01X44662Y76555D01*
G01X44689Y76508D01*
G01X44717Y76464D01*
G01X44748Y76420D01*
G01X44780Y76378D01*
G01X44813Y76337D01*
G01X44848Y76297D01*
G01X44885Y76258D01*
G01X44923Y76221D01*
G01X44963Y76186D01*
G01X45004Y76152D01*
G01X45046Y76120D01*
G01X45090Y76090D01*
G01X45134Y76061D01*
G01X45180Y76034D01*
G01X45193Y76025D01*
G01X45204Y76015D01*
G01X45214Y76003D01*
G01X45222Y75990D01*
G01X45227Y75975D01*
G01X45230Y75961D01*
G01X45232Y75946D01*
G01X45230Y75930D01*
G01X45227Y75916D01*
G01X45222Y75901D01*
G01X45214Y75888D01*
G01X45204Y75876D01*
G01X45193Y75866D01*
G01X45180Y75857D01*
G01X45134Y75830D01*
G01X45090Y75801D01*
G01X45046Y75771D01*
G01X45004Y75739D01*
G01X44963Y75705D01*
G01X44923Y75670D01*
G01X44885Y75633D01*
G01X44848Y75594D01*
G01X44813Y75554D01*
G01X44780Y75513D01*
G01X44748Y75471D01*
G01X44717Y75427D01*
G01X44689Y75383D01*
G01X44662Y75336D01*
G01X44637Y75290D01*
G01X44614Y75242D01*
G01X44593Y75193D01*
G01X44573Y75144D01*
G01X44556Y75094D01*
G01X44540Y75043D01*
G01X44527Y74991D01*
G01X44516Y74939D01*
G01X44506Y74887D01*
G01X44499Y74835D01*
G01X44494Y74782D01*
G01X44491Y74729D01*
G01X44490Y74676D01*
G01X44491Y74622D01*
G01X44494Y74569D01*
G01X44499Y74516D01*
G01X44506Y74464D01*
G01X44516Y74412D01*
G01X44527Y74360D01*
G01X44540Y74308D01*
G01X44556Y74257D01*
G01X44573Y74207D01*
G01X44593Y74158D01*
G01X44614Y74109D01*
G01X44637Y74061D01*
G01X44662Y74015D01*
G01X44689Y73968D01*
G01X44717Y73924D01*
G01X44748Y73880D01*
G01X44780Y73838D01*
G01X44813Y73797D01*
G01X44848Y73757D01*
G01X44885Y73718D01*
G01X44923Y73681D01*
G01X44963Y73646D01*
G01X45004Y73612D01*
G01X45046Y73580D01*
G01X45090Y73550D01*
G01X45134Y73521D01*
G01X45180Y73494D01*
G01X45193Y73485D01*
G01X45204Y73475D01*
G01X45214Y73463D01*
G01X45222Y73450D01*
G01X45227Y73435D01*
G01X45230Y73421D01*
G01X45232Y73406D01*
G01X45230Y73390D01*
G01X45227Y73376D01*
G01X45222Y73361D01*
G01X45214Y73348D01*
G01X45204Y73336D01*
G01X45193Y73326D01*
G01X45180Y73317D01*
G01X45134Y73290D01*
G01X45090Y73261D01*
G01X45046Y73231D01*
G01X45004Y73199D01*
G01X44963Y73165D01*
G01X44923Y73130D01*
G01X44885Y73093D01*
G01X44848Y73054D01*
G01X44813Y73014D01*
G01X44780Y72973D01*
G01X44748Y72931D01*
G01X44717Y72887D01*
G01X44689Y72843D01*
G01X44662Y72796D01*
G01X44637Y72750D01*
G01X44614Y72702D01*
G01X44593Y72653D01*
G01X44573Y72604D01*
G01X44556Y72554D01*
G01X44540Y72503D01*
G01X44527Y72451D01*
G01X44516Y72399D01*
G01X44506Y72347D01*
G01X44499Y72295D01*
G01X44494Y72242D01*
G01X44491Y72189D01*
G01X44490Y72136D01*
G01X44491Y72082D01*
G01X44494Y72029D01*
G01X44499Y71976D01*
G01X44506Y71924D01*
G01X44516Y71872D01*
G01X44527Y71820D01*
G01X44540Y71768D01*
G01X44556Y71717D01*
G01X44573Y71667D01*
G01X44593Y71618D01*
G01X44614Y71569D01*
G01X44637Y71521D01*
G01X44662Y71475D01*
G01X44689Y71428D01*
G01X44717Y71384D01*
G01X44748Y71340D01*
G01X44780Y71298D01*
G01X44813Y71257D01*
G01X44848Y71217D01*
G01X44885Y71178D01*
G01X44923Y71141D01*
G01X44963Y71106D01*
G01X45004Y71072D01*
G01X45046Y71040D01*
G01X45090Y71010D01*
G01X45134Y70981D01*
G01X45180Y70954D01*
G01X45193Y70945D01*
G01X45204Y70935D01*
G01X45214Y70923D01*
G01X45222Y70910D01*
G01X45227Y70895D01*
G01X45230Y70881D01*
G01X45232Y70866D01*
G01X45230Y70850D01*
G01X45227Y70836D01*
G01X45222Y70821D01*
G01X45214Y70808D01*
G01X45204Y70796D01*
G01X45193Y70786D01*
G01X45180Y70777D01*
G01X45134Y70750D01*
G01X45090Y70721D01*
G01X45046Y70691D01*
G01X45004Y70658D01*
G01X44963Y70625D01*
G01X44923Y70589D01*
G01X44885Y70552D01*
G01X44848Y70514D01*
G01X44813Y70474D01*
G01X44779Y70433D01*
G01X44747Y70391D01*
G01X44717Y70347D01*
G01X44688Y70302D01*
G01X44662Y70256D01*
G01X44636Y70209D01*
G01X44614Y70161D01*
G01X44598Y70137D01*
G01X44588Y70127D01*
G01X44576Y70118D01*
G01X44563Y70111D01*
G01X44550Y70106D01*
G01X44536Y70103D01*
G01X44521Y70102D01*
G01X41489Y70102D01*
G01X41475Y70103D01*
G01X41460Y70106D01*
G01X41447Y70111D01*
G01X41434Y70118D01*
G01X41422Y70127D01*
G01X41412Y70137D01*
G01X41396Y70161D01*
G01X41391Y70175D01*
G01X41388Y70189D01*
G01X41387Y70204D01*
G01X41387Y81396D01*
G01X41389Y81412D01*
G01X41392Y81427D01*
G01X41398Y81442D01*
G01X41407Y81456D01*
G01X41417Y81468D01*
G01X43994Y84045D01*
G01X44007Y84056D01*
G01X44020Y84064D01*
G01X44035Y84070D01*
G01X44051Y84074D01*
G01X44066Y84075D01*
G01X84584Y84075D01*
G01X84599Y84074D01*
G01X84615Y84070D01*
G01X84630Y84064D01*
G01X84643Y84056D01*
G01X84656Y84045D01*
G01X86204Y82497D01*
G01X86215Y82484D01*
G01X86223Y82471D01*
G01X86229Y82456D01*
G01X86233Y82440D01*
G01X86234Y82425D01*
G01X86234Y81280D01*
G01X86235Y81246D01*
G01X86238Y81213D01*
G01X86244Y81180D01*
G01X86251Y81148D01*
G01X86261Y81116D01*
G01X86273Y81085D01*
G01X86286Y81055D01*
G01X86302Y81026D01*
G01X86319Y80998D01*
G01X86339Y80971D01*
G01X86360Y80946D01*
G01X86382Y80921D01*
G01X87855Y79449D01*
G01X87866Y79436D01*
G01X87874Y79423D01*
G01X87880Y79408D01*
G01X87884Y79392D01*
G01X87885Y79377D01*
G01X87885Y78841D01*
G01X87886Y78808D01*
G01X87889Y78775D01*
G01X87895Y78742D01*
G01X87902Y78710D01*
G01X87912Y78678D01*
G01X87924Y78647D01*
G01X87937Y78617D01*
G01X87953Y78588D01*
G01X87970Y78560D01*
G01X87990Y78533D01*
G01X88011Y78507D01*
G01X88033Y78483D01*
G01X92480Y74036D01*
G01X92491Y74024D01*
G01X92499Y74011D01*
G01X92505Y73996D01*
G01X92509Y73980D01*
G01X92510Y73964D01*
G01X92509Y73949D01*
G01X92505Y73933D01*
G01X92499Y73918D01*
G01X92491Y73904D01*
G01X92480Y73893D01*
G01X89609Y71021D01*
G01X89596Y71010D01*
G01X89583Y71002D01*
G01X89568Y70996D01*
G01X89552Y70993D01*
G01X89537Y70991D01*
G01X85653Y70991D01*
G01X85638Y70992D01*
G01X85624Y70995D01*
G01X85611Y71000D01*
G01X85598Y71007D01*
G01X85586Y71016D01*
G01X85576Y71026D01*
G01X85560Y71050D01*
G01X85538Y71098D01*
G01X85513Y71144D01*
G01X85486Y71190D01*
G01X85458Y71234D01*
G01X85428Y71278D01*
G01X85396Y71320D01*
G01X85363Y71361D01*
G01X85328Y71400D01*
G01X85292Y71439D01*
G01X85254Y71476D01*
G01X85214Y71511D01*
G01X85174Y71545D01*
G01X85132Y71577D01*
G01X85089Y71607D01*
G01X85045Y71636D01*
G01X85000Y71663D01*
G01X84953Y71688D01*
G01X84906Y71711D01*
G01X84858Y71733D01*
G01X84809Y71753D01*
G01X84759Y71771D01*
G01X84745Y71777D01*
G01X84731Y71785D01*
G01X84719Y71796D01*
G01X84709Y71807D01*
G01X84701Y71821D01*
G01X84695Y71836D01*
G01X84691Y71851D01*
G01X84690Y71867D01*
G01X84691Y71882D01*
G01X84694Y71897D01*
G01X84700Y71910D01*
G01X84707Y71924D01*
G01X84717Y71936D01*
G01X84728Y71946D01*
G01X84740Y71955D01*
G01X84754Y71961D01*
G01X84798Y71980D01*
G01X84842Y72001D01*
G01X84885Y72024D01*
G01X84927Y72049D01*
G01X84968Y72075D01*
G01X85008Y72103D01*
G01X85046Y72133D01*
G01X85084Y72164D01*
G01X85119Y72197D01*
G01X85154Y72232D01*
G01X85187Y72267D01*
G01X85219Y72304D01*
G01X85248Y72343D01*
G01X85276Y72382D01*
G01X85303Y72424D01*
G01X85327Y72465D01*
G01X85350Y72508D01*
G01X85371Y72552D01*
G01X85390Y72597D01*
G01X85408Y72642D01*
G01X85423Y72689D01*
G01X85436Y72735D01*
G01X85447Y72783D01*
G01X85457Y72831D01*
G01X85464Y72879D01*
G01X85469Y72927D01*
G01X85472Y72976D01*
G01X85473Y73025D01*
G01X85472Y73073D01*
G01X85469Y73122D01*
G01X85464Y73170D01*
G01X85457Y73218D01*
G01X85447Y73266D01*
G01X85436Y73313D01*
G01X85423Y73360D01*
G01X85408Y73406D01*
G01X85390Y73452D01*
G01X85371Y73496D01*
G01X85351Y73540D01*
G01X85328Y73583D01*
G01X85303Y73625D01*
G01X85276Y73666D01*
G01X85249Y73706D01*
G01X85219Y73744D01*
G01X85188Y73781D01*
G01X85155Y73817D01*
G01X85120Y73852D01*
G01X85084Y73885D01*
G01X85047Y73916D01*
G01X85009Y73946D01*
G01X84969Y73973D01*
G01X84928Y74000D01*
G01X84886Y74025D01*
G01X84843Y74048D01*
G01X84799Y74068D01*
G01X84755Y74087D01*
G01X84709Y74105D01*
G01X84663Y74120D01*
G01X84616Y74133D01*
G01X84569Y74144D01*
G01X84521Y74154D01*
G01X84473Y74161D01*
G01X84425Y74166D01*
G01X84376Y74169D01*
G01X84328Y74170D01*
G01X84279Y74169D01*
G01X84230Y74166D01*
G01X84182Y74161D01*
G01X84134Y74154D01*
G01X84086Y74144D01*
G01X84039Y74133D01*
G01X83992Y74120D01*
G01X83946Y74105D01*
G01X83900Y74087D01*
G01X83856Y74068D01*
G01X83812Y74048D01*
G01X83769Y74025D01*
G01X83727Y74000D01*
G01X83686Y73973D01*
G01X83646Y73946D01*
G01X83608Y73916D01*
G01X83571Y73885D01*
G01X83535Y73852D01*
G01X83500Y73817D01*
G01X83467Y73781D01*
G01X83436Y73744D01*
G01X83406Y73706D01*
G01X83379Y73666D01*
G01X83352Y73625D01*
G01X83327Y73583D01*
G01X83304Y73540D01*
G01X83284Y73496D01*
G01X83265Y73452D01*
G01X83247Y73406D01*
G01X83232Y73360D01*
G01X83219Y73313D01*
G01X83208Y73266D01*
G01X83198Y73218D01*
G01X83191Y73170D01*
G01X83186Y73122D01*
G01X83183Y73073D01*
G01X83182Y73025D01*
G01X83183Y72976D01*
G01X83186Y72927D01*
G01X83191Y72879D01*
G01X83198Y72831D01*
G01X83208Y72783D01*
G01X83219Y72735D01*
G01X83232Y72689D01*
G01X83247Y72642D01*
G01X83265Y72597D01*
G01X83284Y72552D01*
G01X83305Y72508D01*
G01X83328Y72465D01*
G01X83352Y72424D01*
G01X83379Y72382D01*
G01X83407Y72343D01*
G01X83436Y72304D01*
G01X83468Y72267D01*
G01X83501Y72232D01*
G01X83536Y72197D01*
G01X83571Y72164D01*
G01X83609Y72133D01*
G01X83647Y72103D01*
G01X83687Y72075D01*
G01X83728Y72049D01*
G01X83770Y72024D01*
G01X83813Y72001D01*
G01X83857Y71980D01*
G01X83901Y71961D01*
G01X83915Y71955D01*
G01X83927Y71946D01*
G01X83938Y71936D01*
G01X83948Y71924D01*
G01X83955Y71910D01*
G01X83961Y71897D01*
G01X83964Y71882D01*
G01X83965Y71867D01*
G01X83964Y71851D01*
G01X83960Y71836D01*
G01X83954Y71821D01*
G01X83946Y71807D01*
G01X83936Y71796D01*
G01X83924Y71785D01*
G01X83910Y71777D01*
G01X83896Y71771D01*
G01X83846Y71753D01*
G01X83797Y71733D01*
G01X83749Y71711D01*
G01X83702Y71688D01*
G01X83655Y71663D01*
G01X83610Y71636D01*
G01X83566Y71607D01*
G01X83522Y71576D01*
G01X83480Y71544D01*
G01X83440Y71510D01*
G01X83400Y71475D01*
G01X83362Y71438D01*
G01X83326Y71399D01*
G01X83291Y71360D01*
G01X83258Y71319D01*
G01X83226Y71276D01*
G01X83196Y71233D01*
G01X83168Y71189D01*
G01X83141Y71143D01*
G01X83116Y71096D01*
G01X83094Y71048D01*
G01X83073Y71000D01*
G01X83053Y70950D01*
G01X83036Y70901D01*
G01X83021Y70850D01*
G01X83008Y70799D01*
G01X82997Y70747D01*
G01X82987Y70695D01*
G01X82980Y70642D01*
G01X82975Y70590D01*
G01X82972Y70537D01*
G01X82971Y70485D01*
G01X82972Y70432D01*
G01X82975Y70379D01*
G01X82980Y70327D01*
G01X82987Y70274D01*
G01X82997Y70222D01*
G01X83008Y70170D01*
G01X83021Y70119D01*
G01X83036Y70068D01*
G01X83053Y70019D01*
G01X83073Y69969D01*
G01X83094Y69921D01*
G01X83116Y69873D01*
G01X83141Y69826D01*
G01X83168Y69780D01*
G01X83196Y69736D01*
G01X83226Y69693D01*
G01X83258Y69650D01*
G01X83291Y69609D01*
G01X83326Y69570D01*
G01X83362Y69531D01*
G01X83400Y69494D01*
G01X83440Y69459D01*
G01X83480Y69425D01*
G01X83522Y69393D01*
G01X83566Y69362D01*
G01X83610Y69333D01*
G01X83655Y69306D01*
G01X83702Y69281D01*
G01X83749Y69258D01*
G01X83797Y69236D01*
G01X83846Y69216D01*
G01X83896Y69198D01*
G01X83910Y69192D01*
G01X83924Y69184D01*
G01X83936Y69173D01*
G01X83946Y69162D01*
G01X83954Y69148D01*
G01X83960Y69133D01*
G01X83964Y69118D01*
G01X83965Y69102D01*
G01X83964Y69087D01*
G01X83961Y69072D01*
G01X83955Y69059D01*
G01X83948Y69045D01*
G01X83938Y69033D01*
G01X83927Y69023D01*
G01X83915Y69014D01*
G01X83901Y69008D01*
G01X83857Y68989D01*
G01X83813Y68968D01*
G01X83770Y68945D01*
G01X83728Y68920D01*
G01X83687Y68894D01*
G01X83647Y68866D01*
G01X83609Y68836D01*
G01X83571Y68805D01*
G01X83536Y68772D01*
G01X83501Y68737D01*
G01X83468Y68702D01*
G01X83436Y68665D01*
G01X83407Y68626D01*
G01X83379Y68587D01*
G01X83352Y68545D01*
G01X83328Y68504D01*
G01X83305Y68461D01*
G01X83284Y68417D01*
G01X83265Y68372D01*
G01X83247Y68327D01*
G01X83232Y68280D01*
G01X83219Y68234D01*
G01X83208Y68186D01*
G01X83198Y68138D01*
G01X83191Y68090D01*
G01X83186Y68042D01*
G01X83183Y67993D01*
G01X83182Y67945D01*
G01X83183Y67896D01*
G01X83186Y67847D01*
G01X83191Y67799D01*
G01X83198Y67751D01*
G01X83208Y67703D01*
G01X83219Y67656D01*
G01X83232Y67609D01*
G01X83247Y67563D01*
G01X83265Y67517D01*
G01X83284Y67473D01*
G01X83304Y67429D01*
G01X83327Y67386D01*
G01X83352Y67344D01*
G01X83379Y67303D01*
G01X83406Y67263D01*
G01X83436Y67225D01*
G01X83467Y67188D01*
G01X83500Y67152D01*
G01X83535Y67117D01*
G01X83571Y67084D01*
G01X83608Y67053D01*
G01X83646Y67023D01*
G01X83686Y66996D01*
G01X83727Y66969D01*
G01X83769Y66944D01*
G01X83812Y66921D01*
G01X83856Y66901D01*
G01X83900Y66882D01*
G01X83946Y66864D01*
G01X83992Y66849D01*
G01X84039Y66836D01*
G01X84086Y66825D01*
G01X84134Y66815D01*
G01X84182Y66808D01*
G01X84230Y66803D01*
G01X84279Y66800D01*
G01X84328Y66799D01*
G01X84376Y66800D01*
G01X84425Y66803D01*
G01X84473Y66808D01*
G01X84521Y66815D01*
G01X84569Y66825D01*
G01X84616Y66836D01*
G01X84663Y66849D01*
G01X84709Y66864D01*
G01X84755Y66882D01*
G01X84799Y66901D01*
G01X84843Y66921D01*
G01X84886Y66944D01*
G01X84928Y66969D01*
G01X84969Y66996D01*
G01X85009Y67023D01*
G01X85047Y67053D01*
G01X85084Y67084D01*
G01X85120Y67117D01*
G01X85155Y67152D01*
G01X85188Y67188D01*
G01X85219Y67225D01*
G01X85249Y67263D01*
G01X85276Y67303D01*
G01X85303Y67344D01*
G01X85328Y67386D01*
G01X85351Y67429D01*
G01X85371Y67473D01*
G01X85390Y67517D01*
G01X85408Y67563D01*
G01X85423Y67609D01*
G01X85436Y67656D01*
G01X85447Y67703D01*
G01X85457Y67751D01*
G01X85464Y67799D01*
G01X85469Y67847D01*
G01X85472Y67896D01*
G01X85473Y67945D01*
G01X85472Y67993D01*
G01X85469Y68042D01*
G01X85464Y68090D01*
G01X85457Y68138D01*
G01X85447Y68186D01*
G01X85436Y68234D01*
G01X85423Y68280D01*
G01X85408Y68327D01*
G01X85390Y68372D01*
G01X85371Y68417D01*
G01X85350Y68461D01*
G01X85327Y68504D01*
G01X85303Y68545D01*
G01X85276Y68587D01*
G01X85248Y68626D01*
G01X85219Y68665D01*
G01X85187Y68702D01*
G01X85154Y68737D01*
G01X85119Y68772D01*
G01X85084Y68805D01*
G01X85046Y68836D01*
G01X85008Y68866D01*
G01X84968Y68894D01*
G01X84927Y68920D01*
G01X84885Y68945D01*
G01X84842Y68968D01*
G01X84798Y68989D01*
G01X84754Y69008D01*
G01X84740Y69014D01*
G01X84728Y69023D01*
G01X84717Y69033D01*
G01X84707Y69045D01*
G01X84700Y69059D01*
G01X84694Y69072D01*
G01X84691Y69087D01*
G01X84690Y69102D01*
G01X84691Y69118D01*
G01X84695Y69133D01*
G01X84701Y69148D01*
G01X84709Y69162D01*
G01X84719Y69173D01*
G01X84731Y69184D01*
G01X84745Y69192D01*
G01X84759Y69198D01*
G01X84809Y69216D01*
G01X84858Y69236D01*
G01X84906Y69258D01*
G01X84953Y69281D01*
G01X85000Y69306D01*
G01X85045Y69333D01*
G01X85089Y69362D01*
G01X85132Y69392D01*
G01X85174Y69424D01*
G01X85214Y69458D01*
G01X85254Y69493D01*
G01X85292Y69530D01*
G01X85328Y69569D01*
G01X85363Y69608D01*
G01X85396Y69649D01*
G01X85428Y69691D01*
G01X85458Y69735D01*
G01X85486Y69779D01*
G01X85513Y69825D01*
G01X85538Y69871D01*
G01X85560Y69919D01*
G01X85576Y69943D01*
G01X85586Y69953D01*
G01X85598Y69962D01*
G01X85611Y69969D01*
G01X85624Y69974D01*
G01X85638Y69977D01*
G01X85653Y69978D01*
G01X89789Y69978D01*
G01X89822Y69979D01*
G01X89855Y69982D01*
G01X89888Y69988D01*
G01X89920Y69995D01*
G01X89952Y70005D01*
G01X89983Y70017D01*
G01X90013Y70030D01*
G01X90042Y70046D01*
G01X90070Y70063D01*
G01X90097Y70083D01*
G01X90122Y70104D01*
G01X90147Y70126D01*
G01X93524Y73504D01*
G01X93537Y73515D01*
G01X93550Y73523D01*
G01X93565Y73529D01*
G01X93581Y73533D01*
G01X93596Y73534D01*
G01X94962Y73534D01*
G01X94978Y73533D01*
G01X94994Y73529D01*
G01X95009Y73523D01*
G01X95022Y73515D01*
G01X95034Y73505D01*
G01X95044Y73492D01*
G01X95079Y73447D01*
G01X95116Y73402D01*
G01X95155Y73360D01*
G01X95196Y73319D01*
G01X95238Y73280D01*
G01X95282Y73242D01*
G01X95327Y73207D01*
G01X95374Y73174D01*
G01X95422Y73142D01*
G01X95472Y73113D01*
G01X95485Y73104D01*
G01X95496Y73094D01*
G01X95506Y73082D01*
G01X95514Y73069D01*
G01X95519Y73054D01*
G01X95522Y73040D01*
G01X95524Y73025D01*
G01X95522Y73009D01*
G01X95519Y72995D01*
G01X95514Y72980D01*
G01X95506Y72967D01*
G01X95496Y72955D01*
G01X95485Y72945D01*
G01X95472Y72936D01*
G01X95426Y72909D01*
G01X95382Y72880D01*
G01X95338Y72850D01*
G01X95296Y72818D01*
G01X95255Y72784D01*
G01X95215Y72749D01*
G01X95177Y72712D01*
G01X95140Y72673D01*
G01X95105Y72633D01*
G01X95072Y72592D01*
G01X95040Y72550D01*
G01X95009Y72506D01*
G01X94981Y72462D01*
G01X94954Y72415D01*
G01X94929Y72369D01*
G01X94906Y72321D01*
G01X94885Y72272D01*
G01X94865Y72223D01*
G01X94848Y72173D01*
G01X94832Y72122D01*
G01X94819Y72070D01*
G01X94808Y72018D01*
G01X94798Y71966D01*
G01X94791Y71914D01*
G01X94786Y71861D01*
G01X94783Y71808D01*
G01X94782Y71755D01*
G01X94783Y71701D01*
G01X94786Y71648D01*
G01X94791Y71595D01*
G01X94798Y71543D01*
G01X94808Y71491D01*
G01X94819Y71439D01*
G01X94832Y71387D01*
G01X94848Y71336D01*
G01X94865Y71286D01*
G01X94885Y71237D01*
G01X94906Y71188D01*
G01X94929Y71140D01*
G01X94954Y71094D01*
G01X94981Y71047D01*
G01X95009Y71003D01*
G01X95040Y70959D01*
G01X95072Y70917D01*
G01X95105Y70876D01*
G01X95140Y70836D01*
G01X95177Y70797D01*
G01X95215Y70760D01*
G01X95255Y70725D01*
G01X95296Y70691D01*
G01X95338Y70659D01*
G01X95382Y70629D01*
G01X95426Y70600D01*
G01X95472Y70573D01*
G01X95485Y70564D01*
G01X95496Y70554D01*
G01X95506Y70542D01*
G01X95514Y70529D01*
G01X95519Y70514D01*
G01X95522Y70500D01*
G01X95524Y70485D01*
G01X95522Y70469D01*
G01X95519Y70455D01*
G01X95514Y70440D01*
G01X95506Y70427D01*
G01X95496Y70415D01*
G01X95485Y70405D01*
G01X95472Y70396D01*
G01X95426Y70369D01*
G01X95382Y70340D01*
G01X95338Y70310D01*
G01X95296Y70277D01*
G01X95255Y70244D01*
G01X95215Y70208D01*
G01X95177Y70171D01*
G01X95140Y70133D01*
G01X95105Y70093D01*
G01X95071Y70052D01*
G01X95039Y70010D01*
G01X95009Y69966D01*
G01X94980Y69921D01*
G01X94954Y69875D01*
G01X94928Y69828D01*
G01X94906Y69780D01*
G01X94890Y69756D01*
G01X94880Y69746D01*
G01X94868Y69737D01*
G01X94855Y69730D01*
G01X94842Y69725D01*
G01X94828Y69722D01*
G01X94813Y69721D01*
G01X92075Y69721D01*
G01X92041Y69720D01*
G01X92008Y69717D01*
G01X91975Y69711D01*
G01X91943Y69704D01*
G01X91911Y69694D01*
G01X91880Y69682D01*
G01X91850Y69669D01*
G01X91821Y69653D01*
G01X91793Y69636D01*
G01X91766Y69616D01*
G01X91741Y69596D01*
G01X91716Y69573D01*
G01X90700Y68557D01*
G01X90678Y68532D01*
G01X90657Y68507D01*
G01X90637Y68480D01*
G01X90620Y68452D01*
G01X90604Y68423D01*
G01X90591Y68393D01*
G01X90579Y68362D01*
G01X90569Y68330D01*
G01X90562Y68298D01*
G01X90556Y68265D01*
G01X90553Y68232D01*
G01X90552Y68199D01*
G01X90552Y64132D01*
G01X90551Y64117D01*
G01X90547Y64101D01*
G01X90541Y64086D01*
G01X90533Y64073D01*
G01X90522Y64060D01*
G01X89863Y63401D01*
G01X89850Y63390D01*
G01X89837Y63382D01*
G01X89822Y63376D01*
G01X89806Y63373D01*
G01X89791Y63371D01*
G01X85653Y63371D01*
G01X85638Y63372D01*
G01X85624Y63375D01*
G01X85611Y63380D01*
G01X85598Y63387D01*
G01X85586Y63396D01*
G01X85576Y63406D01*
G01X85560Y63430D01*
G01X85538Y63478D01*
G01X85513Y63524D01*
G01X85486Y63570D01*
G01X85458Y63614D01*
G01X85428Y63658D01*
G01X85396Y63700D01*
G01X85363Y63741D01*
G01X85328Y63780D01*
G01X85292Y63819D01*
G01X85254Y63856D01*
G01X85214Y63891D01*
G01X85174Y63925D01*
G01X85132Y63957D01*
G01X85089Y63987D01*
G01X85045Y64016D01*
G01X85000Y64043D01*
G01X84953Y64068D01*
G01X84906Y64091D01*
G01X84858Y64113D01*
G01X84809Y64133D01*
G01X84759Y64151D01*
G01X84745Y64157D01*
G01X84731Y64165D01*
G01X84719Y64176D01*
G01X84709Y64187D01*
G01X84701Y64201D01*
G01X84695Y64216D01*
G01X84691Y64231D01*
G01X84690Y64247D01*
G01X84691Y64262D01*
G01X84694Y64277D01*
G01X84700Y64290D01*
G01X84707Y64304D01*
G01X84717Y64316D01*
G01X84728Y64326D01*
G01X84740Y64335D01*
G01X84754Y64341D01*
G01X84798Y64360D01*
G01X84842Y64381D01*
G01X84885Y64404D01*
G01X84927Y64429D01*
G01X84968Y64455D01*
G01X85008Y64483D01*
G01X85046Y64513D01*
G01X85084Y64544D01*
G01X85119Y64577D01*
G01X85154Y64612D01*
G01X85187Y64647D01*
G01X85219Y64684D01*
G01X85248Y64723D01*
G01X85276Y64762D01*
G01X85303Y64804D01*
G01X85327Y64845D01*
G01X85350Y64888D01*
G01X85371Y64932D01*
G01X85390Y64977D01*
G01X85408Y65022D01*
G01X85423Y65069D01*
G01X85436Y65115D01*
G01X85447Y65163D01*
G01X85457Y65211D01*
G01X85464Y65259D01*
G01X85469Y65307D01*
G01X85472Y65356D01*
G01X85473Y65405D01*
G01X85472Y65453D01*
G01X85469Y65502D01*
G01X85464Y65550D01*
G01X85457Y65598D01*
G01X85447Y65646D01*
G01X85436Y65693D01*
G01X85423Y65740D01*
G01X85408Y65786D01*
G01X85390Y65832D01*
G01X85371Y65876D01*
G01X85351Y65920D01*
G01X85328Y65963D01*
G01X85303Y66005D01*
G01X85276Y66046D01*
G01X85249Y66086D01*
G01X85219Y66124D01*
G01X85188Y66161D01*
G01X85155Y66197D01*
G01X85120Y66232D01*
G01X85084Y66265D01*
G01X85047Y66296D01*
G01X85009Y66326D01*
G01X84969Y66353D01*
G01X84928Y66380D01*
G01X84886Y66405D01*
G01X84843Y66428D01*
G01X84799Y66448D01*
G01X84755Y66467D01*
G01X84709Y66485D01*
G01X84663Y66500D01*
G01X84616Y66513D01*
G01X84569Y66524D01*
G01X84521Y66534D01*
G01X84473Y66541D01*
G01X84425Y66546D01*
G01X84376Y66549D01*
G01X84328Y66550D01*
G01X84279Y66549D01*
G01X84230Y66546D01*
G01X84182Y66541D01*
G01X84134Y66534D01*
G01X84086Y66524D01*
G01X84039Y66513D01*
G01X83992Y66500D01*
G01X83946Y66485D01*
G01X83900Y66467D01*
G01X83856Y66448D01*
G01X83812Y66428D01*
G01X83769Y66405D01*
G01X83727Y66380D01*
G01X83686Y66353D01*
G01X83646Y66326D01*
G01X83608Y66296D01*
G01X83571Y66265D01*
G01X83535Y66232D01*
G01X83500Y66197D01*
G01X83467Y66161D01*
G01X83436Y66124D01*
G01X83406Y66086D01*
G01X83379Y66046D01*
G01X83352Y66005D01*
G01X83327Y65963D01*
G01X83304Y65920D01*
G01X83284Y65876D01*
G01X83265Y65832D01*
G01X83247Y65786D01*
G01X83232Y65740D01*
G01X83219Y65693D01*
G01X83208Y65646D01*
G01X83198Y65598D01*
G01X83191Y65550D01*
G01X83186Y65502D01*
G01X83183Y65453D01*
G01X83182Y65405D01*
G01X83183Y65356D01*
G01X83186Y65307D01*
G01X83191Y65259D01*
G01X83198Y65211D01*
G01X83208Y65163D01*
G01X83219Y65115D01*
G01X83232Y65069D01*
G01X83247Y65022D01*
G01X83265Y64977D01*
G01X83284Y64932D01*
G01X83305Y64888D01*
G01X83328Y64845D01*
G01X83352Y64804D01*
G01X83379Y64762D01*
G01X83407Y64723D01*
G01X83436Y64684D01*
G01X83468Y64647D01*
G01X83501Y64612D01*
G01X83536Y64577D01*
G01X83571Y64544D01*
G01X83609Y64513D01*
G01X83647Y64483D01*
G01X83687Y64455D01*
G01X83728Y64429D01*
G01X83770Y64404D01*
G01X83813Y64381D01*
G01X83857Y64360D01*
G01X83901Y64341D01*
G01X83915Y64335D01*
G01X83927Y64326D01*
G01X83938Y64316D01*
G01X83948Y64304D01*
G01X83955Y64290D01*
G01X83961Y64277D01*
G01X83964Y64262D01*
G01X83965Y64247D01*
G01X83964Y64231D01*
G01X83960Y64216D01*
G01X83954Y64201D01*
G01X83946Y64187D01*
G01X83936Y64176D01*
G01X83924Y64165D01*
G01X83910Y64157D01*
G01X83896Y64151D01*
G01X83846Y64133D01*
G01X83797Y64113D01*
G01X83749Y64091D01*
G01X83702Y64068D01*
G01X83655Y64043D01*
G01X83610Y64016D01*
G01X83566Y63987D01*
G01X83522Y63956D01*
G01X83480Y63924D01*
G01X83440Y63890D01*
G01X83400Y63855D01*
G01X83362Y63818D01*
G01X83326Y63779D01*
G01X83291Y63740D01*
G01X83258Y63699D01*
G01X83226Y63656D01*
G01X83196Y63613D01*
G01X83168Y63569D01*
G01X83141Y63523D01*
G01X83116Y63476D01*
G01X83094Y63428D01*
G01X83073Y63380D01*
G01X83053Y63330D01*
G01X83036Y63281D01*
G01X83021Y63230D01*
G01X83008Y63179D01*
G01X82997Y63127D01*
G01X82987Y63075D01*
G01X82980Y63022D01*
G01X82975Y62970D01*
G01X82972Y62917D01*
G01X82971Y62865D01*
G01X82972Y62811D01*
G01X82975Y62758D01*
G01X82980Y62705D01*
G01X82987Y62653D01*
G01X82997Y62601D01*
G01X83008Y62549D01*
G01X83021Y62497D01*
G01X83037Y62446D01*
G01X83054Y62396D01*
G01X83074Y62347D01*
G01X83095Y62298D01*
G01X83118Y62250D01*
G01X83143Y62204D01*
G01X83170Y62157D01*
G01X83198Y62113D01*
G01X83229Y62069D01*
G01X83261Y62027D01*
G01X83294Y61986D01*
G01X83329Y61946D01*
G01X83366Y61907D01*
G01X83404Y61870D01*
G01X83444Y61835D01*
G01X83485Y61801D01*
G01X83527Y61769D01*
G01X83571Y61739D01*
G01X83615Y61710D01*
G01X83661Y61683D01*
G01X83674Y61674D01*
G01X83685Y61664D01*
G01X83695Y61652D01*
G01X83703Y61639D01*
G01X83708Y61624D01*
G01X83711Y61610D01*
G01X83713Y61595D01*
G01X83711Y61579D01*
G01X83708Y61565D01*
G01X83703Y61550D01*
G01X83695Y61537D01*
G01X83685Y61525D01*
G01X83674Y61515D01*
G01X83661Y61506D01*
G01X83615Y61479D01*
G01X83571Y61450D01*
G01X83527Y61420D01*
G01X83485Y61388D01*
G01X83444Y61354D01*
G01X83404Y61319D01*
G01X83366Y61282D01*
G01X83329Y61243D01*
G01X83294Y61203D01*
G01X83261Y61162D01*
G01X83229Y61120D01*
G01X83198Y61076D01*
G01X83170Y61032D01*
G01X83143Y60985D01*
G01X83118Y60939D01*
G01X83095Y60891D01*
G01X83074Y60842D01*
G01X83054Y60793D01*
G01X83037Y60743D01*
G01X83021Y60692D01*
G01X83008Y60640D01*
G01X82997Y60588D01*
G01X82987Y60536D01*
G01X82980Y60484D01*
G01X82975Y60431D01*
G01X82972Y60378D01*
G01X82971Y60325D01*
G01X82972Y60272D01*
G01X82975Y60219D01*
G01X82980Y60167D01*
G01X82987Y60114D01*
G01X82997Y60062D01*
G01X83008Y60010D01*
G01X83021Y59959D01*
G01X83036Y59908D01*
G01X83053Y59859D01*
G01X83073Y59809D01*
G01X83094Y59761D01*
G01X83116Y59713D01*
G01X83141Y59666D01*
G01X83168Y59620D01*
G01X83196Y59576D01*
G01X83226Y59533D01*
G01X83258Y59490D01*
G01X83291Y59449D01*
G01X83326Y59410D01*
G01X83362Y59371D01*
G01X83400Y59334D01*
G01X83440Y59299D01*
G01X83480Y59265D01*
G01X83522Y59233D01*
G01X83566Y59202D01*
G01X83610Y59173D01*
G01X83655Y59146D01*
G01X83702Y59121D01*
G01X83749Y59098D01*
G01X83797Y59076D01*
G01X83846Y59056D01*
G01X83896Y59038D01*
G01X83910Y59032D01*
G01X83924Y59024D01*
G01X83936Y59013D01*
G01X83946Y59002D01*
G01X83954Y58988D01*
G01X83960Y58973D01*
G01X83964Y58958D01*
G01X83965Y58942D01*
G01X83964Y58927D01*
G01X83961Y58912D01*
G01X83955Y58899D01*
G01X83948Y58885D01*
G01X83938Y58873D01*
G01X83927Y58863D01*
G01X83915Y58854D01*
G01X83901Y58848D01*
G01X83857Y58829D01*
G01X83813Y58808D01*
G01X83770Y58785D01*
G01X83728Y58760D01*
G01X83687Y58734D01*
G01X83647Y58706D01*
G01X83609Y58676D01*
G01X83571Y58645D01*
G01X83536Y58612D01*
G01X83501Y58577D01*
G01X83468Y58542D01*
G01X83436Y58505D01*
G01X83407Y58466D01*
G01X83379Y58427D01*
G01X83352Y58385D01*
G01X83328Y58344D01*
G01X83305Y58301D01*
G01X83284Y58257D01*
G01X83265Y58212D01*
G01X83247Y58167D01*
G01X83232Y58120D01*
G01X83219Y58074D01*
G01X83208Y58026D01*
G01X83198Y57978D01*
G01X83191Y57930D01*
G01X83186Y57882D01*
G01X83183Y57833D01*
G01X83182Y57785D01*
G01X83183Y57736D01*
G01X83186Y57687D01*
G01X83191Y57639D01*
G01X83198Y57591D01*
G01X83208Y57543D01*
G01X83219Y57496D01*
G01X83232Y57449D01*
G01X83247Y57403D01*
G01X83265Y57357D01*
G01X83284Y57313D01*
G01X83304Y57269D01*
G01X83327Y57226D01*
G01X83352Y57184D01*
G01X83379Y57143D01*
G01X83406Y57103D01*
G01X83436Y57065D01*
G01X83467Y57028D01*
G01X83500Y56992D01*
G01X83535Y56957D01*
G01X83571Y56924D01*
G01X83608Y56893D01*
G01X83646Y56863D01*
G01X83686Y56836D01*
G01X83727Y56809D01*
G01X83769Y56784D01*
G01X83812Y56761D01*
G01X83856Y56741D01*
G01X83900Y56722D01*
G01X83946Y56704D01*
G01X83992Y56689D01*
G01X84039Y56676D01*
G01X84086Y56665D01*
G01X84134Y56655D01*
G01X84182Y56648D01*
G01X84230Y56643D01*
G01X84279Y56640D01*
G01X84328Y56639D01*
G01X84376Y56640D01*
G01X84425Y56643D01*
G01X84473Y56648D01*
G01X84521Y56655D01*
G01X84569Y56665D01*
G01X84616Y56676D01*
G01X84663Y56689D01*
G01X84709Y56704D01*
G01X84755Y56722D01*
G01X84799Y56741D01*
G01X84843Y56761D01*
G01X84886Y56784D01*
G01X84928Y56809D01*
G01X84969Y56836D01*
G01X85009Y56863D01*
G01X85047Y56893D01*
G01X85084Y56924D01*
G01X85120Y56957D01*
G01X85155Y56992D01*
G01X85188Y57028D01*
G01X85219Y57065D01*
G01X85249Y57103D01*
G01X85276Y57143D01*
G01X85303Y57184D01*
G01X85328Y57226D01*
G01X85351Y57269D01*
G01X85371Y57313D01*
G01X85390Y57357D01*
G01X85408Y57403D01*
G01X85423Y57449D01*
G01X85436Y57496D01*
G01X85447Y57543D01*
G01X85457Y57591D01*
G01X85464Y57639D01*
G01X85469Y57687D01*
G01X85472Y57736D01*
G01X85473Y57785D01*
G01X85472Y57833D01*
G01X85469Y57882D01*
G01X85464Y57930D01*
G01X85457Y57978D01*
G01X85447Y58026D01*
G01X85436Y58074D01*
G01X85423Y58120D01*
G01X85408Y58167D01*
G01X85390Y58212D01*
G01X85371Y58257D01*
G01X85350Y58301D01*
G01X85327Y58344D01*
G01X85303Y58385D01*
G01X85276Y58427D01*
G01X85248Y58466D01*
G01X85219Y58505D01*
G01X85187Y58542D01*
G01X85154Y58577D01*
G01X85119Y58612D01*
G01X85084Y58645D01*
G01X85046Y58676D01*
G01X85008Y58706D01*
G01X84968Y58734D01*
G01X84927Y58760D01*
G01X84885Y58785D01*
G01X84842Y58808D01*
G01X84798Y58829D01*
G01X84754Y58848D01*
G01X84740Y58854D01*
G01X84728Y58863D01*
G01X84717Y58873D01*
G01X84707Y58885D01*
G01X84700Y58899D01*
G01X84694Y58912D01*
G01X84691Y58927D01*
G01X84690Y58942D01*
G01X84691Y58958D01*
G01X84695Y58973D01*
G01X84701Y58988D01*
G01X84709Y59002D01*
G01X84719Y59013D01*
G01X84731Y59024D01*
G01X84745Y59032D01*
G01X84759Y59038D01*
G01X84809Y59056D01*
G01X84858Y59076D01*
G01X84906Y59098D01*
G01X84953Y59121D01*
G01X85000Y59146D01*
G01X85045Y59173D01*
G01X85089Y59202D01*
G01X85132Y59232D01*
G01X85174Y59264D01*
G01X85214Y59298D01*
G01X85254Y59333D01*
G01X85292Y59370D01*
G01X85328Y59409D01*
G01X85363Y59448D01*
G01X85396Y59489D01*
G01X85428Y59531D01*
G01X85458Y59575D01*
G01X85486Y59619D01*
G01X85513Y59665D01*
G01X85538Y59711D01*
G01X85560Y59759D01*
G01X85576Y59783D01*
G01X85586Y59793D01*
G01X85598Y59802D01*
G01X85611Y59809D01*
G01X85624Y59814D01*
G01X85638Y59817D01*
G01X85653Y59818D01*
G01X98298Y59818D01*
G01X98331Y59819D01*
G01X98364Y59822D01*
G01X98397Y59828D01*
G01X98429Y59835D01*
G01X98461Y59845D01*
G01X98492Y59857D01*
G01X98522Y59870D01*
G01X98551Y59886D01*
G01X98579Y59903D01*
G01X98606Y59923D01*
G01X98631Y59944D01*
G01X98656Y59966D01*
G01X100180Y61490D01*
G01X100203Y61515D01*
G01X100223Y61540D01*
G01X100243Y61567D01*
G01X100260Y61595D01*
G01X100276Y61624D01*
G01X100289Y61654D01*
G01X100301Y61685D01*
G01X100311Y61717D01*
G01X100318Y61749D01*
G01X100324Y61782D01*
G01X100327Y61815D01*
G01X100328Y61849D01*
G01X100328Y69977D01*
G01X100327Y70010D01*
G01X100324Y70043D01*
G01X100318Y70076D01*
G01X100311Y70108D01*
G01X100301Y70140D01*
G01X100289Y70171D01*
G01X100276Y70201D01*
G01X100260Y70230D01*
G01X100243Y70258D01*
G01X100223Y70285D01*
G01X100203Y70310D01*
G01X100180Y70335D01*
G01X98402Y72113D01*
G01X98377Y72136D01*
G01X98352Y72156D01*
G01X98325Y72176D01*
G01X98297Y72193D01*
G01X98268Y72209D01*
G01X98238Y72222D01*
G01X98207Y72234D01*
G01X98175Y72244D01*
G01X98143Y72251D01*
G01X98110Y72257D01*
G01X98077Y72260D01*
G01X98044Y72261D01*
G01X97464Y72261D01*
G01X97449Y72262D01*
G01X97435Y72265D01*
G01X97422Y72270D01*
G01X97409Y72277D01*
G01X97397Y72286D01*
G01X97387Y72296D01*
G01X97371Y72320D01*
G01X97349Y72368D01*
G01X97323Y72415D01*
G01X97297Y72461D01*
G01X97268Y72506D01*
G01X97238Y72550D01*
G01X97206Y72592D01*
G01X97172Y72633D01*
G01X97137Y72673D01*
G01X97100Y72711D01*
G01X97062Y72748D01*
G01X97022Y72784D01*
G01X96981Y72817D01*
G01X96939Y72850D01*
G01X96895Y72880D01*
G01X96851Y72909D01*
G01X96805Y72936D01*
G01X96792Y72945D01*
G01X96781Y72955D01*
G01X96771Y72967D01*
G01X96763Y72980D01*
G01X96758Y72995D01*
G01X96755Y73009D01*
G01X96753Y73025D01*
G01X96755Y73040D01*
G01X96758Y73054D01*
G01X96763Y73069D01*
G01X96771Y73082D01*
G01X96781Y73094D01*
G01X96792Y73104D01*
G01X96805Y73113D01*
G01X96851Y73140D01*
G01X96895Y73169D01*
G01X96939Y73199D01*
G01X96981Y73231D01*
G01X97022Y73265D01*
G01X97062Y73300D01*
G01X97100Y73337D01*
G01X97137Y73376D01*
G01X97172Y73416D01*
G01X97205Y73457D01*
G01X97237Y73499D01*
G01X97268Y73543D01*
G01X97296Y73587D01*
G01X97323Y73634D01*
G01X97348Y73680D01*
G01X97371Y73728D01*
G01X97392Y73777D01*
G01X97412Y73826D01*
G01X97429Y73876D01*
G01X97445Y73927D01*
G01X97458Y73979D01*
G01X97469Y74031D01*
G01X97479Y74083D01*
G01X97486Y74135D01*
G01X97491Y74188D01*
G01X97494Y74241D01*
G01X97495Y74295D01*
G01X97494Y74348D01*
G01X97491Y74403D01*
G01X97485Y74457D01*
G01X97478Y74510D01*
G01X97468Y74563D01*
G01X97456Y74616D01*
G01X97443Y74668D01*
G01X97427Y74720D01*
G01X97409Y74770D01*
G01X97389Y74821D01*
G01X97367Y74871D01*
G01X97343Y74919D01*
G01X97317Y74966D01*
G01X97289Y75013D01*
G01X97260Y75058D01*
G01X97229Y75102D01*
G01X97196Y75145D01*
G01X97161Y75187D01*
G01X97125Y75226D01*
G01X97086Y75265D01*
G01X97047Y75302D01*
G01X97006Y75337D01*
G01X96964Y75371D01*
G01X96920Y75403D01*
G01X96876Y75433D01*
G01X96829Y75462D01*
G01X96783Y75488D01*
G01X96734Y75513D01*
G01X96686Y75536D01*
G01X96635Y75557D01*
G01X96585Y75576D01*
G01X96569Y75582D01*
G01X96555Y75592D01*
G01X96550Y75591D01*
G01X96536Y75592D01*
G01X96522Y75596D01*
G01X96468Y75610D01*
G01X96414Y75623D01*
G01X96359Y75633D01*
G01X96305Y75641D01*
G01X96249Y75646D01*
G01X96194Y75650D01*
G01X96139Y75651D01*
G01X96083Y75650D01*
G01X96028Y75646D01*
G01X95972Y75641D01*
G01X95918Y75633D01*
G01X95863Y75623D01*
G01X95809Y75610D01*
G01X95755Y75596D01*
G01X95741Y75592D01*
G01X95727Y75591D01*
G01X95722Y75592D01*
G01X95708Y75582D01*
G01X95692Y75576D01*
G01X95642Y75557D01*
G01X95592Y75536D01*
G01X95544Y75514D01*
G01X95496Y75489D01*
G01X95449Y75462D01*
G01X95403Y75434D01*
G01X95359Y75404D01*
G01X95315Y75372D01*
G01X95273Y75339D01*
G01X95233Y75304D01*
G01X95193Y75267D01*
G01X95156Y75229D01*
G01X95119Y75190D01*
G01X95084Y75148D01*
G01X95051Y75106D01*
G01X95020Y75063D01*
G01X94991Y75017D01*
G01X94963Y74972D01*
G01X94937Y74924D01*
G01X94913Y74877D01*
G01X94891Y74827D01*
G01X94871Y74778D01*
G01X94853Y74727D01*
G01X94836Y74676D01*
G01X94823Y74624D01*
G01X94818Y74610D01*
G01X94811Y74596D01*
G01X94802Y74584D01*
G01X94792Y74573D01*
G01X94781Y74564D01*
G01X94767Y74557D01*
G01X94754Y74552D01*
G01X94739Y74548D01*
G01X94724Y74547D01*
G01X93444Y74547D01*
G01X93428Y74549D01*
G01X93413Y74552D01*
G01X93398Y74558D01*
G01X93384Y74566D01*
G01X93372Y74577D01*
G01X88928Y79021D01*
G01X88917Y79033D01*
G01X88909Y79047D01*
G01X88903Y79062D01*
G01X88900Y79077D01*
G01X88898Y79093D01*
G01X88898Y79629D01*
G01X88897Y79662D01*
G01X88894Y79695D01*
G01X88888Y79728D01*
G01X88881Y79760D01*
G01X88871Y79792D01*
G01X88859Y79823D01*
G01X88846Y79853D01*
G01X88830Y79882D01*
G01X88813Y79910D01*
G01X88793Y79937D01*
G01X88773Y79962D01*
G01X88750Y79987D01*
G01X87277Y81459D01*
G01X87266Y81472D01*
G01X87258Y81485D01*
G01X87252Y81500D01*
G01X87249Y81516D01*
G01X87247Y81531D01*
G01X87247Y82677D01*
G01X87246Y82710D01*
G01X87243Y82743D01*
G01X87237Y82776D01*
G01X87230Y82808D01*
G01X87220Y82840D01*
G01X87208Y82871D01*
G01X87195Y82901D01*
G01X87179Y82930D01*
G01X87162Y82958D01*
G01X87142Y82985D01*
G01X87122Y83010D01*
G01X87099Y83035D01*
G01X85194Y84940D01*
G01X85169Y84963D01*
G01X85144Y84983D01*
G01X85117Y85003D01*
G01X85089Y85020D01*
G01X85060Y85036D01*
G01X85030Y85049D01*
G01X84999Y85061D01*
G01X84967Y85071D01*
G01X84935Y85078D01*
G01X84902Y85084D01*
G01X84869Y85087D01*
G01X84836Y85088D01*
G37*
G36*
G01X84376Y53849D02*
G01X84328Y53850D01*
G01X84279Y53849D01*
G01X84230Y53846D01*
G01X84182Y53841D01*
G01X84134Y53834D01*
G01X84086Y53824D01*
G01X84039Y53813D01*
G01X83992Y53800D01*
G01X83946Y53785D01*
G01X83900Y53767D01*
G01X83856Y53748D01*
G01X83812Y53728D01*
G01X83769Y53705D01*
G01X83727Y53680D01*
G01X83686Y53653D01*
G01X83646Y53626D01*
G01X83608Y53596D01*
G01X83571Y53565D01*
G01X83535Y53532D01*
G01X83500Y53497D01*
G01X83467Y53461D01*
G01X83436Y53424D01*
G01X83406Y53386D01*
G01X83379Y53346D01*
G01X83352Y53305D01*
G01X83327Y53263D01*
G01X83304Y53220D01*
G01X83284Y53176D01*
G01X83265Y53132D01*
G01X83247Y53086D01*
G01X83232Y53040D01*
G01X83219Y52993D01*
G01X83208Y52946D01*
G01X83198Y52898D01*
G01X83191Y52850D01*
G01X83186Y52802D01*
G01X83183Y52753D01*
G01X83182Y52705D01*
G01X83183Y52656D01*
G01X83186Y52607D01*
G01X83191Y52559D01*
G01X83198Y52511D01*
G01X83208Y52463D01*
G01X83219Y52416D01*
G01X83232Y52369D01*
G01X83247Y52323D01*
G01X83265Y52277D01*
G01X83284Y52233D01*
G01X83304Y52189D01*
G01X83327Y52146D01*
G01X83352Y52104D01*
G01X83379Y52063D01*
G01X83406Y52023D01*
G01X83436Y51985D01*
G01X83467Y51948D01*
G01X83500Y51912D01*
G01X83535Y51877D01*
G01X83571Y51844D01*
G01X83608Y51813D01*
G01X83646Y51783D01*
G01X83686Y51756D01*
G01X83727Y51729D01*
G01X83769Y51704D01*
G01X83812Y51681D01*
G01X83856Y51661D01*
G01X83900Y51642D01*
G01X83946Y51624D01*
G01X83992Y51609D01*
G01X84039Y51596D01*
G01X84086Y51585D01*
G01X84134Y51575D01*
G01X84182Y51568D01*
G01X84230Y51563D01*
G01X84279Y51560D01*
G01X84328Y51559D01*
G01X84376Y51560D01*
G01X84425Y51563D01*
G01X84473Y51568D01*
G01X84521Y51575D01*
G01X84569Y51585D01*
G01X84616Y51596D01*
G01X84663Y51609D01*
G01X84709Y51624D01*
G01X84755Y51642D01*
G01X84799Y51661D01*
G01X84843Y51681D01*
G01X84886Y51704D01*
G01X84928Y51729D01*
G01X84969Y51756D01*
G01X85009Y51783D01*
G01X85047Y51813D01*
G01X85084Y51844D01*
G01X85120Y51877D01*
G01X85155Y51912D01*
G01X85188Y51948D01*
G01X85219Y51985D01*
G01X85249Y52023D01*
G01X85276Y52063D01*
G01X85303Y52104D01*
G01X85328Y52146D01*
G01X85351Y52189D01*
G01X85371Y52233D01*
G01X85390Y52277D01*
G01X85408Y52323D01*
G01X85423Y52369D01*
G01X85436Y52416D01*
G01X85447Y52463D01*
G01X85457Y52511D01*
G01X85464Y52559D01*
G01X85469Y52607D01*
G01X85472Y52656D01*
G01X85473Y52705D01*
G01X85472Y52753D01*
G01X85469Y52802D01*
G01X85464Y52850D01*
G01X85457Y52898D01*
G01X85447Y52946D01*
G01X85436Y52993D01*
G01X85423Y53040D01*
G01X85408Y53086D01*
G01X85390Y53132D01*
G01X85371Y53176D01*
G01X85351Y53220D01*
G01X85328Y53263D01*
G01X85303Y53305D01*
G01X85276Y53346D01*
G01X85249Y53386D01*
G01X85219Y53424D01*
G01X85188Y53461D01*
G01X85155Y53497D01*
G01X85120Y53532D01*
G01X85084Y53565D01*
G01X85047Y53596D01*
G01X85009Y53626D01*
G01X84969Y53653D01*
G01X84928Y53680D01*
G01X84886Y53705D01*
G01X84843Y53728D01*
G01X84799Y53748D01*
G01X84755Y53767D01*
G01X84709Y53785D01*
G01X84663Y53800D01*
G01X84616Y53813D01*
G01X84569Y53824D01*
G01X84521Y53834D01*
G01X84473Y53841D01*
G01X84425Y53846D01*
G01X84376Y53849D01*
G37*
G36*
G01X89154Y32383D02*
G01X58293Y32383D01*
G01X58259Y32382D01*
G01X58226Y32379D01*
G01X58193Y32373D01*
G01X58161Y32366D01*
G01X58129Y32356D01*
G01X58098Y32344D01*
G01X58068Y32331D01*
G01X58039Y32315D01*
G01X58011Y32298D01*
G01X57984Y32278D01*
G01X57959Y32258D01*
G01X57934Y32235D01*
G01X54378Y28679D01*
G01X54356Y28654D01*
G01X54335Y28629D01*
G01X54315Y28602D01*
G01X54298Y28574D01*
G01X54282Y28545D01*
G01X54269Y28515D01*
G01X54257Y28484D01*
G01X54247Y28452D01*
G01X54240Y28420D01*
G01X54234Y28387D01*
G01X54231Y28354D01*
G01X54230Y28321D01*
G01X54230Y23114D01*
G01X54231Y23080D01*
G01X54234Y23047D01*
G01X54240Y23014D01*
G01X54247Y22982D01*
G01X54257Y22950D01*
G01X54269Y22919D01*
G01X54282Y22889D01*
G01X54298Y22860D01*
G01X54315Y22832D01*
G01X54335Y22805D01*
G01X54356Y22780D01*
G01X54378Y22755D01*
G01X56029Y21104D01*
G01X56054Y21082D01*
G01X56079Y21061D01*
G01X56106Y21041D01*
G01X56134Y21024D01*
G01X56163Y21008D01*
G01X56193Y20995D01*
G01X56224Y20983D01*
G01X56256Y20973D01*
G01X56288Y20966D01*
G01X56321Y20960D01*
G01X56354Y20957D01*
G01X56388Y20956D01*
G01X60581Y20956D01*
G01X60596Y20955D01*
G01X60612Y20951D01*
G01X60627Y20945D01*
G01X60640Y20937D01*
G01X60653Y20926D01*
G01X61109Y20469D01*
G01X61134Y20447D01*
G01X61159Y20426D01*
G01X61186Y20406D01*
G01X61214Y20389D01*
G01X61243Y20373D01*
G01X61273Y20360D01*
G01X61304Y20348D01*
G01X61336Y20338D01*
G01X61368Y20331D01*
G01X61401Y20325D01*
G01X61434Y20322D01*
G01X61468Y20321D01*
G01X63756Y20321D01*
G01X63771Y20320D01*
G01X63787Y20316D01*
G01X63802Y20310D01*
G01X63815Y20302D01*
G01X63828Y20291D01*
G01X64233Y19886D01*
G01X64244Y19873D01*
G01X64252Y19860D01*
G01X64258Y19845D01*
G01X64262Y19829D01*
G01X64263Y19814D01*
G01X64263Y17962D01*
G01X64262Y17947D01*
G01X64259Y17933D01*
G01X64254Y17920D01*
G01X64247Y17907D01*
G01X64238Y17895D01*
G01X64228Y17885D01*
G01X64204Y17869D01*
G01X64156Y17847D01*
G01X64109Y17821D01*
G01X64063Y17795D01*
G01X64018Y17766D01*
G01X63974Y17736D01*
G01X63932Y17704D01*
G01X63891Y17670D01*
G01X63851Y17635D01*
G01X63813Y17598D01*
G01X63776Y17560D01*
G01X63740Y17520D01*
G01X63707Y17479D01*
G01X63674Y17437D01*
G01X63644Y17393D01*
G01X63615Y17349D01*
G01X63588Y17303D01*
G01X63579Y17290D01*
G01X63569Y17279D01*
G01X63557Y17269D01*
G01X63544Y17261D01*
G01X63529Y17256D01*
G01X63515Y17253D01*
G01X63500Y17251D01*
G01X63484Y17253D01*
G01X63470Y17256D01*
G01X63455Y17261D01*
G01X63442Y17269D01*
G01X63430Y17279D01*
G01X63420Y17290D01*
G01X63411Y17303D01*
G01X63384Y17349D01*
G01X63355Y17393D01*
G01X63325Y17437D01*
G01X63293Y17479D01*
G01X63259Y17520D01*
G01X63224Y17560D01*
G01X63187Y17598D01*
G01X63148Y17635D01*
G01X63108Y17670D01*
G01X63067Y17703D01*
G01X63025Y17735D01*
G01X62981Y17766D01*
G01X62937Y17794D01*
G01X62890Y17821D01*
G01X62844Y17846D01*
G01X62796Y17869D01*
G01X62747Y17890D01*
G01X62698Y17910D01*
G01X62648Y17927D01*
G01X62597Y17943D01*
G01X62545Y17956D01*
G01X62493Y17967D01*
G01X62441Y17977D01*
G01X62389Y17984D01*
G01X62336Y17989D01*
G01X62283Y17992D01*
G01X62230Y17993D01*
G01X62176Y17992D01*
G01X62122Y17989D01*
G01X62069Y17984D01*
G01X62016Y17976D01*
G01X61963Y17967D01*
G01X61911Y17955D01*
G01X61860Y17942D01*
G01X61808Y17926D01*
G01X61758Y17909D01*
G01X61740Y17903D01*
G01X61723Y17902D01*
G01X61707Y17903D01*
G01X61691Y17907D01*
G01X61676Y17913D01*
G01X61663Y17921D01*
G01X61650Y17932D01*
G01X59667Y19916D01*
G01X59642Y19939D01*
G01X59617Y19959D01*
G01X59590Y19979D01*
G01X59562Y19996D01*
G01X59533Y20012D01*
G01X59503Y20025D01*
G01X59472Y20037D01*
G01X59440Y20047D01*
G01X59408Y20054D01*
G01X59375Y20060D01*
G01X59342Y20063D01*
G01X59309Y20064D01*
G01X43942Y20064D01*
G01X43908Y20063D01*
G01X43875Y20060D01*
G01X43842Y20054D01*
G01X43810Y20047D01*
G01X43778Y20037D01*
G01X43747Y20025D01*
G01X43717Y20012D01*
G01X43688Y19996D01*
G01X43660Y19979D01*
G01X43633Y19959D01*
G01X43608Y19939D01*
G01X43583Y19916D01*
G01X41551Y17884D01*
G01X41529Y17859D01*
G01X41508Y17834D01*
G01X41488Y17807D01*
G01X41471Y17779D01*
G01X41455Y17750D01*
G01X41442Y17720D01*
G01X41430Y17689D01*
G01X41420Y17657D01*
G01X41413Y17625D01*
G01X41407Y17592D01*
G01X41404Y17559D01*
G01X41403Y17526D01*
G01X41403Y5334D01*
G01X41404Y5300D01*
G01X41407Y5267D01*
G01X41413Y5234D01*
G01X41420Y5202D01*
G01X41430Y5170D01*
G01X41442Y5139D01*
G01X41455Y5109D01*
G01X41471Y5080D01*
G01X41488Y5052D01*
G01X41508Y5025D01*
G01X41529Y5000D01*
G01X41551Y4975D01*
G01X44980Y1546D01*
G01X45005Y1524D01*
G01X45030Y1503D01*
G01X45057Y1483D01*
G01X45085Y1466D01*
G01X45114Y1450D01*
G01X45144Y1437D01*
G01X45175Y1425D01*
G01X45207Y1415D01*
G01X45239Y1408D01*
G01X45272Y1402D01*
G01X45305Y1399D01*
G01X45339Y1398D01*
G01X93091Y1398D01*
G01X93124Y1399D01*
G01X93157Y1402D01*
G01X93190Y1408D01*
G01X93222Y1415D01*
G01X93254Y1425D01*
G01X93285Y1437D01*
G01X93315Y1450D01*
G01X93344Y1466D01*
G01X93372Y1483D01*
G01X93399Y1503D01*
G01X93424Y1524D01*
G01X93449Y1546D01*
G01X94592Y2689D01*
G01X94615Y2714D01*
G01X94635Y2739D01*
G01X94655Y2766D01*
G01X94672Y2794D01*
G01X94688Y2823D01*
G01X94701Y2853D01*
G01X94713Y2884D01*
G01X94723Y2916D01*
G01X94730Y2948D01*
G01X94736Y2981D01*
G01X94739Y3014D01*
G01X94740Y3048D01*
G01X94740Y13589D01*
G01X94739Y13622D01*
G01X94736Y13655D01*
G01X94730Y13688D01*
G01X94723Y13720D01*
G01X94713Y13752D01*
G01X94701Y13783D01*
G01X94688Y13813D01*
G01X94672Y13842D01*
G01X94655Y13870D01*
G01X94635Y13897D01*
G01X94615Y13922D01*
G01X94592Y13947D01*
G01X94084Y14455D01*
G01X94059Y14478D01*
G01X94034Y14498D01*
G01X94007Y14518D01*
G01X93979Y14535D01*
G01X93950Y14551D01*
G01X93920Y14564D01*
G01X93889Y14576D01*
G01X93857Y14586D01*
G01X93825Y14593D01*
G01X93792Y14599D01*
G01X93759Y14602D01*
G01X93726Y14603D01*
G01X86484Y14603D01*
G01X86469Y14605D01*
G01X86453Y14608D01*
G01X86438Y14614D01*
G01X86425Y14622D01*
G01X86412Y14633D01*
G01X85245Y15800D01*
G01X85234Y15813D01*
G01X85226Y15826D01*
G01X85220Y15841D01*
G01X85217Y15857D01*
G01X85215Y15872D01*
G01X85215Y18798D01*
G01X85217Y18813D01*
G01X85220Y18829D01*
G01X85226Y18844D01*
G01X85234Y18857D01*
G01X85245Y18870D01*
G01X86168Y19793D01*
G01X86181Y19803D01*
G01X86194Y19812D01*
G01X86209Y19818D01*
G01X86224Y19822D01*
G01X86241Y19823D01*
G01X88209Y19823D01*
G01X88224Y19822D01*
G01X88238Y19819D01*
G01X88251Y19814D01*
G01X88264Y19807D01*
G01X88276Y19798D01*
G01X88286Y19788D01*
G01X88302Y19764D01*
G01X88325Y19715D01*
G01X88351Y19667D01*
G01X88378Y19620D01*
G01X88408Y19574D01*
G01X88439Y19530D01*
G01X88472Y19486D01*
G01X88506Y19445D01*
G01X88543Y19404D01*
G01X88580Y19365D01*
G01X88620Y19328D01*
G01X88661Y19292D01*
G01X88703Y19258D01*
G01X88747Y19225D01*
G01X88792Y19194D01*
G01X88838Y19166D01*
G01X88885Y19139D01*
G01X88898Y19130D01*
G01X88910Y19120D01*
G01X88919Y19108D01*
G01X88927Y19095D01*
G01X88933Y19080D01*
G01X88937Y19065D01*
G01X88938Y19050D01*
G01X88937Y19034D01*
G01X88933Y19019D01*
G01X88927Y19004D01*
G01X88919Y18991D01*
G01X88910Y18979D01*
G01X88898Y18969D01*
G01X88885Y18960D01*
G01X88838Y18934D01*
G01X88792Y18905D01*
G01X88748Y18875D01*
G01X88705Y18843D01*
G01X88663Y18809D01*
G01X88622Y18774D01*
G01X88583Y18737D01*
G01X88545Y18698D01*
G01X88509Y18658D01*
G01X88475Y18617D01*
G01X88442Y18574D01*
G01X88411Y18530D01*
G01X88382Y18485D01*
G01X88354Y18438D01*
G01X88329Y18391D01*
G01X88305Y18343D01*
G01X88283Y18294D01*
G01X88263Y18244D01*
G01X88246Y18193D01*
G01X88230Y18141D01*
G01X88216Y18089D01*
G01X88205Y18037D01*
G01X88195Y17984D01*
G01X88188Y17930D01*
G01X88182Y17877D01*
G01X88179Y17823D01*
G01X88178Y17769D01*
G01X88179Y17716D01*
G01X88182Y17663D01*
G01X88187Y17610D01*
G01X88195Y17558D01*
G01X88204Y17505D01*
G01X88215Y17453D01*
G01X88229Y17401D01*
G01X88244Y17350D01*
G01X88262Y17300D01*
G01X88281Y17250D01*
G01X88303Y17201D01*
G01X88326Y17154D01*
G01X88351Y17106D01*
G01X88378Y17061D01*
G01X88407Y17016D01*
G01X88437Y16972D01*
G01X88469Y16930D01*
G01X88503Y16888D01*
G01X88538Y16849D01*
G01X88575Y16810D01*
G01X88613Y16773D01*
G01X88654Y16738D01*
G01X88695Y16704D01*
G01X88737Y16672D01*
G01X88781Y16642D01*
G01X88826Y16613D01*
G01X88872Y16586D01*
G01X88919Y16561D01*
G01X88967Y16537D01*
G01X89015Y16516D01*
G01X89065Y16497D01*
G01X89115Y16480D01*
G01X89166Y16464D01*
G01X89218Y16451D01*
G01X89270Y16439D01*
G01X89322Y16430D01*
G01X89375Y16422D01*
G01X89428Y16417D01*
G01X89481Y16414D01*
G01X89535Y16413D01*
G01X89588Y16414D01*
G01X89642Y16417D01*
G01X89695Y16423D01*
G01X89748Y16430D01*
G01X89801Y16439D01*
G01X89853Y16451D01*
G01X89905Y16464D01*
G01X89956Y16480D01*
G01X90006Y16498D01*
G01X90056Y16517D01*
G01X90105Y16539D01*
G01X90153Y16562D01*
G01X90200Y16588D01*
G01X90247Y16615D01*
G01X90292Y16644D01*
G01X90336Y16675D01*
G01X90378Y16707D01*
G01X90419Y16741D01*
G01X90460Y16777D01*
G01X90498Y16814D01*
G01X90535Y16853D01*
G01X90570Y16893D01*
G01X90604Y16935D01*
G01X90636Y16978D01*
G01X90666Y17022D01*
G01X90695Y17067D01*
G01X90722Y17114D01*
G01X90747Y17161D01*
G01X90770Y17209D01*
G01X90791Y17258D01*
G01X90810Y17308D01*
G01X90827Y17359D01*
G01X90843Y17410D01*
G01X90856Y17463D01*
G01X90867Y17515D01*
G01X90876Y17568D01*
G01X90879Y17581D01*
G01X90884Y17595D01*
G01X90891Y17608D01*
G01X90900Y17619D01*
G01X90910Y17629D01*
G01X90922Y17638D01*
G01X90935Y17645D01*
G01X90948Y17650D01*
G01X90962Y17653D01*
G01X90976Y17654D01*
G01X91948Y17654D01*
G01X91981Y17655D01*
G01X92014Y17658D01*
G01X92047Y17664D01*
G01X92079Y17671D01*
G01X92111Y17681D01*
G01X92142Y17693D01*
G01X92172Y17706D01*
G01X92201Y17722D01*
G01X92229Y17739D01*
G01X92256Y17759D01*
G01X92281Y17780D01*
G01X92306Y17802D01*
G01X94465Y19961D01*
G01X94488Y19986D01*
G01X94508Y20011D01*
G01X94528Y20038D01*
G01X94545Y20066D01*
G01X94561Y20095D01*
G01X94574Y20125D01*
G01X94586Y20156D01*
G01X94596Y20188D01*
G01X94603Y20220D01*
G01X94609Y20253D01*
G01X94612Y20286D01*
G01X94613Y20320D01*
G01X94613Y26924D01*
G01X94612Y26957D01*
G01X94609Y26990D01*
G01X94603Y27023D01*
G01X94596Y27055D01*
G01X94586Y27087D01*
G01X94574Y27118D01*
G01X94561Y27148D01*
G01X94545Y27177D01*
G01X94528Y27205D01*
G01X94508Y27232D01*
G01X94488Y27257D01*
G01X94465Y27282D01*
G01X89512Y32235D01*
G01X89487Y32258D01*
G01X89462Y32278D01*
G01X89435Y32298D01*
G01X89407Y32315D01*
G01X89378Y32331D01*
G01X89348Y32344D01*
G01X89317Y32356D01*
G01X89285Y32366D01*
G01X89253Y32373D01*
G01X89220Y32379D01*
G01X89187Y32382D01*
G01X89154Y32383D01*
G37*
G36*
G01X69136Y53849D02*
G01X69088Y53850D01*
G01X69039Y53849D01*
G01X68990Y53846D01*
G01X68942Y53841D01*
G01X68894Y53834D01*
G01X68846Y53824D01*
G01X68799Y53813D01*
G01X68752Y53800D01*
G01X68706Y53785D01*
G01X68660Y53767D01*
G01X68616Y53748D01*
G01X68572Y53728D01*
G01X68529Y53705D01*
G01X68487Y53680D01*
G01X68446Y53653D01*
G01X68406Y53626D01*
G01X68368Y53596D01*
G01X68331Y53565D01*
G01X68295Y53532D01*
G01X68260Y53497D01*
G01X68227Y53461D01*
G01X68196Y53424D01*
G01X68166Y53386D01*
G01X68139Y53346D01*
G01X68112Y53305D01*
G01X68087Y53263D01*
G01X68064Y53220D01*
G01X68044Y53176D01*
G01X68025Y53132D01*
G01X68007Y53086D01*
G01X67992Y53040D01*
G01X67979Y52993D01*
G01X67968Y52946D01*
G01X67958Y52898D01*
G01X67951Y52850D01*
G01X67946Y52802D01*
G01X67943Y52753D01*
G01X67942Y52705D01*
G01X67943Y52656D01*
G01X67946Y52607D01*
G01X67951Y52559D01*
G01X67958Y52511D01*
G01X67968Y52463D01*
G01X67979Y52416D01*
G01X67992Y52369D01*
G01X68007Y52323D01*
G01X68025Y52277D01*
G01X68044Y52233D01*
G01X68064Y52189D01*
G01X68087Y52146D01*
G01X68112Y52104D01*
G01X68139Y52063D01*
G01X68166Y52023D01*
G01X68196Y51985D01*
G01X68227Y51948D01*
G01X68260Y51912D01*
G01X68295Y51877D01*
G01X68331Y51844D01*
G01X68368Y51813D01*
G01X68406Y51783D01*
G01X68446Y51756D01*
G01X68487Y51729D01*
G01X68529Y51704D01*
G01X68572Y51681D01*
G01X68616Y51661D01*
G01X68660Y51642D01*
G01X68706Y51624D01*
G01X68752Y51609D01*
G01X68799Y51596D01*
G01X68846Y51585D01*
G01X68894Y51575D01*
G01X68942Y51568D01*
G01X68990Y51563D01*
G01X69039Y51560D01*
G01X69088Y51559D01*
G01X69136Y51560D01*
G01X69185Y51563D01*
G01X69233Y51568D01*
G01X69281Y51575D01*
G01X69329Y51585D01*
G01X69376Y51596D01*
G01X69423Y51609D01*
G01X69469Y51624D01*
G01X69515Y51642D01*
G01X69559Y51661D01*
G01X69603Y51681D01*
G01X69646Y51704D01*
G01X69688Y51729D01*
G01X69729Y51756D01*
G01X69769Y51783D01*
G01X69807Y51813D01*
G01X69844Y51844D01*
G01X69880Y51877D01*
G01X69915Y51912D01*
G01X69948Y51948D01*
G01X69979Y51985D01*
G01X70009Y52023D01*
G01X70036Y52063D01*
G01X70063Y52104D01*
G01X70088Y52146D01*
G01X70111Y52189D01*
G01X70131Y52233D01*
G01X70150Y52277D01*
G01X70168Y52323D01*
G01X70183Y52369D01*
G01X70196Y52416D01*
G01X70207Y52463D01*
G01X70217Y52511D01*
G01X70224Y52559D01*
G01X70229Y52607D01*
G01X70232Y52656D01*
G01X70233Y52705D01*
G01X70232Y52753D01*
G01X70229Y52802D01*
G01X70224Y52850D01*
G01X70217Y52898D01*
G01X70207Y52946D01*
G01X70196Y52993D01*
G01X70183Y53040D01*
G01X70168Y53086D01*
G01X70150Y53132D01*
G01X70131Y53176D01*
G01X70111Y53220D01*
G01X70088Y53263D01*
G01X70063Y53305D01*
G01X70036Y53346D01*
G01X70009Y53386D01*
G01X69979Y53424D01*
G01X69948Y53461D01*
G01X69915Y53497D01*
G01X69880Y53532D01*
G01X69844Y53565D01*
G01X69807Y53596D01*
G01X69769Y53626D01*
G01X69729Y53653D01*
G01X69688Y53680D01*
G01X69646Y53705D01*
G01X69603Y53728D01*
G01X69559Y53748D01*
G01X69515Y53767D01*
G01X69469Y53785D01*
G01X69423Y53800D01*
G01X69376Y53813D01*
G01X69329Y53824D01*
G01X69281Y53834D01*
G01X69233Y53841D01*
G01X69185Y53846D01*
G01X69136Y53849D01*
G37*

%LPD*%
G36*
G01X70487Y81535D02*
G01X55877Y81535D01*
G01X55862Y81534D01*
G01X55846Y81530D01*
G01X55831Y81524D01*
G01X55818Y81516D01*
G01X55805Y81505D01*
G01X51031Y76730D01*
G01X51006Y76708D01*
G01X50981Y76687D01*
G01X50954Y76667D01*
G01X50926Y76650D01*
G01X50897Y76634D01*
G01X50867Y76621D01*
G01X50836Y76609D01*
G01X50804Y76599D01*
G01X50772Y76592D01*
G01X50739Y76586D01*
G01X50706Y76583D01*
G01X50673Y76582D01*
G01X47106Y76582D01*
G01X47091Y76581D01*
G01X47076Y76577D01*
G01X47062Y76572D01*
G01X47049Y76564D01*
G01X47037Y76555D01*
G01X47027Y76544D01*
G01X47018Y76532D01*
G01X46989Y76484D01*
G01X46959Y76439D01*
G01X46926Y76394D01*
G01X46892Y76351D01*
G01X46856Y76309D01*
G01X46818Y76269D01*
G01X46779Y76230D01*
G01X46738Y76193D01*
G01X46695Y76157D01*
G01X46652Y76124D01*
G01X46607Y76092D01*
G01X46561Y76062D01*
G01X46513Y76034D01*
G01X46500Y76025D01*
G01X46489Y76015D01*
G01X46479Y76003D01*
G01X46471Y75990D01*
G01X46466Y75975D01*
G01X46463Y75961D01*
G01X46461Y75946D01*
G01X46463Y75930D01*
G01X46466Y75916D01*
G01X46471Y75901D01*
G01X46479Y75888D01*
G01X46489Y75876D01*
G01X46500Y75866D01*
G01X46513Y75857D01*
G01X46559Y75830D01*
G01X46603Y75801D01*
G01X46647Y75771D01*
G01X46689Y75738D01*
G01X46730Y75705D01*
G01X46770Y75669D01*
G01X46808Y75632D01*
G01X46845Y75594D01*
G01X46880Y75554D01*
G01X46914Y75513D01*
G01X46946Y75471D01*
G01X46976Y75427D01*
G01X47005Y75382D01*
G01X47031Y75336D01*
G01X47057Y75289D01*
G01X47079Y75241D01*
G01X47095Y75217D01*
G01X47105Y75207D01*
G01X47117Y75198D01*
G01X47130Y75191D01*
G01X47143Y75186D01*
G01X47157Y75183D01*
G01X47172Y75182D01*
G01X52197Y75182D01*
G01X52230Y75181D01*
G01X52263Y75178D01*
G01X52296Y75172D01*
G01X52328Y75165D01*
G01X52360Y75155D01*
G01X52391Y75143D01*
G01X52421Y75130D01*
G01X52450Y75114D01*
G01X52478Y75097D01*
G01X52505Y75077D01*
G01X52530Y75057D01*
G01X52555Y75034D01*
G01X59107Y68481D01*
G01X59120Y68470D01*
G01X59133Y68462D01*
G01X59148Y68456D01*
G01X59164Y68453D01*
G01X59179Y68451D01*
G01X67762Y68451D01*
G01X67777Y68452D01*
G01X67791Y68455D01*
G01X67804Y68460D01*
G01X67817Y68467D01*
G01X67829Y68476D01*
G01X67839Y68486D01*
G01X67855Y68510D01*
G01X67877Y68558D01*
G01X67902Y68604D01*
G01X67929Y68650D01*
G01X67957Y68694D01*
G01X67987Y68738D01*
G01X68019Y68780D01*
G01X68052Y68821D01*
G01X68087Y68860D01*
G01X68123Y68899D01*
G01X68161Y68936D01*
G01X68201Y68971D01*
G01X68241Y69005D01*
G01X68283Y69037D01*
G01X68326Y69067D01*
G01X68370Y69096D01*
G01X68415Y69123D01*
G01X68462Y69148D01*
G01X68509Y69171D01*
G01X68557Y69193D01*
G01X68606Y69213D01*
G01X68656Y69231D01*
G01X68681Y69243D01*
G01X68710Y69248D01*
G01X68762Y69261D01*
G01X68816Y69273D01*
G01X68870Y69284D01*
G01X68924Y69291D01*
G01X68978Y69297D01*
G01X69033Y69300D01*
G01X69088Y69301D01*
G01X69142Y69300D01*
G01X69197Y69297D01*
G01X69251Y69291D01*
G01X69305Y69284D01*
G01X69359Y69273D01*
G01X69413Y69261D01*
G01X69465Y69248D01*
G01X69494Y69243D01*
G01X69519Y69231D01*
G01X69569Y69213D01*
G01X69618Y69193D01*
G01X69666Y69171D01*
G01X69713Y69148D01*
G01X69760Y69123D01*
G01X69805Y69096D01*
G01X69850Y69067D01*
G01X69893Y69036D01*
G01X69935Y69004D01*
G01X69975Y68970D01*
G01X70015Y68935D01*
G01X70053Y68898D01*
G01X70089Y68859D01*
G01X70124Y68820D01*
G01X70157Y68779D01*
G01X70189Y68736D01*
G01X70219Y68693D01*
G01X70247Y68649D01*
G01X70274Y68603D01*
G01X70299Y68556D01*
G01X70321Y68508D01*
G01X70342Y68460D01*
G01X70362Y68410D01*
G01X70379Y68361D01*
G01X70394Y68310D01*
G01X70407Y68259D01*
G01X70418Y68207D01*
G01X70428Y68155D01*
G01X70435Y68102D01*
G01X70440Y68050D01*
G01X70443Y67997D01*
G01X70444Y67945D01*
G01X70443Y67891D01*
G01X70440Y67838D01*
G01X70435Y67785D01*
G01X70428Y67733D01*
G01X70418Y67681D01*
G01X70407Y67629D01*
G01X70394Y67577D01*
G01X70378Y67526D01*
G01X70361Y67476D01*
G01X70341Y67427D01*
G01X70320Y67378D01*
G01X70297Y67330D01*
G01X70272Y67284D01*
G01X70245Y67237D01*
G01X70217Y67193D01*
G01X70186Y67149D01*
G01X70154Y67107D01*
G01X70121Y67066D01*
G01X70086Y67026D01*
G01X70049Y66987D01*
G01X70011Y66950D01*
G01X69971Y66915D01*
G01X69930Y66881D01*
G01X69888Y66849D01*
G01X69844Y66819D01*
G01X69800Y66790D01*
G01X69754Y66763D01*
G01X69741Y66754D01*
G01X69730Y66744D01*
G01X69720Y66732D01*
G01X69712Y66719D01*
G01X69707Y66704D01*
G01X69704Y66690D01*
G01X69702Y66675D01*
G01X69704Y66659D01*
G01X69707Y66645D01*
G01X69712Y66630D01*
G01X69720Y66617D01*
G01X69730Y66605D01*
G01X69741Y66595D01*
G01X69754Y66586D01*
G01X69801Y66559D01*
G01X69846Y66529D01*
G01X69891Y66498D01*
G01X69934Y66465D01*
G01X69975Y66430D01*
G01X70016Y66394D01*
G01X70054Y66356D01*
G01X70092Y66316D01*
G01X70127Y66276D01*
G01X70161Y66234D01*
G01X70193Y66190D01*
G01X70224Y66145D01*
G01X70253Y66099D01*
G01X70280Y66052D01*
G01X70305Y66004D01*
G01X70313Y65990D01*
G01X70323Y65978D01*
G01X70335Y65967D01*
G01X70349Y65958D01*
G01X70364Y65952D01*
G01X70379Y65949D01*
G01X70396Y65947D01*
G01X70411Y65949D01*
G01X70427Y65952D01*
G01X70442Y65958D01*
G01X70456Y65966D01*
G01X70467Y65977D01*
G01X73377Y68886D01*
G01X73388Y68899D01*
G01X73396Y68912D01*
G01X73402Y68927D01*
G01X73406Y68943D01*
G01X73407Y68958D01*
G01X73407Y78615D01*
G01X73406Y78630D01*
G01X73402Y78646D01*
G01X73396Y78661D01*
G01X73388Y78674D01*
G01X73377Y78687D01*
G01X70559Y81505D01*
G01X70546Y81516D01*
G01X70533Y81524D01*
G01X70518Y81530D01*
G01X70502Y81534D01*
G01X70487Y81535D01*
G37*

%LPC*%
G36*
G01X68580Y69977D02*
G01X68061Y69977D01*
G01X68084Y69932D01*
G01X68109Y69889D01*
G01X68136Y69847D01*
G01X68164Y69806D01*
G01X68194Y69767D01*
G01X68226Y69729D01*
G01X68260Y69692D01*
G01X68295Y69657D01*
G01X68332Y69623D01*
G01X68370Y69591D01*
G01X68409Y69561D01*
G01X68450Y69533D01*
G01X68492Y69506D01*
G01X68535Y69481D01*
G01X68580Y69458D01*
G01X68580Y69977D01*
G37*
G36*
G01X70114Y69977D02*
G01X69596Y69977D01*
G01X69596Y69458D01*
G01X69640Y69481D01*
G01X69683Y69506D01*
G01X69725Y69533D01*
G01X69766Y69561D01*
G01X69805Y69591D01*
G01X69843Y69623D01*
G01X69880Y69657D01*
G01X69915Y69692D01*
G01X69949Y69729D01*
G01X69981Y69767D01*
G01X70011Y69806D01*
G01X70039Y69847D01*
G01X70066Y69889D01*
G01X70091Y69932D01*
G01X70114Y69977D01*
G37*
G36*
G01X69640Y71488D02*
G01X69596Y71511D01*
G01X69596Y70993D01*
G01X70114Y70993D01*
G01X70091Y71037D01*
G01X70066Y71080D01*
G01X70039Y71122D01*
G01X70011Y71163D01*
G01X69981Y71202D01*
G01X69949Y71240D01*
G01X69915Y71277D01*
G01X69880Y71312D01*
G01X69843Y71346D01*
G01X69805Y71378D01*
G01X69766Y71408D01*
G01X69725Y71436D01*
G01X69683Y71463D01*
G01X69640Y71488D01*
G37*
G36*
G01X68580Y70993D02*
G01X68580Y71511D01*
G01X68535Y71488D01*
G01X68492Y71463D01*
G01X68450Y71436D01*
G01X68409Y71408D01*
G01X68370Y71378D01*
G01X68332Y71346D01*
G01X68295Y71312D01*
G01X68260Y71277D01*
G01X68226Y71240D01*
G01X68194Y71202D01*
G01X68164Y71163D01*
G01X68136Y71122D01*
G01X68109Y71080D01*
G01X68084Y71037D01*
G01X68061Y70993D01*
G01X68580Y70993D01*
G37*
G36*
G01X69136Y74169D02*
G01X69088Y74170D01*
G01X69039Y74169D01*
G01X68990Y74166D01*
G01X68942Y74161D01*
G01X68894Y74154D01*
G01X68846Y74144D01*
G01X68799Y74133D01*
G01X68752Y74120D01*
G01X68706Y74105D01*
G01X68660Y74087D01*
G01X68616Y74068D01*
G01X68572Y74048D01*
G01X68529Y74025D01*
G01X68487Y74000D01*
G01X68446Y73973D01*
G01X68406Y73946D01*
G01X68368Y73916D01*
G01X68331Y73885D01*
G01X68295Y73852D01*
G01X68260Y73817D01*
G01X68227Y73781D01*
G01X68196Y73744D01*
G01X68166Y73706D01*
G01X68139Y73666D01*
G01X68112Y73625D01*
G01X68087Y73583D01*
G01X68064Y73540D01*
G01X68044Y73496D01*
G01X68025Y73452D01*
G01X68007Y73406D01*
G01X67992Y73360D01*
G01X67979Y73313D01*
G01X67968Y73266D01*
G01X67958Y73218D01*
G01X67951Y73170D01*
G01X67946Y73122D01*
G01X67943Y73073D01*
G01X67942Y73025D01*
G01X67943Y72976D01*
G01X67946Y72927D01*
G01X67951Y72879D01*
G01X67958Y72831D01*
G01X67968Y72783D01*
G01X67979Y72736D01*
G01X67992Y72689D01*
G01X68007Y72643D01*
G01X68025Y72597D01*
G01X68044Y72553D01*
G01X68064Y72509D01*
G01X68087Y72466D01*
G01X68112Y72424D01*
G01X68139Y72383D01*
G01X68166Y72343D01*
G01X68196Y72305D01*
G01X68227Y72268D01*
G01X68260Y72232D01*
G01X68295Y72197D01*
G01X68331Y72164D01*
G01X68368Y72133D01*
G01X68406Y72103D01*
G01X68446Y72076D01*
G01X68487Y72049D01*
G01X68529Y72024D01*
G01X68572Y72001D01*
G01X68616Y71981D01*
G01X68660Y71962D01*
G01X68706Y71944D01*
G01X68752Y71929D01*
G01X68799Y71916D01*
G01X68846Y71905D01*
G01X68894Y71895D01*
G01X68942Y71888D01*
G01X68990Y71883D01*
G01X69039Y71880D01*
G01X69088Y71879D01*
G01X69136Y71880D01*
G01X69185Y71883D01*
G01X69233Y71888D01*
G01X69281Y71895D01*
G01X69329Y71905D01*
G01X69376Y71916D01*
G01X69423Y71929D01*
G01X69469Y71944D01*
G01X69515Y71962D01*
G01X69559Y71981D01*
G01X69603Y72001D01*
G01X69646Y72024D01*
G01X69688Y72049D01*
G01X69729Y72076D01*
G01X69769Y72103D01*
G01X69807Y72133D01*
G01X69844Y72164D01*
G01X69880Y72197D01*
G01X69915Y72232D01*
G01X69948Y72268D01*
G01X69979Y72305D01*
G01X70009Y72343D01*
G01X70036Y72383D01*
G01X70063Y72424D01*
G01X70088Y72466D01*
G01X70111Y72509D01*
G01X70131Y72553D01*
G01X70150Y72597D01*
G01X70168Y72643D01*
G01X70183Y72689D01*
G01X70196Y72736D01*
G01X70207Y72783D01*
G01X70217Y72831D01*
G01X70224Y72879D01*
G01X70229Y72927D01*
G01X70232Y72976D01*
G01X70233Y73025D01*
G01X70232Y73073D01*
G01X70229Y73122D01*
G01X70224Y73170D01*
G01X70217Y73218D01*
G01X70207Y73266D01*
G01X70196Y73313D01*
G01X70183Y73360D01*
G01X70168Y73406D01*
G01X70150Y73452D01*
G01X70131Y73496D01*
G01X70111Y73540D01*
G01X70088Y73583D01*
G01X70063Y73625D01*
G01X70036Y73666D01*
G01X70009Y73706D01*
G01X69979Y73744D01*
G01X69948Y73781D01*
G01X69915Y73817D01*
G01X69880Y73852D01*
G01X69844Y73885D01*
G01X69807Y73916D01*
G01X69769Y73946D01*
G01X69729Y73973D01*
G01X69688Y74000D01*
G01X69646Y74025D01*
G01X69603Y74048D01*
G01X69559Y74068D01*
G01X69515Y74087D01*
G01X69469Y74105D01*
G01X69423Y74120D01*
G01X69376Y74133D01*
G01X69329Y74144D01*
G01X69281Y74154D01*
G01X69233Y74161D01*
G01X69185Y74166D01*
G01X69136Y74169D01*
G37*
G36*
G01X69136Y76709D02*
G01X69088Y76710D01*
G01X69039Y76709D01*
G01X68990Y76706D01*
G01X68942Y76701D01*
G01X68894Y76694D01*
G01X68846Y76684D01*
G01X68799Y76673D01*
G01X68752Y76660D01*
G01X68706Y76645D01*
G01X68660Y76627D01*
G01X68616Y76608D01*
G01X68572Y76588D01*
G01X68529Y76565D01*
G01X68487Y76540D01*
G01X68446Y76513D01*
G01X68406Y76486D01*
G01X68368Y76456D01*
G01X68331Y76425D01*
G01X68295Y76392D01*
G01X68260Y76357D01*
G01X68227Y76321D01*
G01X68196Y76284D01*
G01X68166Y76246D01*
G01X68139Y76206D01*
G01X68112Y76165D01*
G01X68087Y76123D01*
G01X68064Y76080D01*
G01X68044Y76036D01*
G01X68025Y75992D01*
G01X68007Y75946D01*
G01X67992Y75900D01*
G01X67979Y75853D01*
G01X67968Y75806D01*
G01X67958Y75758D01*
G01X67951Y75710D01*
G01X67946Y75662D01*
G01X67943Y75613D01*
G01X67942Y75565D01*
G01X67943Y75516D01*
G01X67946Y75467D01*
G01X67951Y75419D01*
G01X67958Y75371D01*
G01X67968Y75323D01*
G01X67979Y75276D01*
G01X67992Y75229D01*
G01X68007Y75183D01*
G01X68025Y75137D01*
G01X68044Y75093D01*
G01X68064Y75049D01*
G01X68087Y75006D01*
G01X68112Y74964D01*
G01X68139Y74923D01*
G01X68166Y74883D01*
G01X68196Y74845D01*
G01X68227Y74808D01*
G01X68260Y74772D01*
G01X68295Y74737D01*
G01X68331Y74704D01*
G01X68368Y74673D01*
G01X68406Y74643D01*
G01X68446Y74616D01*
G01X68487Y74589D01*
G01X68529Y74564D01*
G01X68572Y74541D01*
G01X68616Y74521D01*
G01X68660Y74502D01*
G01X68706Y74484D01*
G01X68752Y74469D01*
G01X68799Y74456D01*
G01X68846Y74445D01*
G01X68894Y74435D01*
G01X68942Y74428D01*
G01X68990Y74423D01*
G01X69039Y74420D01*
G01X69088Y74419D01*
G01X69136Y74420D01*
G01X69185Y74423D01*
G01X69233Y74428D01*
G01X69281Y74435D01*
G01X69329Y74445D01*
G01X69376Y74456D01*
G01X69423Y74469D01*
G01X69469Y74484D01*
G01X69515Y74502D01*
G01X69559Y74521D01*
G01X69603Y74541D01*
G01X69646Y74564D01*
G01X69688Y74589D01*
G01X69729Y74616D01*
G01X69769Y74643D01*
G01X69807Y74673D01*
G01X69844Y74704D01*
G01X69880Y74737D01*
G01X69915Y74772D01*
G01X69948Y74808D01*
G01X69979Y74845D01*
G01X70009Y74883D01*
G01X70036Y74923D01*
G01X70063Y74964D01*
G01X70088Y75006D01*
G01X70111Y75049D01*
G01X70131Y75093D01*
G01X70150Y75137D01*
G01X70168Y75183D01*
G01X70183Y75229D01*
G01X70196Y75276D01*
G01X70207Y75323D01*
G01X70217Y75371D01*
G01X70224Y75419D01*
G01X70229Y75467D01*
G01X70232Y75516D01*
G01X70233Y75565D01*
G01X70232Y75613D01*
G01X70229Y75662D01*
G01X70224Y75710D01*
G01X70217Y75758D01*
G01X70207Y75806D01*
G01X70196Y75853D01*
G01X70183Y75900D01*
G01X70168Y75946D01*
G01X70150Y75992D01*
G01X70131Y76036D01*
G01X70111Y76080D01*
G01X70088Y76123D01*
G01X70063Y76165D01*
G01X70036Y76206D01*
G01X70009Y76246D01*
G01X69979Y76284D01*
G01X69948Y76321D01*
G01X69915Y76357D01*
G01X69880Y76392D01*
G01X69844Y76425D01*
G01X69807Y76456D01*
G01X69769Y76486D01*
G01X69729Y76513D01*
G01X69688Y76540D01*
G01X69646Y76565D01*
G01X69603Y76588D01*
G01X69559Y76608D01*
G01X69515Y76627D01*
G01X69469Y76645D01*
G01X69423Y76660D01*
G01X69376Y76673D01*
G01X69329Y76684D01*
G01X69281Y76694D01*
G01X69233Y76701D01*
G01X69185Y76706D01*
G01X69136Y76709D01*
G37*
G36*
G01X69977Y79250D02*
G01X68199Y79250D01*
G01X68175Y79249D01*
G01X68151Y79245D01*
G01X68128Y79240D01*
G01X68106Y79233D01*
G01X68084Y79223D01*
G01X68063Y79211D01*
G01X68044Y79198D01*
G01X68026Y79183D01*
G01X68009Y79166D01*
G01X67994Y79148D01*
G01X67981Y79129D01*
G01X67969Y79108D01*
G01X67959Y79086D01*
G01X67952Y79064D01*
G01X67947Y79041D01*
G01X67943Y79017D01*
G01X67942Y78994D01*
G01X67942Y77216D01*
G01X67943Y77192D01*
G01X67947Y77168D01*
G01X67952Y77145D01*
G01X67959Y77123D01*
G01X67969Y77101D01*
G01X67981Y77080D01*
G01X67994Y77061D01*
G01X68009Y77043D01*
G01X68026Y77026D01*
G01X68044Y77011D01*
G01X68063Y76998D01*
G01X68084Y76986D01*
G01X68106Y76976D01*
G01X68128Y76969D01*
G01X68151Y76964D01*
G01X68175Y76960D01*
G01X68199Y76959D01*
G01X69977Y76959D01*
G01X70000Y76960D01*
G01X70024Y76964D01*
G01X70047Y76969D01*
G01X70069Y76976D01*
G01X70091Y76986D01*
G01X70112Y76998D01*
G01X70131Y77011D01*
G01X70149Y77026D01*
G01X70166Y77043D01*
G01X70181Y77061D01*
G01X70194Y77080D01*
G01X70206Y77101D01*
G01X70216Y77123D01*
G01X70223Y77145D01*
G01X70228Y77168D01*
G01X70232Y77192D01*
G01X70233Y77216D01*
G01X70233Y78994D01*
G01X70232Y79017D01*
G01X70228Y79041D01*
G01X70223Y79064D01*
G01X70216Y79086D01*
G01X70206Y79108D01*
G01X70194Y79129D01*
G01X70181Y79148D01*
G01X70166Y79166D01*
G01X70149Y79183D01*
G01X70131Y79198D01*
G01X70112Y79211D01*
G01X70091Y79223D01*
G01X70069Y79233D01*
G01X70047Y79240D01*
G01X70024Y79245D01*
G01X70000Y79249D01*
G01X69977Y79250D01*
G37*

%LPD*%
G54D23*
G01X40881Y69596D02*
G01X40881Y61226D01*
G01X44704Y57404D01*
G01X44704Y55626D01*
G01X45847Y54483D01*
G01X45847Y52197D01*
G01X45847Y36957D02*
G01X45847Y35052D01*
G01X38354Y27559D01*
G01X38354Y16002D01*
G01X38100Y15748D01*
G01X73776Y8255D02*
G01X61849Y8255D01*
G01X59944Y10160D01*
G01X59944Y16383D01*
G01X59690Y16637D01*
G01X62230Y24257D02*
G01X62230Y22352D01*
G01X66040Y22352D01*
G01X68453Y19939D01*
G01X74803Y19939D01*
G01X76327Y18415D01*
G01X76327Y10832D01*
G01X59690Y24257D02*
G01X59690Y27813D01*
G01X61087Y29210D01*
G01X86995Y29210D01*
G01X89535Y26670D01*
G01X89535Y22870D01*
G01X76316Y8255D02*
G01X76316Y11087D01*
G01X89154Y8255D02*
G01X89154Y5715D01*
G01X69088Y45085D02*
G01X60960Y45085D01*
G01X59055Y46990D01*
G01X45974Y46990D01*
G01X45847Y47117D01*
G01X69088Y47625D02*
G01X71882Y47625D01*
G01X72644Y46863D01*
G01X72644Y41783D01*
G01X71247Y40386D01*
G01X54610Y40386D01*
G01X52959Y42037D01*
G01X45847Y42037D01*
G01X96139Y69215D02*
G01X92075Y69215D01*
G01X91059Y68199D01*
G01X91059Y63881D01*
G01X90043Y62865D01*
G01X84328Y62865D01*
G01X96139Y71755D02*
G01X98044Y71755D01*
G01X99822Y69977D01*
G01X99822Y61849D01*
G01X98298Y60325D01*
G01X84328Y60325D01*
G01X84328Y70485D02*
G01X89789Y70485D01*
G01X93345Y74041D01*
G01X95885Y74041D01*
G01X96139Y74295D01*
G01X64770Y16637D02*
G01X65024Y16637D01*
G01X66040Y15621D01*
G01X69342Y15621D01*
G01X69342Y15621D02*
G01X71882Y15621D01*
G01X89535Y23253D02*
G01X83693Y23253D01*
G01X82435Y24511D01*
G01X80264Y24511D01*
G01X80264Y24511D02*
G01X77724Y24511D01*
G01X45847Y69596D02*
G01X40881Y69596D01*
G01X40881Y69596D02*
G01X40754Y69469D01*
G01X21336Y69469D01*
G01X21336Y69469D02*
G01X21336Y72009D01*
G01X18796Y44577D02*
G01X45847Y44577D01*
G01X89154Y8255D02*
G01X87249Y8255D01*
G01X83566Y4572D01*
G01X78994Y4572D01*
G01X76200Y7366D01*
G01X76200Y8138D01*
G01X76316Y8255D01*
G01X45720Y15748D02*
G01X45720Y13716D01*
G01X47498Y11938D01*
G01X57658Y11938D01*
G01X59817Y14097D01*
G01X59817Y16510D01*
G01X59690Y16637D01*
G01X19075Y44577D02*
G01X18669Y44577D01*
G01X17018Y46228D01*
G01X17018Y86106D01*
G01X17907Y86995D01*
G01X96901Y86995D01*
G01X99949Y83947D01*
G01X99949Y80010D01*
G01X102362Y77597D01*
G01X102362Y60071D01*
G01X95504Y53213D01*
G01X95504Y46609D01*
G01X91440Y42545D01*
G01X84328Y42545D01*
G01X40881Y69596D02*
G01X40881Y81648D01*
G01X43815Y84582D01*
G01X84836Y84582D01*
G01X86741Y82677D01*
G01X86741Y81280D01*
G01X88392Y79629D01*
G01X88392Y78841D01*
G01X93268Y73964D01*
G01X69088Y65405D02*
G01X70612Y65405D01*
G01X73914Y68707D01*
G01X73914Y78867D01*
G01X70739Y82042D01*
G01X55626Y82042D01*
G01X50673Y77089D01*
G01X45974Y77089D01*
G01X45847Y77216D01*
G01X69088Y67945D02*
G01X58928Y67945D01*
G01X52197Y74676D01*
G01X45847Y74676D01*
G01X69088Y62865D02*
G01X53340Y62865D01*
G01X51435Y64770D01*
G01X51435Y69469D01*
G01X48768Y72136D01*
G01X45847Y72136D01*
G01X64770Y16637D02*
G01X64770Y20066D01*
G01X64008Y20828D01*
G01X61468Y20828D01*
G01X60833Y21463D01*
G01X56388Y21463D01*
G01X54737Y23114D01*
G01X54737Y28321D01*
G01X58293Y31877D01*
G01X89154Y31877D01*
G01X94107Y26924D01*
G01X94107Y20320D01*
G01X91948Y18161D01*
G01X89926Y18161D01*
G01X89535Y17769D01*
G01X89535Y20330D02*
G01X85852Y20330D01*
G01X85852Y20193D01*
G01X84709Y19050D01*
G01X84709Y15621D01*
G01X86233Y14097D01*
G01X93726Y14097D01*
G01X94234Y13589D01*
G01X94234Y3048D01*
G01X93091Y1905D01*
G01X45339Y1905D01*
G01X41910Y5334D01*
G01X41910Y17526D01*
G01X43942Y19558D01*
G01X59309Y19558D01*
G01X62230Y16637D01*
G01X45847Y39497D02*
G01X21463Y39497D01*
G01X21463Y39497D02*
G01X21463Y36957D01*
G01X21463Y39497D02*
G01X21463Y36957D01*
G01X21463Y39497D02*
G01X17018Y39497D01*
G01X17018Y39751D01*
G01X15113Y41656D01*
G01X15113Y86868D01*
G01X17272Y89027D01*
G01X102489Y89027D01*
G01X106299Y85217D01*
G01X106299Y36957D01*
G01X103632Y34290D01*
G01X86741Y34290D01*
G01X77597Y43434D01*
G01X77597Y71501D01*
G01X77597Y71501D02*
G01X77597Y71755D01*
G01X81153Y75311D01*
G01X83059Y75311D01*
G01X98679Y5842D02*
G01X98679Y8382D01*
G01X98679Y8382D02*
G01X98679Y34290D01*
G01X84328Y75565D02*
G01X83662Y75565D01*
G01X84328Y75565D02*
G01X86487Y75565D01*
G01X84328Y75565D02*
G01X83820Y75565D01*
G01X82931Y76454D01*
G01X84328Y75565D02*
G01X82677Y73914D01*
G01X82550Y73914D01*
G01X84328Y75565D02*
G01X84328Y75438D01*
G01X85598Y74168D01*
G01X84328Y75565D02*
G01X84709Y75565D01*
G01X86106Y76962D01*
G01X84328Y75565D02*
G01X85090Y75565D01*
G01X85852Y76327D01*
G01X84328Y75565D02*
G01X84963Y75565D01*
G01X85598Y74930D01*
G01X84328Y75565D02*
G01X84582Y75565D01*
G01X85217Y74930D01*
G01X84328Y75565D02*
G01X84328Y75692D01*
G01X83566Y76454D01*
G01X84328Y75692D02*
G01X84328Y75819D01*
G01X85090Y76581D01*
G54D11*
G01X89154Y5715D03*
G54D12*
G01X89154Y8255D03*
G54D11*
G01X71882Y15621D03*
G54D12*
G01X69342Y15621D03*
G54D11*
G01X21463Y36957D03*
G54D12*
G01X21463Y39497D03*
G54D11*
G01X21336Y69469D03*
G54D12*
G01X21336Y72009D03*
G54D13*
G01X89535Y20330D03*
G01X89535Y22870D03*
G01X89535Y17769D03*
G01X76316Y8255D03*
G01X73776Y8255D03*
G01X78877Y8255D03*
G01X69088Y67945D03*
G54D14*
G01X69088Y70485D03*
G01X69088Y73025D03*
G01X69088Y75565D03*
G54D15*
G01X69088Y78105D03*
G54D13*
G01X69088Y65405D03*
G01X69088Y62865D03*
G54D14*
G01X69088Y60325D03*
G01X69088Y57785D03*
G01X69088Y55245D03*
G01X69088Y52705D03*
G01X69088Y50165D03*
G54D13*
G01X69088Y47625D03*
G01X69088Y45085D03*
G01X69088Y42545D03*
G54D14*
G01X84328Y78105D03*
G01X84328Y75565D03*
G01X84328Y73025D03*
G54D13*
G01X84328Y70485D03*
G54D14*
G01X84328Y67945D03*
G01X84328Y65405D03*
G54D13*
G01X84328Y62865D03*
G01X84328Y60325D03*
G54D14*
G01X84328Y57785D03*
G01X84328Y55245D03*
G01X84328Y52705D03*
G01X84328Y50165D03*
G01X84328Y47625D03*
G01X84328Y45085D03*
G54D13*
G01X84328Y42545D03*
G54D16*
G01X96139Y76835D03*
G54D13*
G01X96139Y74295D03*
G01X96139Y71755D03*
G01X96139Y69215D03*
G01X38100Y15748D03*
G01X45720Y15748D03*
G54D17*
G01X45847Y52197D03*
G54D18*
G01X45847Y49657D03*
G54D13*
G01X45847Y47117D03*
G01X45847Y44577D03*
G01X45847Y42037D03*
G54D18*
G01X45847Y39497D03*
G54D13*
G01X45847Y36957D03*
G54D11*
G01X80264Y24511D03*
G54D12*
G01X77724Y24511D03*
G54D19*
G01X43586Y61685D03*
G01X27586Y61685D03*
G54D13*
G01X45847Y77216D03*
G01X45847Y74676D03*
G01X45847Y72136D03*
G01X45847Y69596D03*
G54D20*
G01X45847Y67056D03*
G54D21*
G01X57150Y16637D03*
G54D13*
G01X59690Y16637D03*
G01X62230Y16637D03*
G01X64770Y16637D03*
G54D22*
G01X64770Y24257D03*
G54D13*
G01X62230Y24257D03*
G01X59690Y24257D03*
G54D22*
G01X57150Y24257D03*
G54D11*
G01X98679Y5842D03*
G54D12*
G01X98679Y8382D03*
M00*
M02*
