G04 Layer: TopLayer*
G04 EasyEDA v6.3.22, 2020-02-07T10:38:26+05:30*
G04 d98ca743bd924faf94c975302ac9eeb7,545d4b8ce55c4096bfffc31d6a5384ca,10*
G04 Gerber Generator version 0.2*
G04 Scale: 100 percent, Rotated: No, Reflected: No *
G04 Dimensions in millimeters *
G04 leading zeros omitted , absolute positions ,3 integer and 3 decimal *
%FSLAX33Y33*%
%MOMM*%
G90*
G71D02*

%ADD11R,1.999996X1.999996*%
%ADD12C,1.999996*%
%ADD13C,2.199996*%
%ADD14C,1.778000*%
%ADD15R,1.778000X1.778000*%
%ADD16C,1.799996*%
%ADD17R,1.919986X2.199996*%
%ADD18C,1.919986*%
%ADD19C,3.302000*%
%ADD20C,1.524000*%
%ADD21R,1.397000X1.397000*%
%ADD22C,1.397000*%

%LPD*%
G54D11*
G01X89154Y5715D03*
G54D12*
G01X89154Y8255D03*
G54D11*
G01X71882Y15621D03*
G54D12*
G01X69342Y15621D03*
G54D11*
G01X21463Y36957D03*
G54D12*
G01X21463Y39497D03*
G54D11*
G01X21336Y69469D03*
G54D12*
G01X21336Y72009D03*
G54D13*
G01X89535Y20330D03*
G01X89535Y22870D03*
G01X89535Y17769D03*
G01X76316Y8255D03*
G01X73776Y8255D03*
G01X78877Y8255D03*
G01X69088Y67945D03*
G54D14*
G01X69088Y70485D03*
G01X69088Y73025D03*
G01X69088Y75565D03*
G54D15*
G01X69088Y78105D03*
G54D13*
G01X69088Y65405D03*
G01X69088Y62865D03*
G54D14*
G01X69088Y60325D03*
G01X69088Y57785D03*
G01X69088Y55245D03*
G01X69088Y52705D03*
G01X69088Y50165D03*
G54D13*
G01X69088Y47625D03*
G01X69088Y45085D03*
G01X69088Y42545D03*
G54D14*
G01X84328Y78105D03*
G01X84328Y75565D03*
G01X84328Y73025D03*
G54D13*
G01X84328Y70485D03*
G54D14*
G01X84328Y67945D03*
G01X84328Y65405D03*
G54D13*
G01X84328Y62865D03*
G01X84328Y60325D03*
G54D14*
G01X84328Y57785D03*
G01X84328Y55245D03*
G01X84328Y52705D03*
G01X84328Y50165D03*
G01X84328Y47625D03*
G01X84328Y45085D03*
G54D13*
G01X84328Y42545D03*
G54D16*
G01X96139Y76835D03*
G54D13*
G01X96139Y74295D03*
G01X96139Y71755D03*
G01X96139Y69215D03*
G01X38100Y15748D03*
G01X45720Y15748D03*
G54D17*
G01X45847Y52197D03*
G54D18*
G01X45847Y49657D03*
G54D13*
G01X45847Y47117D03*
G01X45847Y44577D03*
G01X45847Y42037D03*
G54D18*
G01X45847Y39497D03*
G54D13*
G01X45847Y36957D03*
G54D11*
G01X80264Y24511D03*
G54D12*
G01X77724Y24511D03*
G54D19*
G01X43586Y61685D03*
G01X27586Y61685D03*
G54D13*
G01X45847Y77216D03*
G01X45847Y74676D03*
G01X45847Y72136D03*
G01X45847Y69596D03*
G54D20*
G01X45847Y67056D03*
G54D21*
G01X57150Y16637D03*
G54D13*
G01X59690Y16637D03*
G01X62230Y16637D03*
G01X64770Y16637D03*
G54D22*
G01X64770Y24257D03*
G54D13*
G01X62230Y24257D03*
G01X59690Y24257D03*
G54D22*
G01X57150Y24257D03*
G54D11*
G01X98679Y5842D03*
G54D12*
G01X98679Y8382D03*
M00*
M02*
