G04 Layer: TopSilkLayer*
G04 EasyEDA v6.3.22, 2020-02-07T10:38:26+05:30*
G04 d98ca743bd924faf94c975302ac9eeb7,545d4b8ce55c4096bfffc31d6a5384ca,10*
G04 Gerber Generator version 0.2*
G04 Scale: 100 percent, Rotated: No, Reflected: No *
G04 Dimensions in millimeters *
G04 leading zeros omitted , absolute positions ,3 integer and 3 decimal *
%FSLAX33Y33*%
%MOMM*%
G90*
G71D02*

%ADD10C,0.254000*%
%ADD24C,0.203200*%
%ADD25C,0.202999*%
%ADD26C,0.228600*%
%ADD27C,0.152400*%
%ADD28C,0.100000*%

%LPD*%
G54D24*
G01X87884Y9525D02*
G01X90424Y9525D01*
G01X90424Y4445D01*
G01X87884Y4445D01*
G01X87884Y6350D01*
G54D25*
G01X87884Y9525D02*
G01X87884Y6350D01*
G54D24*
G01X68072Y14351D02*
G01X68072Y16891D01*
G01X73152Y16891D01*
G01X73152Y14351D01*
G01X71247Y14351D01*
G54D25*
G01X68072Y14351D02*
G01X71247Y14351D01*
G54D24*
G01X20193Y40767D02*
G01X22733Y40767D01*
G01X22733Y35687D01*
G01X20193Y35687D01*
G01X20193Y37592D01*
G54D25*
G01X20193Y40767D02*
G01X20193Y37592D01*
G54D24*
G01X20066Y73279D02*
G01X22606Y73279D01*
G01X22606Y68199D01*
G01X20066Y68199D01*
G01X20066Y70104D01*
G54D25*
G01X20066Y73279D02*
G01X20066Y70104D01*
G54D10*
G01X90805Y23124D02*
G01X91186Y23124D01*
G01X91567Y23124D01*
G01X91186Y23124D01*
G01X87335Y25069D02*
G01X91735Y25069D01*
G01X91735Y15569D01*
G01X87335Y15569D01*
G01X87335Y25069D01*
G01X86894Y25069D02*
G01X87094Y25069D01*
G01X87094Y24307D01*
G01X86894Y24307D01*
G01X86894Y25069D01*
G01X86894Y16332D02*
G01X87094Y16332D01*
G01X87094Y15570D01*
G01X86894Y15570D01*
G01X86894Y16332D01*
G01X73522Y9525D02*
G01X73522Y9906D01*
G01X73522Y10287D01*
G01X73522Y9906D01*
G01X71577Y6055D02*
G01X71577Y10455D01*
G01X81077Y10455D01*
G01X81077Y6055D01*
G01X71577Y6055D01*
G01X71577Y5614D02*
G01X71577Y5814D01*
G01X72339Y5814D01*
G01X72339Y5614D01*
G01X71577Y5614D01*
G01X80314Y5614D02*
G01X80314Y5814D01*
G01X81076Y5814D01*
G01X81076Y5614D01*
G01X80314Y5614D01*
G01X67818Y38735D02*
G01X85598Y38735D01*
G01X85598Y38735D02*
G01X85598Y81915D01*
G01X85598Y81915D02*
G01X67818Y81915D01*
G01X67818Y81915D02*
G01X67818Y38735D01*
G01X72898Y42545D02*
G01X72898Y34925D01*
G01X80518Y34925D01*
G01X80518Y42545D01*
G01X72898Y42545D01*
G01X94869Y78105D02*
G01X94869Y67945D01*
G01X99949Y67945D01*
G01X99949Y78105D01*
G01X94869Y78105D01*
G01X101473Y81915D02*
G01X180975Y81915D01*
G01X180975Y46355D01*
G01X101473Y46355D01*
G01X101473Y81915D01*
G01X39370Y16510D02*
G01X44450Y16510D01*
G01X44450Y16510D02*
G01X44450Y15748D01*
G01X44450Y15748D02*
G01X44450Y14986D01*
G01X44450Y14986D02*
G01X39370Y14986D01*
G01X39370Y14986D02*
G01X39370Y15748D01*
G01X39370Y15748D02*
G01X39370Y16510D01*
G01X44450Y15748D02*
G01X44704Y15748D01*
G01X39370Y15748D02*
G01X39116Y15748D01*
G01X48387Y54737D02*
G01X48387Y34417D01*
G01X35687Y34417D01*
G01X35687Y54737D01*
G01X48387Y54737D01*
G54D24*
G01X76454Y23241D02*
G01X76454Y25781D01*
G01X81534Y25781D01*
G01X81534Y23241D01*
G01X79629Y23241D01*
G54D25*
G01X76454Y23241D02*
G01X79629Y23241D01*
G54D10*
G01X48387Y59436D02*
G01X22987Y59436D01*
G01X22987Y78486D01*
G01X48387Y78486D01*
G01X48387Y59436D01*
G01X38227Y67056D02*
G01X28067Y67056D01*
G01X28067Y77216D01*
G01X38227Y77216D01*
G01X38227Y67056D01*
G54D26*
G01X55880Y17907D02*
G01X66040Y17907D01*
G01X66040Y22987D01*
G01X55880Y22987D01*
G01X55880Y17907D01*
G54D24*
G01X97409Y9652D02*
G01X99949Y9652D01*
G01X99949Y4572D01*
G01X97409Y4572D01*
G01X97409Y6477D01*
G54D25*
G01X97409Y9652D02*
G01X97409Y6477D01*
G54D27*
G01X86857Y7170D02*
G01X86908Y7066D01*
G01X87012Y6962D01*
G01X87116Y6908D01*
G01X87274Y6858D01*
G01X87533Y6858D01*
G01X87688Y6908D01*
G01X87792Y6962D01*
G01X87896Y7066D01*
G01X87947Y7170D01*
G01X87947Y7378D01*
G01X87896Y7480D01*
G01X87792Y7584D01*
G01X87688Y7637D01*
G01X87533Y7688D01*
G01X87274Y7688D01*
G01X87116Y7637D01*
G01X87012Y7584D01*
G01X86908Y7480D01*
G01X86857Y7378D01*
G01X86857Y7170D01*
G01X86857Y8031D02*
G01X87637Y8031D01*
G01X87792Y8084D01*
G01X87896Y8188D01*
G01X87947Y8343D01*
G01X87947Y8448D01*
G01X87896Y8602D01*
G01X87792Y8707D01*
G01X87637Y8760D01*
G01X86857Y8760D01*
G01X86857Y9466D02*
G01X87947Y9466D01*
G01X86857Y9103D02*
G01X86857Y9829D01*
G01X86857Y10172D02*
G01X87947Y10172D01*
G01X86857Y10172D02*
G01X86857Y10640D01*
G01X86908Y10795D01*
G01X86961Y10848D01*
G01X87066Y10899D01*
G01X87221Y10899D01*
G01X87325Y10848D01*
G01X87376Y10795D01*
G01X87429Y10640D01*
G01X87429Y10172D01*
G01X86857Y11242D02*
G01X87637Y11242D01*
G01X87792Y11295D01*
G01X87896Y11399D01*
G01X87947Y11554D01*
G01X87947Y11658D01*
G01X87896Y11813D01*
G01X87792Y11917D01*
G01X87637Y11971D01*
G01X86857Y11971D01*
G01X86857Y12677D02*
G01X87947Y12677D01*
G01X86857Y12313D02*
G01X86857Y13040D01*
G01X70739Y13947D02*
G01X69804Y13947D01*
G01X69461Y13533D02*
G01X69357Y13479D01*
G01X69202Y13324D01*
G01X69202Y14414D01*
G01X68806Y13583D02*
G01X68806Y13533D01*
G01X68755Y13428D01*
G01X68701Y13375D01*
G01X68597Y13324D01*
G01X68389Y13324D01*
G01X68287Y13375D01*
G01X68234Y13428D01*
G01X68183Y13533D01*
G01X68183Y13637D01*
G01X68234Y13741D01*
G01X68338Y13896D01*
G01X68859Y14414D01*
G01X68130Y14414D01*
G01X67787Y13324D02*
G01X67373Y14414D01*
G01X66956Y13324D02*
G01X67373Y14414D01*
G01X19425Y38879D02*
G01X19321Y38826D01*
G01X19217Y38722D01*
G01X19166Y38620D01*
G01X19166Y38412D01*
G01X19217Y38308D01*
G01X19321Y38204D01*
G01X19425Y38150D01*
G01X19583Y38100D01*
G01X19842Y38100D01*
G01X19997Y38150D01*
G01X20101Y38204D01*
G01X20205Y38308D01*
G01X20256Y38412D01*
G01X20256Y38620D01*
G01X20205Y38722D01*
G01X20101Y38826D01*
G01X19997Y38879D01*
G01X19842Y38879D01*
G01X19842Y38620D02*
G01X19842Y38879D01*
G01X19166Y39222D02*
G01X20256Y39222D01*
G01X19166Y39222D02*
G01X20256Y39949D01*
G01X19166Y39949D02*
G01X20256Y39949D01*
G01X19166Y40292D02*
G01X20256Y40292D01*
G01X19166Y40292D02*
G01X19166Y40655D01*
G01X19217Y40812D01*
G01X19321Y40916D01*
G01X19425Y40967D01*
G01X19583Y41021D01*
G01X19842Y41021D01*
G01X19997Y40967D01*
G01X20101Y40916D01*
G01X20205Y40812D01*
G01X20256Y40655D01*
G01X20256Y40292D01*
G01X19194Y71079D02*
G01X20129Y71079D01*
G01X19662Y70612D02*
G01X19662Y71546D01*
G01X19039Y72514D02*
G01X19039Y71993D01*
G01X19507Y71942D01*
G01X19456Y71993D01*
G01X19403Y72148D01*
G01X19403Y72306D01*
G01X19456Y72461D01*
G01X19558Y72565D01*
G01X19715Y72618D01*
G01X19819Y72618D01*
G01X19974Y72565D01*
G01X20078Y72461D01*
G01X20129Y72306D01*
G01X20129Y72148D01*
G01X20078Y71993D01*
G01X20027Y71942D01*
G01X19923Y71889D01*
G01X19039Y72961D02*
G01X20129Y73375D01*
G01X19039Y73792D02*
G01X20129Y73375D01*
G01X89154Y25846D02*
G01X89258Y25900D01*
G01X89413Y26055D01*
G01X89413Y24965D01*
G01X90068Y26055D02*
G01X89913Y26004D01*
G01X89809Y25846D01*
G01X89755Y25587D01*
G01X89755Y25432D01*
G01X89809Y25171D01*
G01X89913Y25016D01*
G01X90068Y24965D01*
G01X90172Y24965D01*
G01X90327Y25016D01*
G01X90431Y25171D01*
G01X90484Y25432D01*
G01X90484Y25587D01*
G01X90431Y25846D01*
G01X90327Y26004D01*
G01X90172Y26055D01*
G01X90068Y26055D01*
G01X90827Y26055D02*
G01X90827Y24965D01*
G01X91554Y26055D02*
G01X90827Y25328D01*
G01X91086Y25587D02*
G01X91554Y24965D01*
G01X92209Y26055D02*
G01X92105Y26004D01*
G01X92001Y25900D01*
G01X91948Y25796D01*
G01X91897Y25638D01*
G01X91897Y25379D01*
G01X91948Y25224D01*
G01X92001Y25120D01*
G01X92105Y25016D01*
G01X92209Y24965D01*
G01X92417Y24965D01*
G01X92519Y25016D01*
G01X92623Y25120D01*
G01X92676Y25224D01*
G01X92727Y25379D01*
G01X92727Y25638D01*
G01X92676Y25796D01*
G01X92623Y25900D01*
G01X92519Y26004D01*
G01X92417Y26055D01*
G01X92209Y26055D01*
G01X93070Y26055D02*
G01X93070Y24965D01*
G01X93799Y26055D02*
G01X93799Y24965D01*
G01X93070Y25537D02*
G01X93799Y25537D01*
G01X94142Y26055D02*
G01X94142Y24965D01*
G01X94142Y26055D02*
G01X94556Y24965D01*
G01X94973Y26055D02*
G01X94556Y24965D01*
G01X94973Y26055D02*
G01X94973Y24965D01*
G01X70591Y8496D02*
G01X70591Y7978D01*
G01X71059Y7924D01*
G01X71008Y7978D01*
G01X70955Y8133D01*
G01X70955Y8290D01*
G01X71008Y8445D01*
G01X71109Y8549D01*
G01X71267Y8600D01*
G01X71371Y8600D01*
G01X71526Y8549D01*
G01X71630Y8445D01*
G01X71681Y8290D01*
G01X71681Y8133D01*
G01X71630Y7978D01*
G01X71579Y7924D01*
G01X71475Y7874D01*
G01X70591Y9255D02*
G01X70642Y9100D01*
G01X70800Y8996D01*
G01X71059Y8943D01*
G01X71214Y8943D01*
G01X71475Y8996D01*
G01X71630Y9100D01*
G01X71681Y9255D01*
G01X71681Y9359D01*
G01X71630Y9514D01*
G01X71475Y9618D01*
G01X71214Y9672D01*
G01X71059Y9672D01*
G01X70800Y9618D01*
G01X70642Y9514D01*
G01X70591Y9359D01*
G01X70591Y9255D01*
G01X70591Y10015D02*
G01X71681Y10015D01*
G01X70591Y10741D02*
G01X71318Y10015D01*
G01X71059Y10274D02*
G01X71681Y10741D01*
G01X70591Y11396D02*
G01X70642Y11292D01*
G01X70746Y11188D01*
G01X70850Y11137D01*
G01X71008Y11084D01*
G01X71267Y11084D01*
G01X71422Y11137D01*
G01X71526Y11188D01*
G01X71630Y11292D01*
G01X71681Y11396D01*
G01X71681Y11605D01*
G01X71630Y11709D01*
G01X71526Y11811D01*
G01X71422Y11864D01*
G01X71267Y11915D01*
G01X71008Y11915D01*
G01X70850Y11864D01*
G01X70746Y11811D01*
G01X70642Y11709D01*
G01X70591Y11605D01*
G01X70591Y11396D01*
G01X70591Y12258D02*
G01X71681Y12258D01*
G01X70591Y12987D02*
G01X71681Y12987D01*
G01X71109Y12258D02*
G01X71109Y12987D01*
G01X70591Y13329D02*
G01X71681Y13329D01*
G01X70591Y13329D02*
G01X71681Y13743D01*
G01X70591Y14160D02*
G01X71681Y13743D01*
G01X70591Y14160D02*
G01X71681Y14160D01*
G01X76454Y83068D02*
G01X76454Y81978D01*
G01X76454Y83068D02*
G01X77180Y81978D01*
G01X77180Y83068D02*
G01X77180Y81978D01*
G01X77939Y83068D02*
G01X77523Y81978D01*
G01X77939Y83068D02*
G01X78356Y81978D01*
G01X77680Y82341D02*
G01X78198Y82341D01*
G01X78699Y83068D02*
G01X78699Y81978D01*
G01X78699Y83068D02*
G01X79425Y81978D01*
G01X79425Y83068D02*
G01X79425Y81978D01*
G01X80081Y83068D02*
G01X79976Y83017D01*
G01X79872Y82913D01*
G01X79819Y82809D01*
G01X79768Y82651D01*
G01X79768Y82392D01*
G01X79819Y82237D01*
G01X79872Y82133D01*
G01X79976Y82029D01*
G01X80081Y81978D01*
G01X80289Y81978D01*
G01X80391Y82029D01*
G01X80495Y82133D01*
G01X80548Y82237D01*
G01X80599Y82392D01*
G01X80599Y82651D01*
G01X80548Y82809D01*
G01X80495Y82913D01*
G01X80391Y83017D01*
G01X80289Y83068D01*
G01X80081Y83068D01*
G54D24*
G01X62390Y78935D02*
G01X62390Y77965D01*
G01X62390Y78935D02*
G01X62712Y78935D01*
G01X62852Y78889D01*
G01X62943Y78798D01*
G01X62989Y78704D01*
G01X63037Y78567D01*
G01X63037Y78336D01*
G01X62989Y78196D01*
G01X62943Y78105D01*
G01X62852Y78013D01*
G01X62712Y77965D01*
G01X62390Y77965D01*
G01X63342Y78750D02*
G01X63433Y78798D01*
G01X63571Y78935D01*
G01X63571Y77965D01*
G01X64709Y79121D02*
G01X63875Y77642D01*
G01X65336Y78935D02*
G01X65336Y77965D01*
G01X65013Y78935D02*
G01X65659Y78935D01*
G01X65963Y78935D02*
G01X66611Y77965D01*
G01X66611Y78935D02*
G01X65963Y77965D01*
G01X87815Y75887D02*
G01X87769Y75981D01*
G01X87675Y76073D01*
G01X87584Y76118D01*
G01X87398Y76118D01*
G01X87307Y76073D01*
G01X87213Y75981D01*
G01X87167Y75887D01*
G01X87122Y75750D01*
G01X87122Y75519D01*
G01X87167Y75379D01*
G01X87213Y75288D01*
G01X87307Y75196D01*
G01X87398Y75148D01*
G01X87584Y75148D01*
G01X87675Y75196D01*
G01X87769Y75288D01*
G01X87815Y75379D01*
G01X87815Y75519D01*
G01X87584Y75519D02*
G01X87815Y75519D01*
G01X88120Y76118D02*
G01X88120Y75148D01*
G01X88120Y76118D02*
G01X88765Y75148D01*
G01X88765Y76118D02*
G01X88765Y75148D01*
G01X89070Y76118D02*
G01X89070Y75148D01*
G01X89070Y76118D02*
G01X89395Y76118D01*
G01X89532Y76073D01*
G01X89623Y75981D01*
G01X89672Y75887D01*
G01X89717Y75750D01*
G01X89717Y75519D01*
G01X89672Y75379D01*
G01X89623Y75288D01*
G01X89532Y75196D01*
G01X89395Y75148D01*
G01X89070Y75148D01*
G01X87538Y70647D02*
G01X87538Y69814D01*
G01X87122Y70231D02*
G01X87952Y70231D01*
G01X88811Y70784D02*
G01X88351Y70784D01*
G01X88303Y70370D01*
G01X88351Y70416D01*
G01X88488Y70462D01*
G01X88628Y70462D01*
G01X88765Y70416D01*
G01X88859Y70322D01*
G01X88905Y70185D01*
G01X88905Y70091D01*
G01X88859Y69954D01*
G01X88765Y69862D01*
G01X88628Y69814D01*
G01X88488Y69814D01*
G01X88351Y69862D01*
G01X88303Y69908D01*
G01X88257Y69999D01*
G01X89209Y70784D02*
G01X89578Y69814D01*
G01X89949Y70784D02*
G01X89578Y69814D01*
G01X59997Y43098D02*
G01X59997Y42128D01*
G01X59997Y43098D02*
G01X60319Y43098D01*
G01X60459Y43053D01*
G01X60551Y42961D01*
G01X60596Y42867D01*
G01X60645Y42730D01*
G01X60645Y42499D01*
G01X60596Y42359D01*
G01X60551Y42268D01*
G01X60459Y42176D01*
G01X60319Y42128D01*
G01X59997Y42128D01*
G01X60949Y42913D02*
G01X61041Y42961D01*
G01X61178Y43098D01*
G01X61178Y42128D01*
G01X61531Y42867D02*
G01X61531Y42913D01*
G01X61577Y43007D01*
G01X61622Y43053D01*
G01X61714Y43098D01*
G01X61899Y43098D01*
G01X61991Y43053D01*
G01X62039Y43007D01*
G01X62085Y42913D01*
G01X62085Y42821D01*
G01X62039Y42730D01*
G01X61945Y42590D01*
G01X61483Y42128D01*
G01X62130Y42128D01*
G01X63266Y43284D02*
G01X62435Y41805D01*
G01X63571Y43098D02*
G01X63571Y42128D01*
G01X63571Y43098D02*
G01X63941Y42128D01*
G01X64310Y43098D02*
G01X63941Y42128D01*
G01X64310Y43098D02*
G01X64310Y42128D01*
G01X64615Y43098D02*
G01X64615Y42128D01*
G01X65567Y42961D02*
G01X65473Y43053D01*
G01X65336Y43098D01*
G01X65151Y43098D01*
G01X65013Y43053D01*
G01X64919Y42961D01*
G01X64919Y42867D01*
G01X64965Y42776D01*
G01X65013Y42730D01*
G01X65105Y42684D01*
G01X65382Y42590D01*
G01X65473Y42545D01*
G01X65521Y42499D01*
G01X65567Y42405D01*
G01X65567Y42268D01*
G01X65473Y42176D01*
G01X65336Y42128D01*
G01X65151Y42128D01*
G01X65013Y42176D01*
G01X64919Y42268D01*
G01X66149Y43098D02*
G01X66055Y43053D01*
G01X65963Y42961D01*
G01X65918Y42867D01*
G01X65872Y42730D01*
G01X65872Y42499D01*
G01X65918Y42359D01*
G01X65963Y42268D01*
G01X66055Y42176D01*
G01X66149Y42128D01*
G01X66334Y42128D01*
G01X66426Y42176D01*
G01X66517Y42268D01*
G01X66563Y42359D01*
G01X66611Y42499D01*
G01X66611Y42730D01*
G01X66563Y42867D01*
G01X66517Y42961D01*
G01X66426Y43053D01*
G01X66334Y43098D01*
G01X66149Y43098D01*
G01X87122Y78658D02*
G01X87490Y77688D01*
G01X87861Y78658D02*
G01X87490Y77688D01*
G01X88165Y78658D02*
G01X88165Y77688D01*
G01X88470Y78658D02*
G01X88470Y77688D01*
G01X88470Y78658D02*
G01X89115Y77688D01*
G01X89115Y78658D02*
G01X89115Y77688D01*
G01X87122Y42844D02*
G01X87122Y41874D01*
G01X87122Y42844D02*
G01X87444Y42844D01*
G01X87584Y42799D01*
G01X87675Y42707D01*
G01X87721Y42613D01*
G01X87769Y42476D01*
G01X87769Y42245D01*
G01X87721Y42105D01*
G01X87675Y42014D01*
G01X87584Y41922D01*
G01X87444Y41874D01*
G01X87122Y41874D01*
G01X88074Y42659D02*
G01X88165Y42707D01*
G01X88303Y42844D01*
G01X88303Y41874D01*
G01X88701Y42844D02*
G01X89209Y42844D01*
G01X88933Y42476D01*
G01X89070Y42476D01*
G01X89164Y42430D01*
G01X89209Y42382D01*
G01X89255Y42245D01*
G01X89255Y42151D01*
G01X89209Y42014D01*
G01X89115Y41922D01*
G01X88978Y41874D01*
G01X88839Y41874D01*
G01X88701Y41922D01*
G01X88656Y41968D01*
G01X88607Y42059D01*
G01X90390Y43030D02*
G01X89560Y41551D01*
G01X91343Y42707D02*
G01X91249Y42799D01*
G01X91112Y42844D01*
G01X90926Y42844D01*
G01X90789Y42799D01*
G01X90695Y42707D01*
G01X90695Y42613D01*
G01X90741Y42522D01*
G01X90789Y42476D01*
G01X90881Y42430D01*
G01X91158Y42336D01*
G01X91249Y42291D01*
G01X91297Y42245D01*
G01X91343Y42151D01*
G01X91343Y42014D01*
G01X91249Y41922D01*
G01X91112Y41874D01*
G01X90926Y41874D01*
G01X90789Y41922D01*
G01X90695Y42014D01*
G01X92341Y42613D02*
G01X92293Y42707D01*
G01X92202Y42799D01*
G01X92110Y42844D01*
G01X91925Y42844D01*
G01X91833Y42799D01*
G01X91739Y42707D01*
G01X91694Y42613D01*
G01X91648Y42476D01*
G01X91648Y42245D01*
G01X91694Y42105D01*
G01X91739Y42014D01*
G01X91833Y41922D01*
G01X91925Y41874D01*
G01X92110Y41874D01*
G01X92202Y41922D01*
G01X92293Y42014D01*
G01X92341Y42105D01*
G01X92646Y42844D02*
G01X92646Y41874D01*
G01X93291Y42844D02*
G01X92646Y42199D01*
G01X92875Y42430D02*
G01X93291Y41874D01*
G01X64709Y70807D02*
G01X64663Y70901D01*
G01X64569Y70993D01*
G01X64477Y71038D01*
G01X64292Y71038D01*
G01X64201Y70993D01*
G01X64107Y70901D01*
G01X64061Y70807D01*
G01X64015Y70670D01*
G01X64015Y70439D01*
G01X64061Y70299D01*
G01X64107Y70208D01*
G01X64201Y70116D01*
G01X64292Y70068D01*
G01X64477Y70068D01*
G01X64569Y70116D01*
G01X64663Y70208D01*
G01X64709Y70299D01*
G01X64709Y70439D01*
G01X64477Y70439D02*
G01X64709Y70439D01*
G01X65013Y71038D02*
G01X65013Y70068D01*
G01X65013Y71038D02*
G01X65659Y70068D01*
G01X65659Y71038D02*
G01X65659Y70068D01*
G01X65963Y71038D02*
G01X65963Y70068D01*
G01X65963Y71038D02*
G01X66288Y71038D01*
G01X66426Y70993D01*
G01X66517Y70901D01*
G01X66565Y70807D01*
G01X66611Y70670D01*
G01X66611Y70439D01*
G01X66565Y70299D01*
G01X66517Y70208D01*
G01X66426Y70116D01*
G01X66288Y70068D01*
G01X65963Y70068D01*
G01X61976Y75887D02*
G01X61976Y74917D01*
G01X61976Y75887D02*
G01X62298Y75887D01*
G01X62438Y75841D01*
G01X62529Y75750D01*
G01X62575Y75656D01*
G01X62623Y75519D01*
G01X62623Y75288D01*
G01X62575Y75148D01*
G01X62529Y75057D01*
G01X62438Y74965D01*
G01X62298Y74917D01*
G01X61976Y74917D01*
G01X63205Y75887D02*
G01X63065Y75841D01*
G01X62974Y75702D01*
G01X62928Y75473D01*
G01X62928Y75333D01*
G01X62974Y75102D01*
G01X63065Y74965D01*
G01X63205Y74917D01*
G01X63296Y74917D01*
G01X63436Y74965D01*
G01X63527Y75102D01*
G01X63573Y75333D01*
G01X63573Y75473D01*
G01X63527Y75702D01*
G01X63436Y75841D01*
G01X63296Y75887D01*
G01X63205Y75887D01*
G01X64709Y76073D02*
G01X63878Y74594D01*
G01X65013Y75887D02*
G01X65013Y74917D01*
G01X65013Y75887D02*
G01X65430Y75887D01*
G01X65570Y75841D01*
G01X65615Y75796D01*
G01X65661Y75702D01*
G01X65661Y75610D01*
G01X65615Y75519D01*
G01X65570Y75473D01*
G01X65430Y75425D01*
G01X65013Y75425D01*
G01X65338Y75425D02*
G01X65661Y74917D01*
G01X65966Y75887D02*
G01X66611Y74917D01*
G01X66611Y75887D02*
G01X65966Y74917D01*
G01X62252Y73533D02*
G01X62252Y72562D01*
G01X62252Y73533D02*
G01X62669Y73533D01*
G01X62806Y73487D01*
G01X62852Y73441D01*
G01X62900Y73347D01*
G01X62900Y73256D01*
G01X62852Y73164D01*
G01X62806Y73118D01*
G01X62669Y73070D01*
G01X62252Y73070D01*
G01X62575Y73070D02*
G01X62900Y72562D01*
G01X63205Y73533D02*
G01X63205Y72562D01*
G01X63205Y73533D02*
G01X63804Y73533D01*
G01X63205Y73070D02*
G01X63573Y73070D01*
G01X63205Y72562D02*
G01X63804Y72562D01*
G01X64754Y73395D02*
G01X64663Y73487D01*
G01X64526Y73533D01*
G01X64340Y73533D01*
G01X64201Y73487D01*
G01X64109Y73395D01*
G01X64109Y73301D01*
G01X64155Y73210D01*
G01X64201Y73164D01*
G01X64295Y73118D01*
G01X64571Y73025D01*
G01X64663Y72979D01*
G01X64709Y72933D01*
G01X64754Y72839D01*
G01X64754Y72702D01*
G01X64663Y72610D01*
G01X64526Y72562D01*
G01X64340Y72562D01*
G01X64201Y72610D01*
G01X64109Y72702D01*
G01X65059Y73533D02*
G01X65059Y72562D01*
G01X65059Y73533D02*
G01X65661Y73533D01*
G01X65059Y73070D02*
G01X65430Y73070D01*
G01X65059Y72562D02*
G01X65661Y72562D01*
G01X66288Y73533D02*
G01X66288Y72562D01*
G01X65966Y73533D02*
G01X66611Y73533D01*
G01X65013Y68498D02*
G01X65013Y67528D01*
G01X65013Y68498D02*
G01X65336Y68498D01*
G01X65476Y68453D01*
G01X65567Y68361D01*
G01X65613Y68267D01*
G01X65661Y68130D01*
G01X65661Y67899D01*
G01X65613Y67759D01*
G01X65567Y67668D01*
G01X65476Y67576D01*
G01X65336Y67528D01*
G01X65013Y67528D01*
G01X66012Y68267D02*
G01X66012Y68313D01*
G01X66057Y68407D01*
G01X66103Y68453D01*
G01X66194Y68498D01*
G01X66380Y68498D01*
G01X66474Y68453D01*
G01X66520Y68407D01*
G01X66565Y68313D01*
G01X66565Y68221D01*
G01X66520Y68130D01*
G01X66426Y67990D01*
G01X65966Y67528D01*
G01X66611Y67528D01*
G01X65013Y65958D02*
G01X65013Y64988D01*
G01X65013Y65958D02*
G01X65336Y65958D01*
G01X65476Y65913D01*
G01X65567Y65821D01*
G01X65613Y65727D01*
G01X65661Y65590D01*
G01X65661Y65359D01*
G01X65613Y65219D01*
G01X65567Y65128D01*
G01X65476Y65036D01*
G01X65336Y64988D01*
G01X65013Y64988D01*
G01X66057Y65958D02*
G01X66565Y65958D01*
G01X66288Y65590D01*
G01X66426Y65590D01*
G01X66520Y65544D01*
G01X66565Y65496D01*
G01X66611Y65359D01*
G01X66611Y65265D01*
G01X66565Y65128D01*
G01X66474Y65036D01*
G01X66334Y64988D01*
G01X66194Y64988D01*
G01X66057Y65036D01*
G01X66012Y65082D01*
G01X65966Y65173D01*
G01X64968Y63418D02*
G01X64968Y62448D01*
G01X64968Y63418D02*
G01X65290Y63418D01*
G01X65430Y63373D01*
G01X65521Y63281D01*
G01X65567Y63187D01*
G01X65615Y63050D01*
G01X65615Y62819D01*
G01X65567Y62679D01*
G01X65521Y62588D01*
G01X65430Y62496D01*
G01X65290Y62448D01*
G01X64968Y62448D01*
G01X66380Y63418D02*
G01X65920Y62773D01*
G01X66611Y62773D01*
G01X66380Y63418D02*
G01X66380Y62448D01*
G01X65013Y61132D02*
G01X65013Y60162D01*
G01X65013Y61132D02*
G01X65336Y61132D01*
G01X65476Y61087D01*
G01X65567Y60995D01*
G01X65613Y60901D01*
G01X65661Y60764D01*
G01X65661Y60533D01*
G01X65613Y60393D01*
G01X65567Y60302D01*
G01X65476Y60210D01*
G01X65336Y60162D01*
G01X65013Y60162D01*
G01X66520Y61132D02*
G01X66057Y61132D01*
G01X66012Y60718D01*
G01X66057Y60764D01*
G01X66194Y60810D01*
G01X66334Y60810D01*
G01X66474Y60764D01*
G01X66565Y60670D01*
G01X66611Y60533D01*
G01X66611Y60439D01*
G01X66565Y60302D01*
G01X66474Y60210D01*
G01X66334Y60162D01*
G01X66194Y60162D01*
G01X66057Y60210D01*
G01X66012Y60256D01*
G01X65966Y60347D01*
G01X65059Y58592D02*
G01X65059Y57622D01*
G01X65059Y58592D02*
G01X65382Y58592D01*
G01X65521Y58547D01*
G01X65613Y58455D01*
G01X65659Y58361D01*
G01X65707Y58224D01*
G01X65707Y57993D01*
G01X65659Y57853D01*
G01X65613Y57762D01*
G01X65521Y57670D01*
G01X65382Y57622D01*
G01X65059Y57622D01*
G01X66565Y58455D02*
G01X66520Y58547D01*
G01X66380Y58592D01*
G01X66288Y58592D01*
G01X66149Y58547D01*
G01X66057Y58407D01*
G01X66012Y58178D01*
G01X66012Y57947D01*
G01X66057Y57762D01*
G01X66149Y57670D01*
G01X66288Y57622D01*
G01X66334Y57622D01*
G01X66471Y57670D01*
G01X66565Y57762D01*
G01X66611Y57899D01*
G01X66611Y57947D01*
G01X66565Y58084D01*
G01X66471Y58178D01*
G01X66334Y58224D01*
G01X66288Y58224D01*
G01X66149Y58178D01*
G01X66057Y58084D01*
G01X66012Y57947D01*
G01X65013Y55798D02*
G01X65013Y54828D01*
G01X65013Y55798D02*
G01X65336Y55798D01*
G01X65476Y55753D01*
G01X65567Y55661D01*
G01X65613Y55567D01*
G01X65661Y55430D01*
G01X65661Y55199D01*
G01X65613Y55059D01*
G01X65567Y54968D01*
G01X65476Y54876D01*
G01X65336Y54828D01*
G01X65013Y54828D01*
G01X66611Y55798D02*
G01X66149Y54828D01*
G01X65966Y55798D02*
G01X66611Y55798D01*
G01X65013Y53512D02*
G01X65013Y52542D01*
G01X65013Y53512D02*
G01X65336Y53512D01*
G01X65476Y53467D01*
G01X65567Y53375D01*
G01X65613Y53281D01*
G01X65661Y53144D01*
G01X65661Y52913D01*
G01X65613Y52773D01*
G01X65567Y52682D01*
G01X65476Y52590D01*
G01X65336Y52542D01*
G01X65013Y52542D01*
G01X66194Y53512D02*
G01X66057Y53467D01*
G01X66012Y53375D01*
G01X66012Y53281D01*
G01X66057Y53190D01*
G01X66149Y53144D01*
G01X66334Y53098D01*
G01X66474Y53050D01*
G01X66565Y52959D01*
G01X66611Y52867D01*
G01X66611Y52727D01*
G01X66565Y52636D01*
G01X66520Y52590D01*
G01X66380Y52542D01*
G01X66194Y52542D01*
G01X66057Y52590D01*
G01X66012Y52636D01*
G01X65966Y52727D01*
G01X65966Y52867D01*
G01X66012Y52959D01*
G01X66103Y53050D01*
G01X66243Y53098D01*
G01X66426Y53144D01*
G01X66520Y53190D01*
G01X66565Y53281D01*
G01X66565Y53375D01*
G01X66520Y53467D01*
G01X66380Y53512D01*
G01X66194Y53512D01*
G01X65059Y50972D02*
G01X65059Y50002D01*
G01X65059Y50972D02*
G01X65382Y50972D01*
G01X65521Y50927D01*
G01X65613Y50835D01*
G01X65659Y50741D01*
G01X65707Y50604D01*
G01X65707Y50373D01*
G01X65659Y50233D01*
G01X65613Y50142D01*
G01X65521Y50050D01*
G01X65382Y50002D01*
G01X65059Y50002D01*
G01X66611Y50650D02*
G01X66565Y50510D01*
G01X66471Y50419D01*
G01X66334Y50373D01*
G01X66288Y50373D01*
G01X66149Y50419D01*
G01X66057Y50510D01*
G01X66012Y50650D01*
G01X66012Y50695D01*
G01X66057Y50835D01*
G01X66149Y50927D01*
G01X66288Y50972D01*
G01X66334Y50972D01*
G01X66471Y50927D01*
G01X66565Y50835D01*
G01X66611Y50650D01*
G01X66611Y50419D01*
G01X66565Y50187D01*
G01X66471Y50050D01*
G01X66334Y50002D01*
G01X66240Y50002D01*
G01X66103Y50050D01*
G01X66057Y50142D01*
G01X64477Y48178D02*
G01X64477Y47208D01*
G01X64477Y48178D02*
G01X64800Y48178D01*
G01X64940Y48133D01*
G01X65031Y48041D01*
G01X65077Y47947D01*
G01X65125Y47810D01*
G01X65125Y47579D01*
G01X65077Y47439D01*
G01X65031Y47348D01*
G01X64940Y47256D01*
G01X64800Y47208D01*
G01X64477Y47208D01*
G01X65430Y47993D02*
G01X65521Y48041D01*
G01X65659Y48178D01*
G01X65659Y47208D01*
G01X66243Y48178D02*
G01X66103Y48133D01*
G01X66012Y47993D01*
G01X65963Y47764D01*
G01X65963Y47625D01*
G01X66012Y47393D01*
G01X66103Y47256D01*
G01X66243Y47208D01*
G01X66334Y47208D01*
G01X66471Y47256D01*
G01X66565Y47393D01*
G01X66611Y47625D01*
G01X66611Y47764D01*
G01X66565Y47993D01*
G01X66471Y48133D01*
G01X66334Y48178D01*
G01X66243Y48178D01*
G01X60413Y45892D02*
G01X60413Y44922D01*
G01X60413Y45892D02*
G01X60736Y45892D01*
G01X60876Y45847D01*
G01X60967Y45755D01*
G01X61013Y45661D01*
G01X61061Y45524D01*
G01X61061Y45293D01*
G01X61013Y45153D01*
G01X60967Y45062D01*
G01X60876Y44970D01*
G01X60736Y44922D01*
G01X60413Y44922D01*
G01X61366Y45707D02*
G01X61457Y45755D01*
G01X61595Y45892D01*
G01X61595Y44922D01*
G01X61899Y45707D02*
G01X61993Y45755D01*
G01X62130Y45892D01*
G01X62130Y44922D01*
G01X63268Y46078D02*
G01X62435Y44599D01*
G01X63573Y45892D02*
G01X63573Y44922D01*
G01X63573Y45892D02*
G01X63941Y44922D01*
G01X64312Y45892D02*
G01X63941Y44922D01*
G01X64312Y45892D02*
G01X64312Y44922D01*
G01X64894Y45892D02*
G01X64800Y45847D01*
G01X64709Y45755D01*
G01X64663Y45661D01*
G01X64617Y45524D01*
G01X64617Y45293D01*
G01X64663Y45153D01*
G01X64709Y45062D01*
G01X64800Y44970D01*
G01X64894Y44922D01*
G01X65077Y44922D01*
G01X65171Y44970D01*
G01X65262Y45062D01*
G01X65308Y45153D01*
G01X65354Y45293D01*
G01X65354Y45524D01*
G01X65308Y45661D01*
G01X65262Y45755D01*
G01X65171Y45847D01*
G01X65077Y45892D01*
G01X64894Y45892D01*
G01X66306Y45755D02*
G01X66215Y45847D01*
G01X66075Y45892D01*
G01X65890Y45892D01*
G01X65752Y45847D01*
G01X65659Y45755D01*
G01X65659Y45661D01*
G01X65707Y45570D01*
G01X65752Y45524D01*
G01X65844Y45478D01*
G01X66121Y45384D01*
G01X66215Y45339D01*
G01X66260Y45293D01*
G01X66306Y45199D01*
G01X66306Y45062D01*
G01X66215Y44970D01*
G01X66075Y44922D01*
G01X65890Y44922D01*
G01X65752Y44970D01*
G01X65659Y45062D01*
G01X66611Y45892D02*
G01X66611Y44922D01*
G01X87213Y45384D02*
G01X87721Y45384D01*
G01X87444Y45016D01*
G01X87584Y45016D01*
G01X87675Y44970D01*
G01X87721Y44922D01*
G01X87769Y44785D01*
G01X87769Y44691D01*
G01X87721Y44554D01*
G01X87630Y44462D01*
G01X87490Y44414D01*
G01X87353Y44414D01*
G01X87213Y44462D01*
G01X87167Y44508D01*
G01X87122Y44599D01*
G01X88074Y45384D02*
G01X88442Y44414D01*
G01X88811Y45384D02*
G01X88442Y44414D01*
G01X89209Y45384D02*
G01X89717Y45384D01*
G01X89441Y45016D01*
G01X89578Y45016D01*
G01X89672Y44970D01*
G01X89717Y44922D01*
G01X89763Y44785D01*
G01X89763Y44691D01*
G01X89717Y44554D01*
G01X89623Y44462D01*
G01X89486Y44414D01*
G01X89347Y44414D01*
G01X89209Y44462D01*
G01X89164Y44508D01*
G01X89115Y44599D01*
G01X87490Y48178D02*
G01X87122Y47208D01*
G01X87490Y48178D02*
G01X87861Y47208D01*
G01X87261Y47533D02*
G01X87721Y47533D01*
G01X88165Y48178D02*
G01X88165Y47208D01*
G01X88165Y48178D02*
G01X88582Y48178D01*
G01X88719Y48133D01*
G01X88765Y48087D01*
G01X88811Y47993D01*
G01X88811Y47901D01*
G01X88765Y47810D01*
G01X88719Y47764D01*
G01X88582Y47716D01*
G01X88165Y47716D01*
G01X88488Y47716D02*
G01X88811Y47208D01*
G01X89115Y48178D02*
G01X89115Y47208D01*
G01X89115Y48178D02*
G01X89717Y48178D01*
G01X89115Y47716D02*
G01X89486Y47716D01*
G01X89115Y47208D02*
G01X89717Y47208D01*
G01X90022Y48178D02*
G01X90022Y47208D01*
G01X90022Y48178D02*
G01X90622Y48178D01*
G01X90022Y47716D02*
G01X90390Y47716D01*
G01X87490Y50464D02*
G01X87122Y49494D01*
G01X87490Y50464D02*
G01X87861Y49494D01*
G01X87261Y49819D02*
G01X87721Y49819D01*
G01X88442Y50464D02*
G01X88303Y50419D01*
G01X88211Y50279D01*
G01X88165Y50050D01*
G01X88165Y49911D01*
G01X88211Y49679D01*
G01X88303Y49542D01*
G01X88442Y49494D01*
G01X88534Y49494D01*
G01X88673Y49542D01*
G01X88765Y49679D01*
G01X88811Y49911D01*
G01X88811Y50050D01*
G01X88765Y50279D01*
G01X88673Y50419D01*
G01X88534Y50464D01*
G01X88442Y50464D01*
G01X87490Y53258D02*
G01X87122Y52288D01*
G01X87490Y53258D02*
G01X87861Y52288D01*
G01X87261Y52613D02*
G01X87721Y52613D01*
G01X88165Y53073D02*
G01X88257Y53121D01*
G01X88397Y53258D01*
G01X88397Y52288D01*
G01X87490Y55544D02*
G01X87122Y54574D01*
G01X87490Y55544D02*
G01X87861Y54574D01*
G01X87261Y54899D02*
G01X87721Y54899D01*
G01X88211Y55313D02*
G01X88211Y55359D01*
G01X88257Y55453D01*
G01X88303Y55499D01*
G01X88397Y55544D01*
G01X88582Y55544D01*
G01X88673Y55499D01*
G01X88719Y55453D01*
G01X88765Y55359D01*
G01X88765Y55267D01*
G01X88719Y55176D01*
G01X88628Y55036D01*
G01X88165Y54574D01*
G01X88811Y54574D01*
G01X87490Y58338D02*
G01X87122Y57368D01*
G01X87490Y58338D02*
G01X87861Y57368D01*
G01X87261Y57693D02*
G01X87721Y57693D01*
G01X88257Y58338D02*
G01X88765Y58338D01*
G01X88488Y57970D01*
G01X88628Y57970D01*
G01X88719Y57924D01*
G01X88765Y57876D01*
G01X88811Y57739D01*
G01X88811Y57645D01*
G01X88765Y57508D01*
G01X88673Y57416D01*
G01X88534Y57368D01*
G01X88397Y57368D01*
G01X88257Y57416D01*
G01X88211Y57462D01*
G01X88165Y57553D01*
G01X87490Y60878D02*
G01X87122Y59908D01*
G01X87490Y60878D02*
G01X87861Y59908D01*
G01X87261Y60233D02*
G01X87721Y60233D01*
G01X88628Y60878D02*
G01X88165Y60233D01*
G01X88859Y60233D01*
G01X88628Y60878D02*
G01X88628Y59908D01*
G01X87490Y63418D02*
G01X87122Y62448D01*
G01X87490Y63418D02*
G01X87861Y62448D01*
G01X87261Y62773D02*
G01X87721Y62773D01*
G01X88719Y63418D02*
G01X88257Y63418D01*
G01X88211Y63004D01*
G01X88257Y63050D01*
G01X88397Y63096D01*
G01X88534Y63096D01*
G01X88673Y63050D01*
G01X88765Y62956D01*
G01X88811Y62819D01*
G01X88811Y62725D01*
G01X88765Y62588D01*
G01X88673Y62496D01*
G01X88534Y62448D01*
G01X88397Y62448D01*
G01X88257Y62496D01*
G01X88211Y62542D01*
G01X88165Y62633D01*
G01X87490Y65704D02*
G01X87122Y64734D01*
G01X87490Y65704D02*
G01X87861Y64734D01*
G01X87261Y65059D02*
G01X87721Y65059D01*
G01X88719Y65567D02*
G01X88673Y65659D01*
G01X88534Y65704D01*
G01X88442Y65704D01*
G01X88303Y65659D01*
G01X88211Y65519D01*
G01X88165Y65290D01*
G01X88165Y65059D01*
G01X88211Y64874D01*
G01X88303Y64782D01*
G01X88442Y64734D01*
G01X88488Y64734D01*
G01X88628Y64782D01*
G01X88719Y64874D01*
G01X88765Y65011D01*
G01X88765Y65059D01*
G01X88719Y65196D01*
G01X88628Y65290D01*
G01X88488Y65336D01*
G01X88442Y65336D01*
G01X88303Y65290D01*
G01X88211Y65196D01*
G01X88165Y65059D01*
G01X87490Y68498D02*
G01X87122Y67528D01*
G01X87490Y68498D02*
G01X87861Y67528D01*
G01X87261Y67853D02*
G01X87721Y67853D01*
G01X88811Y68498D02*
G01X88351Y67528D01*
G01X88165Y68498D02*
G01X88811Y68498D01*
G01X87122Y73578D02*
G01X87122Y72608D01*
G01X87122Y73578D02*
G01X87538Y73578D01*
G01X87675Y73533D01*
G01X87721Y73487D01*
G01X87769Y73393D01*
G01X87769Y73301D01*
G01X87721Y73210D01*
G01X87675Y73164D01*
G01X87538Y73116D01*
G01X87122Y73116D01*
G01X87444Y73116D02*
G01X87769Y72608D01*
G01X88074Y73578D02*
G01X88074Y72608D01*
G01X88074Y73578D02*
G01X88673Y73578D01*
G01X88074Y73116D02*
G01X88442Y73116D01*
G01X88074Y72608D02*
G01X88673Y72608D01*
G01X89623Y73441D02*
G01X89532Y73533D01*
G01X89395Y73578D01*
G01X89209Y73578D01*
G01X89070Y73533D01*
G01X88978Y73441D01*
G01X88978Y73347D01*
G01X89024Y73256D01*
G01X89070Y73210D01*
G01X89164Y73164D01*
G01X89441Y73070D01*
G01X89532Y73025D01*
G01X89578Y72979D01*
G01X89623Y72885D01*
G01X89623Y72748D01*
G01X89532Y72656D01*
G01X89395Y72608D01*
G01X89209Y72608D01*
G01X89070Y72656D01*
G01X88978Y72748D01*
G01X89928Y73578D02*
G01X89928Y72608D01*
G01X89928Y73578D02*
G01X90530Y73578D01*
G01X89928Y73116D02*
G01X90299Y73116D01*
G01X89928Y72608D02*
G01X90530Y72608D01*
G01X91158Y73578D02*
G01X91158Y72608D01*
G01X90835Y73578D02*
G01X91480Y73578D01*
G54D27*
G01X137795Y83068D02*
G01X137795Y81978D01*
G01X137795Y81978D02*
G01X138417Y81978D01*
G01X139539Y82809D02*
G01X139489Y82913D01*
G01X139385Y83017D01*
G01X139280Y83068D01*
G01X139072Y83068D01*
G01X138968Y83017D01*
G01X138864Y82913D01*
G01X138813Y82809D01*
G01X138760Y82651D01*
G01X138760Y82392D01*
G01X138813Y82237D01*
G01X138864Y82133D01*
G01X138968Y82029D01*
G01X139072Y81978D01*
G01X139280Y81978D01*
G01X139385Y82029D01*
G01X139489Y82133D01*
G01X139539Y82237D01*
G01X139882Y83068D02*
G01X139882Y81978D01*
G01X139882Y83068D02*
G01X140246Y83068D01*
G01X140403Y83017D01*
G01X140507Y82913D01*
G01X140558Y82809D01*
G01X140611Y82651D01*
G01X140611Y82392D01*
G01X140558Y82237D01*
G01X140507Y82133D01*
G01X140403Y82029D01*
G01X140246Y81978D01*
G01X139882Y81978D01*
G01X140954Y81612D02*
G01X141889Y81612D01*
G01X142232Y83068D02*
G01X142232Y81978D01*
G01X142232Y83068D02*
G01X142646Y81978D01*
G01X143062Y83068D02*
G01X142646Y81978D01*
G01X143062Y83068D02*
G01X143062Y81978D01*
G01X143718Y83068D02*
G01X143614Y83017D01*
G01X143510Y82913D01*
G01X143459Y82809D01*
G01X143405Y82651D01*
G01X143405Y82392D01*
G01X143459Y82237D01*
G01X143510Y82133D01*
G01X143614Y82029D01*
G01X143718Y81978D01*
G01X143926Y81978D01*
G01X144030Y82029D01*
G01X144132Y82133D01*
G01X144185Y82237D01*
G01X144236Y82392D01*
G01X144236Y82651D01*
G01X144185Y82809D01*
G01X144132Y82913D01*
G01X144030Y83017D01*
G01X143926Y83068D01*
G01X143718Y83068D01*
G01X144579Y83068D02*
G01X144579Y81978D01*
G01X144579Y83068D02*
G01X144945Y83068D01*
G01X145100Y83017D01*
G01X145204Y82913D01*
G01X145254Y82809D01*
G01X145308Y82651D01*
G01X145308Y82392D01*
G01X145254Y82237D01*
G01X145204Y82133D01*
G01X145100Y82029D01*
G01X144945Y81978D01*
G01X144579Y81978D01*
G01X145651Y83068D02*
G01X145651Y82288D01*
G01X145702Y82133D01*
G01X145806Y82029D01*
G01X145961Y81978D01*
G01X146065Y81978D01*
G01X146222Y82029D01*
G01X146326Y82133D01*
G01X146377Y82288D01*
G01X146377Y83068D01*
G01X146720Y83068D02*
G01X146720Y81978D01*
G01X146720Y81978D02*
G01X147345Y81978D01*
G01X147688Y83068D02*
G01X147688Y81978D01*
G01X147688Y83068D02*
G01X148361Y83068D01*
G01X147688Y82550D02*
G01X148102Y82550D01*
G01X147688Y81978D02*
G01X148361Y81978D01*
G54D24*
G01X97929Y77076D02*
G01X97894Y77147D01*
G01X97825Y77216D01*
G01X97754Y77251D01*
G01X97617Y77251D01*
G01X97548Y77216D01*
G01X97477Y77147D01*
G01X97444Y77076D01*
G01X97409Y76974D01*
G01X97409Y76799D01*
G01X97444Y76695D01*
G01X97477Y76626D01*
G01X97548Y76558D01*
G01X97617Y76522D01*
G01X97754Y76522D01*
G01X97825Y76558D01*
G01X97894Y76626D01*
G01X97929Y76695D01*
G01X97929Y76799D01*
G01X97754Y76799D02*
G01X97929Y76799D01*
G01X98158Y77251D02*
G01X98158Y76522D01*
G01X98158Y77251D02*
G01X98640Y76522D01*
G01X98640Y77251D02*
G01X98640Y76522D01*
G01X98869Y77251D02*
G01X98869Y76522D01*
G01X98869Y77251D02*
G01X99113Y77251D01*
G01X99217Y77216D01*
G01X99286Y77147D01*
G01X99321Y77076D01*
G01X99354Y76974D01*
G01X99354Y76799D01*
G01X99321Y76695D01*
G01X99286Y76626D01*
G01X99217Y76558D01*
G01X99113Y76522D01*
G01X98869Y76522D01*
G01X97409Y74457D02*
G01X97685Y73728D01*
G01X97962Y74457D02*
G01X97685Y73728D01*
G01X98712Y74282D02*
G01X98676Y74353D01*
G01X98607Y74422D01*
G01X98539Y74457D01*
G01X98399Y74457D01*
G01X98331Y74422D01*
G01X98259Y74353D01*
G01X98226Y74282D01*
G01X98191Y74180D01*
G01X98191Y74005D01*
G01X98226Y73901D01*
G01X98259Y73832D01*
G01X98331Y73764D01*
G01X98399Y73728D01*
G01X98539Y73728D01*
G01X98607Y73764D01*
G01X98676Y73832D01*
G01X98712Y73901D01*
G01X99458Y74282D02*
G01X99425Y74353D01*
G01X99354Y74422D01*
G01X99286Y74457D01*
G01X99148Y74457D01*
G01X99077Y74422D01*
G01X99009Y74353D01*
G01X98973Y74282D01*
G01X98940Y74180D01*
G01X98940Y74005D01*
G01X98973Y73901D01*
G01X99009Y73832D01*
G01X99077Y73764D01*
G01X99148Y73728D01*
G01X99286Y73728D01*
G01X99354Y73764D01*
G01X99425Y73832D01*
G01X99458Y73901D01*
G01X97894Y71813D02*
G01X97825Y71882D01*
G01X97721Y71917D01*
G01X97581Y71917D01*
G01X97477Y71882D01*
G01X97409Y71813D01*
G01X97409Y71742D01*
G01X97444Y71673D01*
G01X97477Y71640D01*
G01X97548Y71605D01*
G01X97754Y71536D01*
G01X97825Y71501D01*
G01X97858Y71465D01*
G01X97894Y71396D01*
G01X97894Y71292D01*
G01X97825Y71224D01*
G01X97721Y71188D01*
G01X97581Y71188D01*
G01X97477Y71224D01*
G01X97409Y71292D01*
G01X98122Y71917D02*
G01X98122Y71188D01*
G01X98122Y71917D02*
G01X98364Y71917D01*
G01X98468Y71882D01*
G01X98539Y71813D01*
G01X98572Y71742D01*
G01X98607Y71640D01*
G01X98607Y71465D01*
G01X98572Y71361D01*
G01X98539Y71292D01*
G01X98468Y71224D01*
G01X98364Y71188D01*
G01X98122Y71188D01*
G01X99113Y71917D02*
G01X98836Y71188D01*
G01X99113Y71917D02*
G01X99390Y71188D01*
G01X98940Y71432D02*
G01X99286Y71432D01*
G01X97894Y69273D02*
G01X97825Y69342D01*
G01X97721Y69377D01*
G01X97581Y69377D01*
G01X97477Y69342D01*
G01X97409Y69273D01*
G01X97409Y69202D01*
G01X97444Y69133D01*
G01X97477Y69100D01*
G01X97548Y69065D01*
G01X97754Y68996D01*
G01X97825Y68961D01*
G01X97858Y68925D01*
G01X97894Y68856D01*
G01X97894Y68752D01*
G01X97825Y68684D01*
G01X97721Y68648D01*
G01X97581Y68648D01*
G01X97477Y68684D01*
G01X97409Y68752D01*
G01X98640Y69202D02*
G01X98607Y69273D01*
G01X98539Y69342D01*
G01X98468Y69377D01*
G01X98331Y69377D01*
G01X98259Y69342D01*
G01X98191Y69273D01*
G01X98158Y69202D01*
G01X98122Y69100D01*
G01X98122Y68925D01*
G01X98158Y68821D01*
G01X98191Y68752D01*
G01X98259Y68684D01*
G01X98331Y68648D01*
G01X98468Y68648D01*
G01X98539Y68684D01*
G01X98607Y68752D01*
G01X98640Y68821D01*
G01X98869Y69377D02*
G01X98869Y68648D01*
G01X98869Y68648D02*
G01X99286Y68648D01*
G54D27*
G01X41960Y17912D02*
G01X41960Y17962D01*
G01X42014Y18067D01*
G01X42064Y18120D01*
G01X42169Y18171D01*
G01X42377Y18171D01*
G01X42481Y18120D01*
G01X42532Y18067D01*
G01X42585Y17962D01*
G01X42585Y17858D01*
G01X42532Y17754D01*
G01X42430Y17599D01*
G01X41910Y17081D01*
G01X42636Y17081D01*
G01X43032Y17340D02*
G01X42979Y17287D01*
G01X43032Y17236D01*
G01X43083Y17287D01*
G01X43032Y17340D01*
G01X43479Y17912D02*
G01X43479Y17962D01*
G01X43530Y18067D01*
G01X43583Y18120D01*
G01X43688Y18171D01*
G01X43893Y18171D01*
G01X43997Y18120D01*
G01X44051Y18067D01*
G01X44102Y17962D01*
G01X44102Y17858D01*
G01X44051Y17754D01*
G01X43947Y17599D01*
G01X43426Y17081D01*
G01X44155Y17081D01*
G01X44498Y18171D02*
G01X44498Y17081D01*
G01X45224Y18171D02*
G01X44498Y17444D01*
G01X44757Y17703D02*
G01X45224Y17081D01*
G01X45880Y18171D02*
G01X45775Y18120D01*
G01X45671Y18016D01*
G01X45618Y17912D01*
G01X45567Y17754D01*
G01X45567Y17495D01*
G01X45618Y17340D01*
G01X45671Y17236D01*
G01X45775Y17132D01*
G01X45880Y17081D01*
G01X46088Y17081D01*
G01X46189Y17132D01*
G01X46294Y17236D01*
G01X46347Y17340D01*
G01X46398Y17495D01*
G01X46398Y17754D01*
G01X46347Y17912D01*
G01X46294Y18016D01*
G01X46189Y18120D01*
G01X46088Y18171D01*
G01X45880Y18171D01*
G01X46741Y18171D02*
G01X46741Y17081D01*
G01X47470Y18171D02*
G01X47470Y17081D01*
G01X46741Y17653D02*
G01X47470Y17653D01*
G01X47812Y18171D02*
G01X47812Y17081D01*
G01X47812Y18171D02*
G01X48226Y17081D01*
G01X48643Y18171D02*
G01X48226Y17081D01*
G01X48643Y18171D02*
G01X48643Y17081D01*
G01X49540Y44414D02*
G01X48450Y44831D01*
G01X49540Y44414D02*
G01X48450Y44000D01*
G01X48813Y44676D02*
G01X48813Y44155D01*
G01X49540Y43657D02*
G01X48450Y43657D01*
G01X49540Y43657D02*
G01X49540Y43294D01*
G01X49489Y43136D01*
G01X49385Y43032D01*
G01X49281Y42981D01*
G01X49123Y42928D01*
G01X48864Y42928D01*
G01X48709Y42981D01*
G01X48605Y43032D01*
G01X48501Y43136D01*
G01X48450Y43294D01*
G01X48450Y43657D01*
G01X49176Y41910D02*
G01X49022Y41963D01*
G01X48917Y42067D01*
G01X48864Y42222D01*
G01X48864Y42275D01*
G01X48917Y42430D01*
G01X49022Y42534D01*
G01X49176Y42585D01*
G01X49227Y42585D01*
G01X49385Y42534D01*
G01X49489Y42430D01*
G01X49540Y42275D01*
G01X49540Y42222D01*
G01X49489Y42067D01*
G01X49385Y41963D01*
G01X49176Y41910D01*
G01X48917Y41910D01*
G01X48656Y41963D01*
G01X48501Y42067D01*
G01X48450Y42222D01*
G01X48450Y42326D01*
G01X48501Y42481D01*
G01X48605Y42534D01*
G01X49540Y41308D02*
G01X49489Y41465D01*
G01X49385Y41516D01*
G01X49281Y41516D01*
G01X49176Y41465D01*
G01X49123Y41361D01*
G01X49072Y41153D01*
G01X49022Y40995D01*
G01X48917Y40894D01*
G01X48813Y40840D01*
G01X48656Y40840D01*
G01X48552Y40894D01*
G01X48501Y40944D01*
G01X48450Y41099D01*
G01X48450Y41308D01*
G01X48501Y41465D01*
G01X48552Y41516D01*
G01X48656Y41567D01*
G01X48813Y41567D01*
G01X48917Y41516D01*
G01X49022Y41412D01*
G01X49072Y41257D01*
G01X49123Y41048D01*
G01X49176Y40944D01*
G01X49281Y40894D01*
G01X49385Y40894D01*
G01X49489Y40944D01*
G01X49540Y41099D01*
G01X49540Y41308D01*
G01X49540Y40393D02*
G01X49540Y39822D01*
G01X49123Y40134D01*
G01X49123Y39979D01*
G01X49072Y39875D01*
G01X49022Y39822D01*
G01X48864Y39771D01*
G01X48760Y39771D01*
G01X48605Y39822D01*
G01X48501Y39926D01*
G01X48450Y40081D01*
G01X48450Y40238D01*
G01X48501Y40393D01*
G01X48552Y40446D01*
G01X48656Y40497D01*
G01X49540Y39324D02*
G01X49540Y38752D01*
G01X49123Y39065D01*
G01X49123Y38907D01*
G01X49072Y38803D01*
G01X49022Y38752D01*
G01X48864Y38699D01*
G01X48760Y38699D01*
G01X48605Y38752D01*
G01X48501Y38856D01*
G01X48450Y39011D01*
G01X48450Y39166D01*
G01X48501Y39324D01*
G01X48552Y39375D01*
G01X48656Y39428D01*
G01X48084Y38356D02*
G01X48084Y37421D01*
G01X49540Y37078D02*
G01X48450Y37078D01*
G01X49540Y37078D02*
G01X48450Y36664D01*
G01X49540Y36248D02*
G01X48450Y36664D01*
G01X49540Y36248D02*
G01X48450Y36248D01*
G01X49540Y35593D02*
G01X49489Y35697D01*
G01X49385Y35801D01*
G01X49281Y35852D01*
G01X49123Y35905D01*
G01X48864Y35905D01*
G01X48709Y35852D01*
G01X48605Y35801D01*
G01X48501Y35697D01*
G01X48450Y35593D01*
G01X48450Y35384D01*
G01X48501Y35280D01*
G01X48605Y35179D01*
G01X48709Y35125D01*
G01X48864Y35074D01*
G01X49123Y35074D01*
G01X49281Y35125D01*
G01X49385Y35179D01*
G01X49489Y35280D01*
G01X49540Y35384D01*
G01X49540Y35593D01*
G01X49540Y34731D02*
G01X48450Y34731D01*
G01X49540Y34731D02*
G01X49540Y34366D01*
G01X49489Y34211D01*
G01X49385Y34107D01*
G01X49281Y34056D01*
G01X49123Y34002D01*
G01X48864Y34002D01*
G01X48709Y34056D01*
G01X48605Y34107D01*
G01X48501Y34211D01*
G01X48450Y34366D01*
G01X48450Y34731D01*
G01X49540Y33660D02*
G01X48760Y33660D01*
G01X48605Y33609D01*
G01X48501Y33505D01*
G01X48450Y33350D01*
G01X48450Y33246D01*
G01X48501Y33088D01*
G01X48605Y32984D01*
G01X48760Y32933D01*
G01X49540Y32933D01*
G01X49540Y32590D02*
G01X48450Y32590D01*
G01X48450Y32590D02*
G01X48450Y31965D01*
G01X49540Y31623D02*
G01X48450Y31623D01*
G01X49540Y31623D02*
G01X49540Y30949D01*
G01X49022Y31623D02*
G01X49022Y31208D01*
G01X48450Y31623D02*
G01X48450Y30949D01*
G54D28*
G01X44577Y51846D02*
G01X44345Y52451D01*
G01X44114Y51846D02*
G01X44345Y52451D01*
G01X43924Y51846D02*
G01X43924Y52451D01*
G01X43924Y51846D02*
G01X43723Y51846D01*
G01X43637Y51874D01*
G01X43578Y51932D01*
G01X43548Y51988D01*
G01X43520Y52077D01*
G01X43520Y52219D01*
G01X43548Y52306D01*
G01X43578Y52364D01*
G01X43637Y52423D01*
G01X43723Y52451D01*
G01X43924Y52451D01*
G01X43329Y51846D02*
G01X43329Y52451D01*
G01X43329Y51846D02*
G01X43129Y51846D01*
G01X43040Y51874D01*
G01X42984Y51932D01*
G01X42953Y51988D01*
G01X42926Y52077D01*
G01X42926Y52219D01*
G01X42953Y52306D01*
G01X42984Y52364D01*
G01X43040Y52423D01*
G01X43129Y52451D01*
G01X43329Y52451D01*
G01X44577Y49306D02*
G01X44577Y49911D01*
G01X44577Y49306D02*
G01X44373Y49306D01*
G01X44287Y49334D01*
G01X44231Y49392D01*
G01X44201Y49448D01*
G01X44173Y49537D01*
G01X44173Y49679D01*
G01X44201Y49766D01*
G01X44231Y49824D01*
G01X44287Y49883D01*
G01X44373Y49911D01*
G01X44577Y49911D01*
G01X43548Y49448D02*
G01X43578Y49392D01*
G01X43637Y49334D01*
G01X43693Y49306D01*
G01X43809Y49306D01*
G01X43865Y49334D01*
G01X43924Y49392D01*
G01X43954Y49448D01*
G01X43982Y49537D01*
G01X43982Y49679D01*
G01X43954Y49766D01*
G01X43924Y49824D01*
G01X43865Y49883D01*
G01X43809Y49911D01*
G01X43693Y49911D01*
G01X43637Y49883D01*
G01X43578Y49824D01*
G01X43548Y49766D01*
G01X43548Y49679D01*
G01X43693Y49679D02*
G01X43548Y49679D01*
G01X43357Y49306D02*
G01X43357Y49911D01*
G01X43357Y49306D02*
G01X42953Y49911D01*
G01X42953Y49306D02*
G01X42953Y49911D01*
G01X42763Y49306D02*
G01X42763Y49911D01*
G01X42763Y49306D02*
G01X42562Y49306D01*
G01X42476Y49334D01*
G01X42418Y49392D01*
G01X42390Y49448D01*
G01X42359Y49537D01*
G01X42359Y49679D01*
G01X42390Y49766D01*
G01X42418Y49824D01*
G01X42476Y49883D01*
G01X42562Y49911D01*
G01X42763Y49911D01*
G01X44173Y46852D02*
G01X44231Y46794D01*
G01X44317Y46766D01*
G01X44432Y46766D01*
G01X44518Y46794D01*
G01X44577Y46852D01*
G01X44577Y46908D01*
G01X44549Y46967D01*
G01X44518Y46997D01*
G01X44462Y47025D01*
G01X44287Y47083D01*
G01X44231Y47111D01*
G01X44201Y47139D01*
G01X44173Y47198D01*
G01X44173Y47284D01*
G01X44231Y47343D01*
G01X44317Y47371D01*
G01X44432Y47371D01*
G01X44518Y47343D01*
G01X44577Y47284D01*
G01X43982Y46766D02*
G01X43982Y47371D01*
G01X43982Y46766D02*
G01X43779Y46766D01*
G01X43693Y46794D01*
G01X43637Y46852D01*
G01X43606Y46908D01*
G01X43578Y46997D01*
G01X43578Y47139D01*
G01X43606Y47226D01*
G01X43637Y47284D01*
G01X43693Y47343D01*
G01X43779Y47371D01*
G01X43982Y47371D01*
G01X43157Y46766D02*
G01X43388Y47371D01*
G01X43157Y46766D02*
G01X42926Y47371D01*
G01X43301Y47170D02*
G01X43012Y47170D01*
G01X42532Y46766D02*
G01X42532Y47371D01*
G01X42735Y46766D02*
G01X42331Y46766D01*
G01X41910Y46766D02*
G01X42141Y47371D01*
G01X41910Y46766D02*
G01X41678Y47371D01*
G01X42054Y47170D02*
G01X41765Y47170D01*
G01X44980Y44831D02*
G01X44922Y44889D01*
G01X44836Y44917D01*
G01X44721Y44917D01*
G01X44635Y44889D01*
G01X44577Y44831D01*
G01X44577Y44775D01*
G01X44604Y44716D01*
G01X44635Y44686D01*
G01X44691Y44658D01*
G01X44866Y44599D01*
G01X44922Y44571D01*
G01X44952Y44543D01*
G01X44980Y44485D01*
G01X44980Y44399D01*
G01X44922Y44340D01*
G01X44836Y44312D01*
G01X44721Y44312D01*
G01X44635Y44340D01*
G01X44577Y44399D01*
G01X45605Y44775D02*
G01X45575Y44831D01*
G01X45516Y44889D01*
G01X45460Y44917D01*
G01X45344Y44917D01*
G01X45288Y44889D01*
G01X45229Y44831D01*
G01X45199Y44775D01*
G01X45171Y44686D01*
G01X45171Y44543D01*
G01X45199Y44457D01*
G01X45229Y44399D01*
G01X45288Y44340D01*
G01X45344Y44312D01*
G01X45460Y44312D01*
G01X45516Y44340D01*
G01X45575Y44399D01*
G01X45605Y44457D01*
G01X45796Y44917D02*
G01X45796Y44312D01*
G01X45796Y44312D02*
G01X46141Y44312D01*
G01X46332Y44917D02*
G01X46332Y44312D01*
G01X46736Y44917D02*
G01X46332Y44513D01*
G01X46476Y44658D02*
G01X46736Y44312D01*
G01X44577Y41686D02*
G01X44577Y42291D01*
G01X44577Y41686D02*
G01X44201Y41686D01*
G01X44577Y41973D02*
G01X44345Y41973D01*
G01X43606Y41772D02*
G01X43665Y41714D01*
G01X43751Y41686D01*
G01X43865Y41686D01*
G01X43954Y41714D01*
G01X44010Y41772D01*
G01X44010Y41828D01*
G01X43982Y41887D01*
G01X43954Y41917D01*
G01X43896Y41945D01*
G01X43723Y42003D01*
G01X43665Y42031D01*
G01X43637Y42059D01*
G01X43606Y42118D01*
G01X43606Y42204D01*
G01X43665Y42263D01*
G01X43751Y42291D01*
G01X43865Y42291D01*
G01X43954Y42263D01*
G01X44010Y42204D01*
G01X43416Y41686D02*
G01X43185Y41973D01*
G01X43185Y42291D01*
G01X42953Y41686D02*
G01X43185Y41973D01*
G01X42763Y41686D02*
G01X42763Y42291D01*
G01X42763Y41686D02*
G01X42359Y42291D01*
G01X42359Y41686D02*
G01X42359Y42291D01*
G01X42169Y41686D02*
G01X42169Y42291D01*
G01X41765Y41686D02*
G01X42169Y42090D01*
G01X42024Y41945D02*
G01X41765Y42291D01*
G01X44345Y39146D02*
G01X44577Y39751D01*
G01X44345Y39146D02*
G01X44114Y39751D01*
G01X44490Y39550D02*
G01X44201Y39550D01*
G01X43492Y39288D02*
G01X43520Y39232D01*
G01X43578Y39174D01*
G01X43637Y39146D01*
G01X43751Y39146D01*
G01X43809Y39174D01*
G01X43865Y39232D01*
G01X43896Y39288D01*
G01X43924Y39377D01*
G01X43924Y39519D01*
G01X43896Y39606D01*
G01X43865Y39664D01*
G01X43809Y39723D01*
G01X43751Y39751D01*
G01X43637Y39751D01*
G01X43578Y39723D01*
G01X43520Y39664D01*
G01X43492Y39606D01*
G01X43492Y39519D01*
G01X43637Y39519D02*
G01X43492Y39519D01*
G01X43301Y39146D02*
G01X43301Y39751D01*
G01X43301Y39146D02*
G01X42898Y39751D01*
G01X42898Y39146D02*
G01X42898Y39751D01*
G01X42707Y39146D02*
G01X42707Y39751D01*
G01X42707Y39146D02*
G01X42504Y39146D01*
G01X42418Y39174D01*
G01X42359Y39232D01*
G01X42331Y39288D01*
G01X42303Y39377D01*
G01X42303Y39519D01*
G01X42331Y39606D01*
G01X42359Y39664D01*
G01X42418Y39723D01*
G01X42504Y39751D01*
G01X42707Y39751D01*
G01X44577Y36606D02*
G01X44345Y37211D01*
G01X44114Y36606D02*
G01X44345Y37211D01*
G01X43751Y36606D02*
G01X43809Y36634D01*
G01X43865Y36692D01*
G01X43896Y36748D01*
G01X43924Y36837D01*
G01X43924Y36979D01*
G01X43896Y37066D01*
G01X43865Y37124D01*
G01X43809Y37183D01*
G01X43751Y37211D01*
G01X43637Y37211D01*
G01X43578Y37183D01*
G01X43520Y37124D01*
G01X43492Y37066D01*
G01X43461Y36979D01*
G01X43461Y36837D01*
G01X43492Y36748D01*
G01X43520Y36692D01*
G01X43578Y36634D01*
G01X43637Y36606D01*
G01X43751Y36606D01*
G01X43271Y36606D02*
G01X43271Y37038D01*
G01X43243Y37124D01*
G01X43185Y37183D01*
G01X43098Y37211D01*
G01X43040Y37211D01*
G01X42953Y37183D01*
G01X42898Y37124D01*
G01X42867Y37038D01*
G01X42867Y36606D01*
G01X42476Y36606D02*
G01X42476Y37211D01*
G01X42677Y36606D02*
G01X42273Y36606D01*
G54D24*
G01X40131Y48475D02*
G01X38699Y49022D01*
G01X40131Y48475D02*
G01X38699Y47932D01*
G01X39176Y48816D02*
G01X39176Y48135D01*
G01X40131Y47480D02*
G01X38699Y47480D01*
G01X40131Y47480D02*
G01X40131Y47002D01*
G01X40063Y46799D01*
G01X39928Y46662D01*
G01X39791Y46593D01*
G01X39585Y46527D01*
G01X39245Y46527D01*
G01X39042Y46593D01*
G01X38905Y46662D01*
G01X38767Y46799D01*
G01X38699Y47002D01*
G01X38699Y47480D01*
G01X39654Y45189D02*
G01X39451Y45257D01*
G01X39314Y45394D01*
G01X39245Y45598D01*
G01X39245Y45666D01*
G01X39314Y45872D01*
G01X39451Y46009D01*
G01X39654Y46075D01*
G01X39723Y46075D01*
G01X39928Y46009D01*
G01X40063Y45872D01*
G01X40131Y45666D01*
G01X40131Y45598D01*
G01X40063Y45394D01*
G01X39928Y45257D01*
G01X39654Y45189D01*
G01X39314Y45189D01*
G01X38973Y45257D01*
G01X38767Y45394D01*
G01X38699Y45598D01*
G01X38699Y45735D01*
G01X38767Y45940D01*
G01X38905Y46009D01*
G01X40131Y44399D02*
G01X40063Y44604D01*
G01X39928Y44670D01*
G01X39791Y44670D01*
G01X39654Y44604D01*
G01X39585Y44467D01*
G01X39519Y44196D01*
G01X39451Y43990D01*
G01X39314Y43853D01*
G01X39176Y43784D01*
G01X38973Y43784D01*
G01X38836Y43853D01*
G01X38767Y43921D01*
G01X38699Y44127D01*
G01X38699Y44399D01*
G01X38767Y44604D01*
G01X38836Y44670D01*
G01X38973Y44739D01*
G01X39176Y44739D01*
G01X39314Y44670D01*
G01X39451Y44536D01*
G01X39519Y44330D01*
G01X39585Y44058D01*
G01X39654Y43921D01*
G01X39791Y43853D01*
G01X39928Y43853D01*
G01X40063Y43921D01*
G01X40131Y44127D01*
G01X40131Y44399D01*
G01X40131Y43200D02*
G01X40131Y42448D01*
G01X39585Y42857D01*
G01X39585Y42654D01*
G01X39519Y42517D01*
G01X39451Y42448D01*
G01X39245Y42379D01*
G01X39108Y42379D01*
G01X38905Y42448D01*
G01X38767Y42585D01*
G01X38699Y42791D01*
G01X38699Y42994D01*
G01X38767Y43200D01*
G01X38836Y43266D01*
G01X38973Y43334D01*
G01X40131Y41795D02*
G01X40131Y41043D01*
G01X39585Y41452D01*
G01X39585Y41249D01*
G01X39519Y41112D01*
G01X39451Y41043D01*
G01X39245Y40977D01*
G01X39108Y40977D01*
G01X38905Y41043D01*
G01X38767Y41181D01*
G01X38699Y41386D01*
G01X38699Y41589D01*
G01X38767Y41795D01*
G01X38836Y41861D01*
G01X38973Y41930D01*
G01X38227Y49022D02*
G01X36794Y49022D01*
G01X38227Y49022D02*
G01X36794Y48475D01*
G01X38227Y47932D02*
G01X36794Y48475D01*
G01X38227Y47932D02*
G01X36794Y47932D01*
G01X38227Y47071D02*
G01X38158Y47208D01*
G01X38023Y47345D01*
G01X37886Y47414D01*
G01X37680Y47480D01*
G01X37340Y47480D01*
G01X37137Y47414D01*
G01X37000Y47345D01*
G01X36863Y47208D01*
G01X36794Y47071D01*
G01X36794Y46799D01*
G01X36863Y46662D01*
G01X37000Y46527D01*
G01X37137Y46459D01*
G01X37340Y46390D01*
G01X37680Y46390D01*
G01X37886Y46459D01*
G01X38023Y46527D01*
G01X38158Y46662D01*
G01X38227Y46799D01*
G01X38227Y47071D01*
G01X38227Y45940D02*
G01X36794Y45940D01*
G01X38227Y45940D02*
G01X38227Y45463D01*
G01X38158Y45257D01*
G01X38023Y45123D01*
G01X37886Y45054D01*
G01X37680Y44985D01*
G01X37340Y44985D01*
G01X37137Y45054D01*
G01X37000Y45123D01*
G01X36863Y45257D01*
G01X36794Y45463D01*
G01X36794Y45940D01*
G01X38227Y44536D02*
G01X37203Y44536D01*
G01X37000Y44467D01*
G01X36863Y44330D01*
G01X36794Y44127D01*
G01X36794Y43990D01*
G01X36863Y43784D01*
G01X37000Y43649D01*
G01X37203Y43581D01*
G01X38227Y43581D01*
G01X38227Y43131D02*
G01X36794Y43131D01*
G01X36794Y43131D02*
G01X36794Y42313D01*
G01X38227Y41861D02*
G01X36794Y41861D01*
G01X38227Y41861D02*
G01X38227Y40977D01*
G01X37546Y41861D02*
G01X37546Y41318D01*
G01X36794Y41861D02*
G01X36794Y40977D01*
G54D27*
G01X78653Y22369D02*
G01X78653Y23304D01*
G01X79121Y22837D02*
G01X78186Y22837D01*
G01X77843Y22423D02*
G01X77739Y22369D01*
G01X77584Y22214D01*
G01X77584Y23304D01*
G01X77188Y22473D02*
G01X77188Y22423D01*
G01X77137Y22318D01*
G01X77083Y22265D01*
G01X76979Y22214D01*
G01X76771Y22214D01*
G01X76669Y22265D01*
G01X76616Y22318D01*
G01X76565Y22423D01*
G01X76565Y22527D01*
G01X76616Y22631D01*
G01X76720Y22786D01*
G01X77241Y23304D01*
G01X76512Y23304D01*
G01X76169Y22214D02*
G01X75755Y23304D01*
G01X75338Y22214D02*
G01X75755Y23304D01*
G01X35687Y58282D02*
G01X35687Y59372D01*
G01X35687Y58282D02*
G01X35219Y58282D01*
G01X35064Y58333D01*
G01X35011Y58386D01*
G01X34960Y58491D01*
G01X34960Y58595D01*
G01X35011Y58699D01*
G01X35064Y58750D01*
G01X35219Y58801D01*
G01X35687Y58801D01*
G01X35323Y58801D02*
G01X34960Y59372D01*
G01X34305Y58282D02*
G01X34409Y58333D01*
G01X34513Y58437D01*
G01X34564Y58541D01*
G01X34617Y58699D01*
G01X34617Y58958D01*
G01X34564Y59113D01*
G01X34513Y59217D01*
G01X34409Y59321D01*
G01X34305Y59372D01*
G01X34096Y59372D01*
G01X33992Y59321D01*
G01X33888Y59217D01*
G01X33837Y59113D01*
G01X33784Y58958D01*
G01X33784Y58699D01*
G01X33837Y58541D01*
G01X33888Y58437D01*
G01X33992Y58333D01*
G01X34096Y58282D01*
G01X34305Y58282D01*
G01X33078Y58282D02*
G01X33078Y59372D01*
G01X33441Y58282D02*
G01X32715Y58282D01*
G01X31955Y58282D02*
G01X32372Y59372D01*
G01X31955Y58282D02*
G01X31541Y59372D01*
G01X32217Y59009D02*
G01X31696Y59009D01*
G01X31198Y58282D02*
G01X31198Y59372D01*
G01X31198Y58282D02*
G01X30731Y58282D01*
G01X30573Y58333D01*
G01X30523Y58386D01*
G01X30469Y58491D01*
G01X30469Y58595D01*
G01X30523Y58699D01*
G01X30573Y58750D01*
G01X30731Y58801D01*
G01X31198Y58801D01*
G01X30835Y58801D02*
G01X30469Y59372D01*
G01X30126Y58282D02*
G01X29712Y58801D01*
G01X29712Y59372D01*
G01X29296Y58282D02*
G01X29712Y58801D01*
G01X28953Y59738D02*
G01X28018Y59738D01*
G01X27675Y58282D02*
G01X27675Y59372D01*
G01X27675Y58282D02*
G01X27000Y58282D01*
G01X27675Y58801D02*
G01X27259Y58801D01*
G01X27675Y59372D02*
G01X27000Y59372D01*
G01X26657Y58282D02*
G01X26657Y59372D01*
G01X26657Y58282D02*
G01X25930Y59372D01*
G01X25930Y58282D02*
G01X25930Y59372D01*
G01X24808Y58541D02*
G01X24858Y58437D01*
G01X24963Y58333D01*
G01X25067Y58282D01*
G01X25275Y58282D01*
G01X25379Y58333D01*
G01X25483Y58437D01*
G01X25534Y58541D01*
G01X25587Y58699D01*
G01X25587Y58958D01*
G01X25534Y59113D01*
G01X25483Y59217D01*
G01X25379Y59321D01*
G01X25275Y59372D01*
G01X25067Y59372D01*
G01X24963Y59321D01*
G01X24858Y59217D01*
G01X24808Y59113D01*
G01X24152Y58282D02*
G01X24257Y58333D01*
G01X24361Y58437D01*
G01X24411Y58541D01*
G01X24465Y58699D01*
G01X24465Y58958D01*
G01X24411Y59113D01*
G01X24361Y59217D01*
G01X24257Y59321D01*
G01X24152Y59372D01*
G01X23944Y59372D01*
G01X23840Y59321D01*
G01X23736Y59217D01*
G01X23685Y59113D01*
G01X23634Y58958D01*
G01X23634Y58699D01*
G01X23685Y58541D01*
G01X23736Y58437D01*
G01X23840Y58333D01*
G01X23944Y58282D01*
G01X24152Y58282D01*
G01X23291Y58282D02*
G01X23291Y59372D01*
G01X23291Y58282D02*
G01X22926Y58282D01*
G01X22771Y58333D01*
G01X22666Y58437D01*
G01X22616Y58541D01*
G01X22562Y58699D01*
G01X22562Y58958D01*
G01X22616Y59113D01*
G01X22666Y59217D01*
G01X22771Y59321D01*
G01X22926Y59372D01*
G01X23291Y59372D01*
G01X22219Y58282D02*
G01X22219Y59372D01*
G01X22219Y58282D02*
G01X21544Y58282D01*
G01X22219Y58801D02*
G01X21805Y58801D01*
G01X22219Y59372D02*
G01X21544Y59372D01*
G01X21201Y58282D02*
G01X21201Y59372D01*
G01X21201Y58282D02*
G01X20734Y58282D01*
G01X20579Y58333D01*
G01X20525Y58386D01*
G01X20474Y58491D01*
G01X20474Y58595D01*
G01X20525Y58699D01*
G01X20579Y58750D01*
G01X20734Y58801D01*
G01X21201Y58801D01*
G01X20838Y58801D02*
G01X20474Y59372D01*

%LPD*%
G36*
G01X40370Y67299D02*
G01X39997Y67299D01*
G01X39931Y67297D01*
G01X39868Y67291D01*
G01X39809Y67281D01*
G01X39753Y67266D01*
G01X39700Y67248D01*
G01X39650Y67226D01*
G01X39604Y67200D01*
G01X39561Y67170D01*
G01X39520Y67137D01*
G01X39484Y67100D01*
G01X39451Y67060D01*
G01X39421Y67016D01*
G01X39395Y66969D01*
G01X39372Y66918D01*
G01X39353Y66864D01*
G01X39337Y66808D01*
G01X39325Y66748D01*
G01X39316Y66685D01*
G01X39311Y66619D01*
G01X39309Y66550D01*
G01X39311Y66481D01*
G01X39316Y66416D01*
G01X39325Y66353D01*
G01X39337Y66294D01*
G01X39353Y66238D01*
G01X39373Y66184D01*
G01X39395Y66134D01*
G01X39422Y66088D01*
G01X39452Y66045D01*
G01X39485Y66005D01*
G01X39522Y65969D01*
G01X39562Y65936D01*
G01X39606Y65907D01*
G01X39652Y65882D01*
G01X39703Y65861D01*
G01X39757Y65843D01*
G01X39813Y65829D01*
G01X39874Y65819D01*
G01X39937Y65813D01*
G01X40005Y65811D01*
G01X40370Y65811D01*
G01X40370Y67299D01*
G37*

%LPC*%
G36*
G01X40200Y67162D02*
G01X40017Y67162D01*
G01X39952Y67160D01*
G01X39891Y67152D01*
G01X39834Y67138D01*
G01X39781Y67120D01*
G01X39733Y67097D01*
G01X39689Y67068D01*
G01X39649Y67036D01*
G01X39614Y66998D01*
G01X39583Y66956D01*
G01X39556Y66910D01*
G01X39533Y66860D01*
G01X39514Y66806D01*
G01X39500Y66747D01*
G01X39489Y66685D01*
G01X39483Y66619D01*
G01X39481Y66550D01*
G01X39483Y66480D01*
G01X39489Y66415D01*
G01X39500Y66353D01*
G01X39514Y66296D01*
G01X39533Y66242D01*
G01X39556Y66193D01*
G01X39583Y66148D01*
G01X39614Y66108D01*
G01X39649Y66072D01*
G01X39689Y66040D01*
G01X39733Y66013D01*
G01X39781Y65991D01*
G01X39834Y65973D01*
G01X39891Y65961D01*
G01X39952Y65953D01*
G01X40017Y65951D01*
G01X40200Y65951D01*
G01X40200Y67162D01*
G37*

%LPD*%
G36*
G01X40960Y67299D02*
G01X40784Y67299D01*
G01X40784Y65811D01*
G01X40944Y65811D01*
G01X40944Y66673D01*
G01X40940Y66791D01*
G01X40937Y66849D01*
G01X40929Y66967D01*
G01X40926Y67024D01*
G01X40921Y67081D01*
G01X40932Y67081D01*
G01X41094Y66776D01*
G01X41656Y65811D01*
G01X41828Y65811D01*
G01X41828Y67299D01*
G01X41671Y67299D01*
G01X41671Y66426D01*
G01X41673Y66369D01*
G01X41678Y66255D01*
G01X41684Y66143D01*
G01X41688Y66087D01*
G01X41691Y66032D01*
G01X41681Y66032D01*
G01X41518Y66337D01*
G01X40960Y67299D01*
G37*

%LPD*%
G36*
G01X42701Y67323D02*
G01X42644Y67325D01*
G01X42571Y67322D01*
G01X42502Y67312D01*
G01X42437Y67297D01*
G01X42377Y67277D01*
G01X42322Y67252D01*
G01X42272Y67223D01*
G01X42228Y67190D01*
G01X42189Y67155D01*
G01X42189Y66537D01*
G01X42669Y66537D01*
G01X42669Y66677D01*
G01X42344Y66677D01*
G01X42344Y67083D01*
G01X42398Y67123D01*
G01X42467Y67153D01*
G01X42546Y67171D01*
G01X42628Y67177D01*
G01X42687Y67174D01*
G01X42743Y67166D01*
G01X42795Y67153D01*
G01X42843Y67134D01*
G01X42888Y67110D01*
G01X42930Y67081D01*
G01X42968Y67047D01*
G01X43002Y67009D01*
G01X43032Y66966D01*
G01X43059Y66919D01*
G01X43081Y66868D01*
G01X43100Y66812D01*
G01X43115Y66753D01*
G01X43125Y66690D01*
G01X43132Y66623D01*
G01X43134Y66553D01*
G01X43131Y66482D01*
G01X43125Y66416D01*
G01X43113Y66353D01*
G01X43098Y66294D01*
G01X43078Y66239D01*
G01X43055Y66188D01*
G01X43028Y66141D01*
G01X42996Y66099D01*
G01X42962Y66061D01*
G01X42923Y66028D01*
G01X42882Y65999D01*
G01X42837Y65975D01*
G01X42789Y65957D01*
G01X42738Y65943D01*
G01X42685Y65935D01*
G01X42628Y65933D01*
G01X42522Y65944D01*
G01X42434Y65974D01*
G01X42361Y66020D01*
G01X42301Y66075D01*
G01X42207Y65966D01*
G01X42241Y65933D01*
G01X42280Y65901D01*
G01X42325Y65871D01*
G01X42374Y65843D01*
G01X42429Y65820D01*
G01X42490Y65802D01*
G01X42557Y65790D01*
G01X42631Y65786D01*
G01X42689Y65788D01*
G01X42746Y65794D01*
G01X42800Y65805D01*
G01X42852Y65820D01*
G01X42903Y65839D01*
G01X42950Y65862D01*
G01X42996Y65888D01*
G01X43039Y65919D01*
G01X43079Y65953D01*
G01X43117Y65991D01*
G01X43151Y66033D01*
G01X43182Y66078D01*
G01X43210Y66126D01*
G01X43235Y66178D01*
G01X43256Y66234D01*
G01X43274Y66291D01*
G01X43288Y66353D01*
G01X43298Y66417D01*
G01X43304Y66485D01*
G01X43307Y66555D01*
G01X43304Y66626D01*
G01X43298Y66694D01*
G01X43289Y66759D01*
G01X43275Y66820D01*
G01X43258Y66879D01*
G01X43237Y66934D01*
G01X43213Y66986D01*
G01X43186Y67035D01*
G01X43155Y67079D01*
G01X43122Y67121D01*
G01X43085Y67159D01*
G01X43046Y67193D01*
G01X43004Y67223D01*
G01X42959Y67250D01*
G01X42912Y67272D01*
G01X42863Y67291D01*
G01X42811Y67305D01*
G01X42757Y67316D01*
G01X42701Y67323D01*
G37*

%LPD*%

%LPD*%
G36*
G01X42892Y69341D02*
G01X42758Y69341D01*
G01X42758Y68894D01*
G01X42344Y68894D01*
G01X42344Y68773D01*
G01X42758Y68773D01*
G01X42758Y68325D01*
G01X42892Y68325D01*
G01X42892Y68773D01*
G01X43307Y68773D01*
G01X43307Y68894D01*
G01X42892Y68894D01*
G01X42892Y69341D01*
G37*

%LPD*%

%LPD*%
G36*
G01X41000Y72379D02*
G01X40800Y72379D01*
G01X40487Y70891D01*
G01X40650Y70891D01*
G01X40812Y71719D01*
G01X40835Y71838D01*
G01X40846Y71898D01*
G01X40856Y71958D01*
G01X40878Y72080D01*
G01X40888Y72141D01*
G01X40899Y72202D01*
G01X40909Y72202D01*
G01X40965Y71958D01*
G01X40978Y71898D01*
G01X40992Y71838D01*
G01X41021Y71719D01*
G01X41234Y70891D01*
G01X41389Y70891D01*
G01X41600Y71719D01*
G01X41614Y71778D01*
G01X41628Y71838D01*
G01X41641Y71898D01*
G01X41655Y71958D01*
G01X41669Y72019D01*
G01X41682Y72080D01*
G01X41696Y72141D01*
G01X41709Y72202D01*
G01X41716Y72202D01*
G01X41728Y72141D01*
G01X41750Y72019D01*
G01X41762Y71958D01*
G01X41773Y71898D01*
G01X41785Y71838D01*
G01X41796Y71778D01*
G01X41808Y71719D01*
G01X41973Y70891D01*
G01X42146Y70891D01*
G01X41823Y72379D01*
G01X41628Y72379D01*
G01X41396Y71452D01*
G01X41377Y71368D01*
G01X41357Y71284D01*
G01X41338Y71200D01*
G01X41320Y71114D01*
G01X41310Y71114D01*
G01X41291Y71200D01*
G01X41255Y71368D01*
G01X41236Y71452D01*
G01X41000Y72379D01*
G37*

%LPD*%
G36*
G01X42867Y72401D02*
G01X42788Y72405D01*
G01X42715Y72401D01*
G01X42646Y72390D01*
G01X42582Y72373D01*
G01X42524Y72349D01*
G01X42471Y72319D01*
G01X42425Y72284D01*
G01X42385Y72244D01*
G01X42352Y72200D01*
G01X42326Y72152D01*
G01X42306Y72100D01*
G01X42295Y72046D01*
G01X42291Y71988D01*
G01X42297Y71911D01*
G01X42314Y71843D01*
G01X42343Y71785D01*
G01X42380Y71735D01*
G01X42426Y71692D01*
G01X42478Y71654D01*
G01X42536Y71621D01*
G01X42598Y71592D01*
G01X42814Y71501D01*
G01X42857Y71481D01*
G01X42901Y71460D01*
G01X42943Y71436D01*
G01X42981Y71409D01*
G01X43014Y71377D01*
G01X43040Y71339D01*
G01X43057Y71294D01*
G01X43063Y71241D01*
G01X43057Y71192D01*
G01X43042Y71147D01*
G01X43016Y71108D01*
G01X42982Y71075D01*
G01X42941Y71048D01*
G01X42891Y71029D01*
G01X42835Y71017D01*
G01X42773Y71013D01*
G01X42721Y71015D01*
G01X42673Y71023D01*
G01X42626Y71035D01*
G01X42583Y71051D01*
G01X42541Y71072D01*
G01X42502Y71097D01*
G01X42465Y71124D01*
G01X42430Y71155D01*
G01X42341Y71048D01*
G01X42382Y71010D01*
G01X42427Y70975D01*
G01X42476Y70944D01*
G01X42529Y70917D01*
G01X42585Y70895D01*
G01X42645Y70879D01*
G01X42708Y70869D01*
G01X42773Y70866D01*
G01X42838Y70869D01*
G01X42899Y70879D01*
G01X42956Y70894D01*
G01X43010Y70916D01*
G01X43059Y70943D01*
G01X43102Y70975D01*
G01X43140Y71012D01*
G01X43172Y71053D01*
G01X43198Y71098D01*
G01X43217Y71147D01*
G01X43229Y71199D01*
G01X43233Y71254D01*
G01X43225Y71330D01*
G01X43205Y71396D01*
G01X43173Y71453D01*
G01X43133Y71502D01*
G01X43087Y71543D01*
G01X43036Y71578D01*
G01X42983Y71608D01*
G01X42931Y71633D01*
G01X42715Y71727D01*
G01X42663Y71750D01*
G01X42615Y71774D01*
G01X42572Y71799D01*
G01X42534Y71828D01*
G01X42503Y71861D01*
G01X42480Y71899D01*
G01X42466Y71946D01*
G01X42461Y72001D01*
G01X42466Y72056D01*
G01X42483Y72105D01*
G01X42511Y72149D01*
G01X42548Y72186D01*
G01X42595Y72216D01*
G01X42651Y72239D01*
G01X42716Y72253D01*
G01X42788Y72257D01*
G01X42847Y72254D01*
G01X42905Y72244D01*
G01X42961Y72228D01*
G01X43015Y72206D01*
G01X43067Y72179D01*
G01X43116Y72147D01*
G01X43162Y72110D01*
G01X43205Y72069D01*
G01X43307Y72184D01*
G01X43256Y72233D01*
G01X43201Y72276D01*
G01X43142Y72314D01*
G01X43079Y72346D01*
G01X43012Y72371D01*
G01X42941Y72390D01*
G01X42867Y72401D01*
G37*

%LPD*%

%LPD*%
G36*
G01X41661Y74894D02*
G01X41490Y74894D01*
G01X41490Y73548D01*
G01X41036Y73548D01*
G01X41036Y73406D01*
G01X42115Y73406D01*
G01X42115Y73548D01*
G01X41661Y73548D01*
G01X41661Y74894D01*
G37*

%LPD*%
G36*
G01X43307Y74894D02*
G01X42936Y74894D01*
G01X42870Y74892D01*
G01X42807Y74886D01*
G01X42747Y74875D01*
G01X42690Y74861D01*
G01X42637Y74843D01*
G01X42588Y74820D01*
G01X42541Y74794D01*
G01X42498Y74765D01*
G01X42458Y74731D01*
G01X42422Y74695D01*
G01X42389Y74654D01*
G01X42360Y74610D01*
G01X42333Y74563D01*
G01X42311Y74512D01*
G01X42292Y74459D01*
G01X42276Y74402D01*
G01X42263Y74342D01*
G01X42254Y74279D01*
G01X42249Y74213D01*
G01X42247Y74145D01*
G01X42249Y74076D01*
G01X42254Y74011D01*
G01X42263Y73948D01*
G01X42276Y73888D01*
G01X42292Y73832D01*
G01X42311Y73779D01*
G01X42334Y73729D01*
G01X42360Y73682D01*
G01X42390Y73640D01*
G01X42423Y73600D01*
G01X42459Y73563D01*
G01X42499Y73531D01*
G01X42542Y73502D01*
G01X42589Y73477D01*
G01X42639Y73455D01*
G01X42693Y73438D01*
G01X42750Y73424D01*
G01X42810Y73414D01*
G01X42874Y73408D01*
G01X42941Y73406D01*
G01X43307Y73406D01*
G01X43307Y74894D01*
G37*

%LPC*%
G36*
G01X43139Y74757D02*
G01X42956Y74757D01*
G01X42890Y74754D01*
G01X42829Y74746D01*
G01X42773Y74733D01*
G01X42720Y74715D01*
G01X42672Y74691D01*
G01X42628Y74663D01*
G01X42588Y74630D01*
G01X42553Y74593D01*
G01X42522Y74551D01*
G01X42495Y74505D01*
G01X42472Y74455D01*
G01X42453Y74400D01*
G01X42439Y74342D01*
G01X42428Y74280D01*
G01X42422Y74214D01*
G01X42420Y74145D01*
G01X42422Y74075D01*
G01X42428Y74010D01*
G01X42439Y73948D01*
G01X42453Y73890D01*
G01X42472Y73837D01*
G01X42495Y73788D01*
G01X42522Y73743D01*
G01X42553Y73702D01*
G01X42588Y73666D01*
G01X42628Y73635D01*
G01X42672Y73608D01*
G01X42720Y73585D01*
G01X42773Y73568D01*
G01X42829Y73555D01*
G01X42890Y73548D01*
G01X42956Y73545D01*
G01X43139Y73545D01*
G01X43139Y74757D01*
G37*

%LPD*%

%LPD*%
G36*
G01X39951Y77459D02*
G01X39763Y77459D01*
G01X40299Y76535D01*
G01X39832Y75971D01*
G01X40025Y75971D01*
G01X40667Y76738D01*
G01X40673Y76738D01*
G01X40673Y75971D01*
G01X40840Y75971D01*
G01X40840Y77459D01*
G01X40673Y77459D01*
G01X40673Y76979D01*
G01X40406Y76667D01*
G01X39951Y77459D01*
G37*

%LPD*%
G36*
G01X41930Y77459D02*
G01X41104Y77459D01*
G01X41104Y77317D01*
G01X41762Y77317D01*
G01X41762Y75971D01*
G01X41930Y75971D01*
G01X41930Y77459D01*
G37*

%LPD*%
G36*
G01X42721Y77483D02*
G01X42666Y77485D01*
G01X42596Y77481D01*
G01X42530Y77471D01*
G01X42468Y77453D01*
G01X42410Y77429D01*
G01X42356Y77399D01*
G01X42305Y77363D01*
G01X42257Y77320D01*
G01X42212Y77271D01*
G01X42306Y77167D01*
G01X42343Y77206D01*
G01X42382Y77240D01*
G01X42423Y77269D01*
G01X42465Y77293D01*
G01X42509Y77313D01*
G01X42557Y77326D01*
G01X42606Y77334D01*
G01X42659Y77337D01*
G01X42712Y77334D01*
G01X42763Y77326D01*
G01X42811Y77313D01*
G01X42856Y77294D01*
G01X42899Y77270D01*
G01X42938Y77241D01*
G01X42973Y77207D01*
G01X43006Y77169D01*
G01X43035Y77126D01*
G01X43061Y77079D01*
G01X43082Y77028D01*
G01X43101Y76972D01*
G01X43115Y76913D01*
G01X43125Y76850D01*
G01X43132Y76783D01*
G01X43134Y76713D01*
G01X43132Y76642D01*
G01X43125Y76576D01*
G01X43114Y76513D01*
G01X43099Y76454D01*
G01X43080Y76399D01*
G01X43058Y76348D01*
G01X43032Y76301D01*
G01X43002Y76259D01*
G01X42969Y76221D01*
G01X42932Y76188D01*
G01X42892Y76159D01*
G01X42850Y76135D01*
G01X42804Y76117D01*
G01X42756Y76103D01*
G01X42705Y76095D01*
G01X42651Y76093D01*
G01X42559Y76103D01*
G01X42477Y76132D01*
G01X42406Y76178D01*
G01X42344Y76235D01*
G01X42250Y76126D01*
G01X42284Y76091D01*
G01X42323Y76058D01*
G01X42367Y76027D01*
G01X42415Y76000D01*
G01X42469Y75978D01*
G01X42526Y75960D01*
G01X42588Y75950D01*
G01X42654Y75946D01*
G01X42709Y75948D01*
G01X42763Y75954D01*
G01X42816Y75965D01*
G01X42866Y75980D01*
G01X42914Y75999D01*
G01X42961Y76022D01*
G01X43004Y76048D01*
G01X43046Y76079D01*
G01X43085Y76113D01*
G01X43121Y76151D01*
G01X43155Y76193D01*
G01X43185Y76238D01*
G01X43213Y76286D01*
G01X43236Y76338D01*
G01X43257Y76394D01*
G01X43274Y76451D01*
G01X43288Y76513D01*
G01X43298Y76577D01*
G01X43304Y76645D01*
G01X43307Y76715D01*
G01X43304Y76786D01*
G01X43298Y76854D01*
G01X43289Y76919D01*
G01X43276Y76980D01*
G01X43258Y77039D01*
G01X43238Y77094D01*
G01X43214Y77146D01*
G01X43187Y77195D01*
G01X43157Y77239D01*
G01X43125Y77281D01*
G01X43089Y77319D01*
G01X43051Y77353D01*
G01X43010Y77383D01*
G01X42967Y77410D01*
G01X42922Y77432D01*
G01X42874Y77451D01*
G01X42825Y77465D01*
G01X42774Y77476D01*
G01X42721Y77483D01*
G37*

%LPD*%
G01X61323Y26426D02*
G01X61323Y25336D01*
G01X60960Y26426D02*
G01X61686Y26426D01*
G01X62029Y26426D02*
G01X62029Y25336D01*
G01X62029Y25336D02*
G01X62654Y25336D01*
G01X63309Y26426D02*
G01X63152Y26375D01*
G01X63047Y26217D01*
G01X62997Y25958D01*
G01X62997Y25803D01*
G01X63047Y25542D01*
G01X63152Y25387D01*
G01X63309Y25336D01*
G01X63411Y25336D01*
G01X63568Y25387D01*
G01X63672Y25542D01*
G01X63723Y25803D01*
G01X63723Y25958D01*
G01X63672Y26217D01*
G01X63568Y26375D01*
G01X63411Y26426D01*
G01X63309Y26426D01*
G01X64795Y26426D02*
G01X64274Y25336D01*
G01X64066Y26426D02*
G01X64795Y26426D01*
G01X65138Y26217D02*
G01X65239Y26271D01*
G01X65397Y26426D01*
G01X65397Y25336D01*
G01X66154Y26426D02*
G01X65740Y25336D01*
G01X66154Y26426D02*
G01X66570Y25336D01*
G01X65895Y25699D02*
G01X66415Y25699D01*
G01X66913Y24970D02*
G01X67848Y24970D01*
G01X68191Y26426D02*
G01X68191Y25336D01*
G01X69314Y26167D02*
G01X69263Y26271D01*
G01X69159Y26375D01*
G01X69054Y26426D01*
G01X68846Y26426D01*
G01X68742Y26375D01*
G01X68638Y26271D01*
G01X68587Y26167D01*
G01X68534Y26009D01*
G01X68534Y25750D01*
G01X68587Y25595D01*
G01X68638Y25491D01*
G01X68742Y25387D01*
G01X68846Y25336D01*
G01X69054Y25336D01*
G01X69159Y25387D01*
G01X69263Y25491D01*
G01X69314Y25595D01*
G01X96641Y7764D02*
G01X96537Y7711D01*
G01X96433Y7607D01*
G01X96382Y7505D01*
G01X96382Y7297D01*
G01X96433Y7193D01*
G01X96537Y7089D01*
G01X96641Y7035D01*
G01X96799Y6985D01*
G01X97058Y6985D01*
G01X97213Y7035D01*
G01X97317Y7089D01*
G01X97421Y7193D01*
G01X97472Y7297D01*
G01X97472Y7505D01*
G01X97421Y7607D01*
G01X97317Y7711D01*
G01X97213Y7764D01*
G01X97058Y7764D01*
G01X97058Y7505D02*
G01X97058Y7764D01*
G01X96382Y8107D02*
G01X97472Y8107D01*
G01X96382Y8107D02*
G01X97472Y8834D01*
G01X96382Y8834D02*
G01X97472Y8834D01*
G01X96382Y9177D02*
G01X97472Y9177D01*
G01X96382Y9177D02*
G01X96382Y9540D01*
G01X96433Y9697D01*
G01X96537Y9801D01*
G01X96641Y9852D01*
G01X96799Y9906D01*
G01X97058Y9906D01*
G01X97213Y9852D01*
G01X97317Y9801D01*
G01X97421Y9697D01*
G01X97472Y9540D01*
G01X97472Y9177D01*
G01X96591Y10248D02*
G01X96537Y10350D01*
G01X96382Y10507D01*
G01X97472Y10507D01*
G54D10*
G75*
G01X91724Y23124D02*
G03X91724Y23114I-538J-5D01*
G01*
G75*
G01X73523Y10444D02*
G03X73533Y10444I5J-538D01*
G01*
G75*
G01X33147Y74676D02*
G02X33147Y69596I65J-2540D01*
G01*
G75*
G01X33147Y69596D02*
G02X33147Y74676I0J2540D01*
G01*
G75*
G01X57404Y18923D02*
G03X57404Y18923I-254J0D01*
G01*
M00*
M02*
