G04 Layer: TopSolderMaskLayer*
G04 EasyEDA v6.3.22, 2020-02-07T10:38:26+05:30*
G04 d98ca743bd924faf94c975302ac9eeb7,545d4b8ce55c4096bfffc31d6a5384ca,10*
G04 Gerber Generator version 0.2*
G04 Scale: 100 percent, Rotated: No, Reflected: No *
G04 Dimensions in millimeters *
G04 leading zeros omitted , absolute positions ,3 integer and 3 decimal *
%FSLAX33Y33*%
%MOMM*%
G90*
G71D02*

%ADD30C,2.203196*%
%ADD31C,2.404008*%
%ADD32C,1.981200*%
%ADD34C,2.300021*%
%ADD36C,2.123186*%
%ADD37C,3.505200*%
%ADD38C,1.727200*%
%ADD40C,1.897024*%

%LPD*%
G36*
G01X88051Y4612D02*
G01X88051Y6817D01*
G01X90256Y6817D01*
G01X90256Y4612D01*
G01X88051Y4612D01*
G37*
G54D30*
G01X89154Y8255D03*
G36*
G01X70779Y14518D02*
G01X70779Y16723D01*
G01X72984Y16723D01*
G01X72984Y14518D01*
G01X70779Y14518D01*
G37*
G01X69342Y15621D03*
G36*
G01X20360Y35854D02*
G01X20360Y38059D01*
G01X22565Y38059D01*
G01X22565Y35854D01*
G01X20360Y35854D01*
G37*
G01X21463Y39497D03*
G36*
G01X20233Y68366D02*
G01X20233Y70571D01*
G01X22438Y70571D01*
G01X22438Y68366D01*
G01X20233Y68366D01*
G37*
G01X21336Y72009D03*
G54D31*
G01X89535Y20330D03*
G01X89535Y22870D03*
G01X89535Y17769D03*
G01X76316Y8255D03*
G01X73776Y8255D03*
G01X78877Y8255D03*
G01X69088Y67945D03*
G54D32*
G01X69088Y70485D03*
G01X69088Y73025D03*
G01X69088Y75565D03*
G36*
G01X68097Y77114D02*
G01X68097Y79095D01*
G01X70078Y79095D01*
G01X70078Y77114D01*
G01X68097Y77114D01*
G37*
G54D31*
G01X69088Y65405D03*
G01X69088Y62865D03*
G54D32*
G01X69088Y60325D03*
G01X69088Y57785D03*
G01X69088Y55245D03*
G01X69088Y52705D03*
G01X69088Y50165D03*
G54D31*
G01X69088Y47625D03*
G01X69088Y45085D03*
G01X69088Y42545D03*
G54D32*
G01X84328Y78105D03*
G01X84328Y75565D03*
G01X84328Y73025D03*
G54D31*
G01X84328Y70485D03*
G54D32*
G01X84328Y67945D03*
G01X84328Y65405D03*
G54D31*
G01X84328Y62865D03*
G01X84328Y60325D03*
G54D32*
G01X84328Y57785D03*
G01X84328Y55245D03*
G01X84328Y52705D03*
G01X84328Y50165D03*
G01X84328Y47625D03*
G01X84328Y45085D03*
G54D31*
G01X84328Y42545D03*
G54D34*
G01X96139Y76835D03*
G54D31*
G01X96139Y74295D03*
G01X96139Y71755D03*
G01X96139Y69215D03*
G01X38100Y15748D03*
G01X45720Y15748D03*
G36*
G01X44785Y50995D02*
G01X44785Y53398D01*
G01X46908Y53398D01*
G01X46908Y50995D01*
G01X44785Y50995D01*
G37*
G54D36*
G01X45847Y49657D03*
G54D31*
G01X45847Y47117D03*
G01X45847Y44577D03*
G01X45847Y42037D03*
G54D36*
G01X45847Y39497D03*
G54D31*
G01X45847Y36957D03*
G36*
G01X79161Y23408D02*
G01X79161Y25613D01*
G01X81366Y25613D01*
G01X81366Y23408D01*
G01X79161Y23408D01*
G37*
G54D30*
G01X77724Y24511D03*
G54D37*
G01X43586Y61685D03*
G01X27586Y61685D03*
G54D31*
G01X45847Y77216D03*
G01X45847Y74676D03*
G01X45847Y72136D03*
G01X45847Y69596D03*
G54D38*
G01X45847Y67056D03*
G36*
G01X56349Y15836D02*
G01X56349Y17437D01*
G01X57950Y17437D01*
G01X57950Y15836D01*
G01X56349Y15836D01*
G37*
G54D31*
G01X59690Y16637D03*
G01X62230Y16637D03*
G01X64770Y16637D03*
G54D40*
G01X64770Y24257D03*
G54D31*
G01X62230Y24257D03*
G01X59690Y24257D03*
G54D40*
G01X57150Y24257D03*
G36*
G01X97576Y4739D02*
G01X97576Y6944D01*
G01X99781Y6944D01*
G01X99781Y4739D01*
G01X97576Y4739D01*
G37*
G54D30*
G01X98679Y8382D03*
M00*
M02*
